# Blender 4.3.2
# www.blender.org
mtllib base_link_collision.mtl
o base_link_collision
v -0.008413 -0.152584 -0.008999
v -0.005667 -0.152728 -0.008999
v -0.005722 -0.153779 -0.008427
v -0.016589 -0.158584 -0.003781
v -0.014342 -0.158701 -0.003781
v -0.014406 -0.159932 -0.002287
v -0.016653 -0.159814 -0.002287
v -0.016673 -0.160200 -0.000390
v -0.014398 -0.159768 0.001467
v -0.016645 -0.159650 0.001467
v 0.033073 -0.056100 -0.027340
v 0.033073 -0.069000 -0.027340
v 0.032340 -0.056100 -0.028238
v 0.031597 -0.069000 -0.028806
v 0.031597 -0.056100 -0.028806
v 0.029085 -0.056100 -0.029881
v 0.026906 -0.056100 -0.030196
v 0.026899 -0.054391 -0.029952
v 0.029547 -0.056100 -0.029745
v 0.031596 -0.055888 -0.028802
v 0.029473 -0.054391 -0.029513
v 0.032343 -0.055559 -0.028204
v 0.032423 -0.053367 -0.027269
v 0.033351 -0.054764 -0.026552
v 0.032382 -0.054093 -0.027744
v 0.031556 -0.054569 -0.028602
v 0.042436 -0.065013 -0.009458
v 0.042207 -0.064039 -0.009634
v 0.042567 -0.063983 -0.006998
v 0.042883 -0.067421 -0.009202
v 0.043494 -0.069000 -0.005555
v 0.043070 -0.069000 -0.009293
v 0.043598 -0.069000 -0.002287
v 0.043002 -0.064721 -0.001887
v 0.039744 -0.059813 -0.014652
v 0.039688 -0.059220 -0.014465
v 0.039965 -0.059416 -0.013801
v 0.029085 -0.069000 -0.029881
v 0.025568 -0.069000 -0.030139
v 0.025568 -0.056100 -0.030139
v -0.005329 -0.041545 -0.027423
v -0.003431 -0.040696 -0.027583
v -0.001939 -0.041577 -0.027745
v 0.043411 -0.073494 -0.009275
v 0.043742 -0.072799 -0.006065
v 0.043781 -0.076430 -0.006249
v 0.043824 -0.072099 -0.002540
v 0.043857 -0.072875 -0.002597
v 0.042766 -0.069000 -0.010039
v 0.043167 -0.072109 -0.009817
v 0.043281 -0.075499 -0.009817
v -0.034334 -0.083809 -0.023835
v -0.034876 -0.085504 -0.023566
v -0.034898 -0.083843 -0.023680
v -0.036523 -0.083941 -0.023001
v -0.037007 -0.085583 -0.022622
v -0.037070 -0.083973 -0.022680
v -0.038834 -0.085627 -0.021169
v -0.039241 -0.084104 -0.020777
v -0.038852 -0.084080 -0.021207
v -0.037978 -0.084027 -0.022019
v -0.042106 -0.085665 -0.015478
v -0.042301 -0.084332 -0.014725
v -0.041462 -0.084262 -0.017093
v -0.041319 -0.085662 -0.017472
v -0.040467 -0.084187 -0.019063
v -0.040258 -0.085650 -0.019397
v -0.043111 -0.085651 -0.011401
v -0.043443 -0.084436 -0.008525
v -0.042972 -0.084392 -0.011888
v -0.044340 -0.106571 -0.004048
v -0.044285 -0.103542 -0.004046
v -0.044234 -0.106562 -0.005280
v -0.043584 -0.092224 -0.008822
v -0.043835 -0.092124 -0.006938
v -0.043753 -0.089494 -0.007151
v -0.044553 -0.137984 -0.004272
v -0.044620 -0.137490 -0.004341
v -0.044532 -0.138215 -0.004584
v -0.044574 -0.137962 -0.004925
v -0.044475 -0.138122 -0.005696
v -0.044407 -0.138486 -0.005694
v -0.044520 -0.138102 -0.005390
v -0.044455 -0.138479 -0.005319
v -0.044500 -0.138382 -0.004938
v 0.044658 -0.141035 -0.004186
v 0.044593 -0.141602 -0.004127
v 0.044640 -0.141578 -0.004655
v 0.044572 -0.142015 -0.004653
v 0.044590 -0.141865 -0.005400
v 0.044527 -0.142230 -0.005329
v 0.044492 -0.142259 -0.005649
v 0.044567 -0.141876 -0.005645
v 0.044248 -0.141817 -0.007466
v 0.044092 -0.142170 -0.007762
v 0.042939 -0.141738 -0.009938
v 0.043318 -0.141750 -0.009482
v 0.043258 -0.142114 -0.009451
v 0.043683 -0.141767 -0.008908
v 0.044160 -0.141806 -0.007768
v 0.042465 -0.141729 -0.010377
v 0.041996 -0.142089 -0.010632
v 0.041987 -0.141725 -0.010718
v 0.041025 -0.142090 -0.011131
v 0.040761 -0.141729 -0.011303
v 0.040015 -0.142104 -0.011458
v -0.036157 -0.138203 -0.011990
v -0.033463 -0.138697 -0.012104
v -0.036893 -0.138534 -0.011838
v -0.037383 -0.138149 -0.011838
v -0.038619 -0.138465 -0.011542
v -0.040061 -0.138058 -0.011199
v -0.040331 -0.138416 -0.011024
v -0.040357 -0.138052 -0.011087
v -0.042731 -0.138036 -0.009532
v -0.042653 -0.138400 -0.009516
v -0.043252 -0.138412 -0.008785
v -0.043538 -0.138055 -0.008460
v -0.044066 -0.138451 -0.007118
v -0.044124 -0.138087 -0.007155
v -0.044331 -0.138105 -0.006426
v -0.042228 -0.067085 -0.002780
v -0.042288 -0.067044 -0.003147
v -0.042703 -0.070721 -0.003461
v -0.043147 -0.075733 -0.003802
v -0.042767 -0.072881 -0.006950
v -0.039625 -0.078498 -0.019866
v -0.040647 -0.078543 -0.018107
v -0.041422 -0.078584 -0.016313
v -0.042016 -0.078620 -0.014503
v -0.042805 -0.078677 -0.010872
v -0.043220 -0.078716 -0.007232
v -0.038261 -0.078448 -0.021523
v -0.034301 -0.078326 -0.023813
v -0.036469 -0.078391 -0.022917
v -0.032400 -0.064807 -0.023813
v -0.032564 -0.063963 -0.023697
v -0.032087 -0.063919 -0.023822
v -0.030912 -0.063821 -0.024027
v -0.041730 -0.067278 -0.010426
v -0.041641 -0.065234 -0.008845
v -0.041414 -0.065190 -0.010390
v -0.042166 -0.067286 -0.006627
v -0.042354 -0.072866 -0.010622
v -0.041574 -0.072846 -0.014283
v -0.040919 -0.067276 -0.014212
v -0.040992 -0.072833 -0.016107
v -0.040314 -0.067278 -0.016094
v -0.039927 -0.070021 -0.017898
v -0.039522 -0.067282 -0.017958
v -0.038920 -0.070016 -0.019696
v -0.038475 -0.067286 -0.019773
v -0.037580 -0.070017 -0.021395
v -0.037091 -0.067298 -0.021461
v -0.035809 -0.070034 -0.022842
v -0.035295 -0.067335 -0.022876
v -0.033644 -0.070070 -0.023789
v -0.033128 -0.067402 -0.023796
v -0.040328 -0.064996 -0.014958
v -0.039337 -0.064831 -0.017474
v -0.038289 -0.064666 -0.019338
v -0.037871 -0.064629 -0.019937
v -0.036153 -0.072785 -0.022843
v -0.037917 -0.072790 -0.021394
v -0.039245 -0.072804 -0.019698
v -0.040236 -0.072819 -0.017917
v -0.042140 -0.066419 -0.002832
v -0.042190 -0.066322 -0.003243
v -0.042040 -0.065742 -0.003146
v -0.042089 -0.065685 -0.003680
v -0.039107 -0.064756 -0.017922
v -0.038280 -0.064613 -0.019332
v 0.044275 -0.122383 -0.006830
v 0.043643 -0.071950 -0.000417
v 0.043070 -0.066081 -0.000048
v 0.042547 -0.063232 0.000151
v 0.042236 -0.061345 -0.001549
v 0.041827 -0.060460 0.000346
v 0.041445 -0.060663 0.002077
v 0.042125 -0.063343 0.001975
v -0.026606 -0.091221 0.031752
v -0.026833 -0.092430 0.031804
v -0.021847 -0.092288 0.032398
v 0.022324 -0.087052 0.031836
v 0.019284 -0.082804 0.031713
v 0.014842 -0.086977 0.032603
v 0.022442 -0.092265 0.032250
v 0.027748 -0.096444 0.031825
v 0.027036 -0.092450 0.031671
v 0.026390 -0.089064 0.031493
v 0.000124 -0.123391 0.034804
v 0.007300 -0.149924 0.034902
v 0.007977 -0.123457 0.034634
v 0.016503 -0.149391 0.034323
v 0.015868 -0.123665 0.034103
v 0.018143 -0.149241 0.034167
v -0.007726 -0.123471 0.034593
v -0.007909 -0.149672 0.034782
v -0.003820 -0.149879 0.034945
v 0.000234 -0.149982 0.035011
v -0.029317 -0.108115 0.032064
v -0.030416 -0.117606 0.032026
v -0.027486 -0.124266 0.032548
v -0.031254 -0.127684 0.031941
v -0.025945 -0.147531 0.032893
v -0.031761 -0.137917 0.031864
v -0.031921 -0.146369 0.031833
v -0.028077 -0.099629 0.031999
v -0.029025 -0.105963 0.032059
v -0.026388 -0.105808 0.032417
v -0.025343 -0.084921 0.031342
v -0.021687 -0.087062 0.032010
v 0.015255 -0.105233 0.033672
v 0.023005 -0.105557 0.032859
v 0.023817 -0.124004 0.033232
v 0.030514 -0.116605 0.032124
v 0.031396 -0.126830 0.032146
v 0.025571 -0.085052 0.031206
v 0.014877 -0.092101 0.033025
v 0.007640 -0.105034 0.034190
v 0.007447 -0.091997 0.033523
v 0.024620 -0.000500 0.004341
v 0.024128 -0.000000 0.004254
v 0.023022 -0.000000 0.008379
v 0.023492 -0.000500 0.008551
v 0.021651 -0.000500 0.012500
v 0.021218 -0.000000 0.012250
v 0.018768 -0.000000 0.015748
v 0.019151 -0.000500 0.016070
v 0.015748 -0.000000 0.018768
v 0.016070 -0.000500 0.019151
v 0.012500 -0.000500 0.021651
v 0.012250 -0.000000 0.021218
v 0.008379 -0.000000 0.023022
v 0.008551 -0.000500 0.023492
v -0.004341 -0.000500 0.024620
v -0.004254 -0.000000 0.024128
v -0.008379 -0.000000 0.023022
v -0.008551 -0.000500 0.023492
v -0.012250 -0.000000 0.021218
v -0.012500 -0.000500 0.021651
v -0.016070 -0.000500 0.019151
v -0.015748 -0.000000 0.018768
v -0.018768 -0.000000 0.015748
v -0.019151 -0.000500 0.016070
v -0.021218 -0.000000 0.012250
v -0.021651 -0.000500 0.012500
v -0.023492 -0.000500 0.008551
v -0.023022 -0.000000 0.008379
v -0.024128 -0.000000 0.004254
v -0.024620 -0.000500 0.004341
v -0.025000 -0.000500 0.000000
v -0.024500 -0.000000 0.000000
v -0.024128 -0.000000 -0.004254
v -0.024620 -0.000500 -0.004341
v -0.023492 -0.000500 -0.008551
v -0.023022 -0.000000 -0.008379
v -0.021218 -0.000000 -0.012250
v -0.021651 -0.000500 -0.012500
v -0.016070 -0.000500 -0.019151
v -0.015748 -0.000000 -0.018768
v -0.012250 -0.000000 -0.021218
v -0.012500 -0.000500 -0.021651
v -0.008379 -0.000000 -0.023022
v -0.008551 -0.000500 -0.023492
v -0.004341 -0.000500 -0.024620
v -0.004254 -0.000000 -0.024128
v -0.000000 -0.000000 -0.024500
v 0.004341 -0.000500 -0.024620
v 0.004254 -0.000000 -0.024128
v 0.008379 -0.000000 -0.023022
v 0.008551 -0.000500 -0.023492
v 0.012500 -0.000500 -0.021651
v 0.012250 -0.000000 -0.021218
v 0.015748 -0.000000 -0.018768
v 0.016070 -0.000500 -0.019151
v 0.021651 -0.000500 -0.012500
v 0.021218 -0.000000 -0.012250
v 0.023022 -0.000000 -0.008379
v 0.023492 -0.000500 -0.008551
v 0.024620 -0.000500 -0.004341
v 0.024128 -0.000000 -0.004254
v 0.024500 -0.000000 -0.000000
v 0.025000 -0.000500 -0.000000
v 0.015750 -0.160996 -0.000390
v 0.015750 -0.160446 0.001467
v 0.005150 -0.160446 0.001467
v 0.005150 -0.160996 -0.000390
v 0.041547 -0.141279 0.025497
v 0.044660 -0.140376 -0.004028
v 0.044627 -0.141126 -0.004864
v 0.044596 -0.128792 -0.004029
v -0.000000 -0.000500 -0.025000
v 0.032127 -0.147284 0.032181
v 0.032124 -0.147286 0.032183
v 0.037684 -0.080006 0.026249
v 0.038064 -0.081505 0.026173
v 0.042231 -0.147880 0.000362
v 0.041375 -0.131299 0.025441
v -0.016308 -0.153225 -0.008427
v -0.006003 -0.159138 -0.003781
v -0.013810 -0.158117 -0.004310
v 0.044159 -0.101705 -0.005601
v 0.044217 -0.101853 -0.004922
v 0.044258 -0.102322 -0.004336
v 0.044288 -0.103246 -0.004029
v 0.040938 -0.114245 0.025440
v 0.031932 -0.137062 0.032156
v 0.029060 -0.147820 0.032719
v 0.040856 -0.111905 0.025452
v 0.040199 -0.098540 0.025606
v 0.040150 -0.097821 0.025619
v 0.039779 -0.093113 0.025724
v 0.037450 -0.159891 0.001467
v 0.024554 -0.148497 0.033404
v -0.043294 -0.077719 -0.003898
v -0.043690 -0.084460 -0.004015
v -0.039978 -0.104635 0.025516
v -0.039661 -0.099663 0.025586
v 0.029124 -0.160732 -0.000390
v 0.029105 -0.160182 0.001467
v 0.026857 -0.160261 0.001467
v 0.026876 -0.160811 -0.000390
v 0.042436 -0.147790 -0.001577
v 0.043213 -0.071821 0.001660
v 0.039363 -0.089117 0.025840
v 0.038354 -0.082788 0.026105
v -0.016253 -0.152173 -0.008999
v -0.037489 -0.149431 -0.008427
v -0.037379 -0.148384 -0.008999
v 0.035164 -0.158902 -0.003781
v 0.035207 -0.160133 -0.002287
v 0.026862 -0.160425 -0.002287
v 0.026819 -0.159194 -0.003781
v 0.037456 -0.160055 -0.002287
v 0.037469 -0.160441 -0.000390
v -0.037280 -0.064445 -0.020635
v 0.042482 -0.147771 -0.003000
v 0.042626 -0.066102 0.001867
v -0.038178 -0.155993 -0.002287
v -0.038050 -0.154768 -0.003781
v 0.029281 -0.106359 0.032041
v -0.014887 -0.149084 0.034280
v -0.015602 -0.123693 0.034022
v -0.038219 -0.156377 -0.000390
v -0.033987 -0.072788 -0.023791
v 0.015750 -0.160610 -0.002287
v 0.005150 -0.160610 -0.002287
v -0.006068 -0.160369 -0.002287
v -0.006088 -0.160754 -0.000390
v 0.007442 -0.086926 0.033086
v 0.000121 -0.086908 0.033265
v 0.000120 -0.091964 0.033709
v 0.037413 -0.158824 -0.003781
v -0.037097 -0.064490 -0.020861
v -0.019151 -0.000500 -0.016070
v -0.036412 -0.064654 -0.021596
v 0.033325 -0.055741 -0.026858
v 0.026632 -0.153831 -0.008427
v 0.029380 -0.153735 -0.008427
v 0.038324 -0.059566 -0.017711
v 0.038848 -0.059512 -0.016670
v 0.042495 -0.066262 -0.009885
v -0.038890 -0.090958 0.025783
v 0.036974 -0.077675 0.026376
v 0.015750 -0.159378 -0.003781
v 0.015750 -0.154012 -0.008427
v -0.008306 -0.160087 0.001467
v -0.006059 -0.160205 0.001467
v 0.005150 -0.159378 -0.003781
v -0.041664 -0.064988 -0.007949
v -0.041994 -0.065285 -0.004652
v 0.018768 -0.000000 -0.015748
v 0.019151 -0.000500 -0.016070
v -0.014911 -0.105261 0.033685
v -0.007373 -0.105048 0.034193
v -0.008335 -0.160637 -0.000390
v 0.004341 -0.000500 0.024620
v 0.037226 -0.153461 -0.008427
v -0.023516 -0.124046 0.033117
v -0.042708 -0.087066 -0.013380
v 0.039305 -0.059057 -0.015383
v 0.040535 -0.060041 -0.012484
v 0.040534 -0.060619 -0.012835
v 0.042203 -0.064869 -0.010093
v 0.037097 -0.078038 0.026354
v 0.036273 -0.075857 0.026498
v 0.036050 -0.075360 0.026538
v 0.035402 -0.074108 0.026657
v 0.005150 -0.152959 -0.008999
v 0.005150 -0.154012 -0.008427
v -0.007150 -0.086929 0.033129
v -0.007163 -0.092005 0.033558
v 0.000121 -0.104972 0.034374
v -0.040371 -0.064982 -0.014814
v -0.041028 -0.065119 -0.012381
v 0.041966 -0.061501 -0.006818
v 0.037189 -0.152408 -0.008999
v 0.042003 -0.063321 -0.009873
v 0.041254 -0.061949 -0.011392
v 0.040904 -0.061220 -0.012054
v 0.041525 -0.061935 -0.010556
v 0.000000 -0.000000 0.024500
v 0.000000 -0.000500 0.025000
v 0.004254 -0.000000 0.024128
v 0.033414 -0.053860 -0.025834
v -0.040004 -0.065876 0.006346
v -0.039168 -0.061071 0.005870
v 0.041015 -0.060819 -0.011476
v 0.035006 -0.073461 0.026731
v 0.033855 -0.071974 0.026945
v -0.032658 -0.085397 -0.023950
v 0.000000 -0.051919 0.029938
v -0.018375 -0.082806 0.031891
v -0.014408 -0.086984 0.032700
v -0.024022 -0.147856 0.033186
v -0.038161 -0.155830 0.001467
v -0.041218 -0.140796 0.025494
v 0.036854 -0.142190 -0.011927
v 0.038958 -0.141764 -0.011748
v 0.015750 -0.152959 -0.008999
v -0.022538 -0.105598 0.032899
v -0.041779 -0.138033 -0.010338
v -0.041947 -0.138396 -0.010135
v -0.014469 -0.092116 0.033105
v 0.026595 -0.152778 -0.008999
v 0.034441 -0.152504 -0.008999
v 0.016476 -0.142728 -0.012258
v 0.030157 -0.142412 -0.012187
v 0.035903 -0.141858 -0.012065
v -0.018768 -0.000000 -0.015748
v -0.043149 -0.087011 -0.011360
v 0.006298 -0.142800 -0.012251
v -0.033206 -0.083740 -0.024032
v 0.032581 -0.070843 0.027160
v -0.035287 -0.064129 -0.022392
v -0.034258 -0.064135 -0.023032
v -0.043237 -0.139233 0.007284
v -0.040985 -0.130504 0.025438
v -0.044156 -0.097536 -0.004032
v -0.044224 -0.100477 -0.004039
v -0.044530 -0.121507 -0.004048
v -0.044632 -0.136856 -0.004067
v -0.044628 -0.137213 -0.004176
v -0.044566 -0.137696 -0.004014
v -0.033867 -0.072877 0.026807
v -0.034541 -0.073882 0.026682
v -0.035070 -0.074834 0.026585
v -0.035481 -0.075697 0.026511
v -0.035908 -0.076723 0.026436
v -0.036183 -0.077469 0.026388
v -0.036882 -0.079704 0.026264
v -0.032845 -0.071699 0.026993
v -0.037570 -0.082516 0.026120
v -0.000493 -0.142769 -0.012246
v -0.007284 -0.142672 -0.012250
v -0.014074 -0.142511 -0.012254
v -0.016620 -0.142435 -0.012254
v -0.017038 -0.142389 -0.012254
v -0.043657 -0.086903 -0.007278
v -0.040428 -0.113772 0.025442
v -0.040612 -0.118449 0.025426
v -0.043996 -0.091983 -0.004021
v -0.044080 -0.094708 -0.004025
v -0.044575 -0.137372 -0.004894
v -0.037628 -0.082786 0.026106
v -0.038188 -0.085761 0.025964
v -0.038275 -0.086300 0.025942
v -0.035831 -0.064320 -0.022028
v -0.006149 -0.040696 -0.027239
v -0.044230 -0.122383 -0.006419
v -0.040621 -0.071133 0.006920
v -0.043798 -0.086810 -0.004016
v -0.043908 -0.089510 -0.004018
v -0.043903 -0.094817 -0.006687
v -0.008752 -0.041487 -0.026784
v -0.041349 -0.065163 -0.010757
v -0.034051 -0.063945 -0.023094
v -0.034571 -0.064710 -0.022948
v -0.042019 -0.065354 -0.004302
vn -0.0250 -0.4769 -0.8786
vn -0.0404 -0.7704 -0.6363
vn -0.0502 -0.9575 0.2842
vn 0.7746 -0.0000 -0.6325
vn 0.7046 -0.0093 -0.7096
vn 0.6073 -0.0000 -0.7944
vn 0.1419 0.1406 -0.9798
vn 0.4164 0.0180 -0.9090
vn 0.2786 0.1415 -0.9499
vn 0.7741 0.0359 -0.6321
vn 0.8159 0.2835 -0.5039
vn 0.6418 0.2139 -0.7364
vn 0.5811 0.1394 -0.8018
vn 0.6121 0.0467 -0.7894
vn 0.6072 0.0166 -0.7944
vn 0.9694 0.2037 -0.1367
vn 0.9781 0.1684 -0.1224
vn 0.9833 0.1534 -0.0983
vn 0.9861 0.1231 -0.1119
vn 0.9895 0.1409 -0.0317
vn 0.9845 0.1646 -0.0601
vn 0.9246 0.1911 -0.3294
vn 0.4165 -0.0000 -0.9091
vn 0.3933 -0.0044 -0.9194
vn -0.0429 -0.0000 -0.9991
vn 0.0732 -0.0120 -0.9972
vn 0.1434 -0.0000 -0.9897
vn 0.2815 -0.0000 -0.9596
vn -0.0941 0.0230 -0.9953
vn 0.9942 0.0160 -0.1059
vn 0.9985 0.0449 -0.0323
vn 0.9224 0.0922 -0.3750
vn 0.9657 0.0724 -0.2493
vn 0.9393 0.0316 -0.3417
vn -0.2595 -0.0697 -0.9632
vn -0.3813 -0.0685 -0.9219
vn -0.4004 -0.0923 -0.9117
vn -0.5039 -0.0504 -0.8623
vn -0.7402 -0.0246 -0.6720
vn -0.5856 -0.0517 -0.8090
vn -0.9418 0.0492 -0.3324
vn -0.9303 0.0043 -0.3669
vn -0.8927 0.0305 -0.4497
vn -0.8756 -0.0151 -0.4828
vn -0.9889 0.0560 -0.1378
vn -0.9962 0.0180 -0.0853
vn -0.9909 0.0199 -0.1330
vn -0.9910 -0.1306 0.0291
vn -0.9911 -0.1300 0.0273
vn -0.9745 -0.1809 -0.1327
vn -0.9743 -0.1904 -0.1206
vn -0.9846 -0.1745 -0.0066
vn 0.9909 -0.1048 0.0846
vn 0.9847 -0.1542 0.0818
vn 0.9781 -0.1876 -0.0897
vn 0.9780 -0.1912 -0.0840
vn 0.9664 -0.1881 -0.1754
vn 0.9467 -0.2599 -0.1902
vn 0.7538 -0.1793 -0.6321
vn 0.8277 -0.1828 -0.5306
vn 0.8326 -0.3577 -0.4229
vn 0.9058 -0.1765 -0.3852
vn 0.9422 -0.1815 -0.2816
vn 0.5710 -0.1745 -0.8022
vn 0.4485 -0.1944 -0.8724
vn 0.3035 -0.2208 -0.9269
vn -0.0869 -0.2506 -0.9642
vn -0.1729 -0.2226 -0.9595
vn -0.2876 -0.2373 -0.9279
vn -0.3532 -0.1826 -0.9176
vn -0.7583 -0.1897 -0.6238
vn -0.7951 -0.0905 -0.5996
vn -0.8549 -0.2979 -0.4248
vn -0.8948 -0.1839 -0.4068
vn -0.9457 -0.1782 -0.2718
vn -0.9808 0.0963 0.1694
vn -0.9951 0.0908 -0.0379
vn -0.8639 0.0572 -0.5003
vn -0.8923 0.0476 -0.4488
vn -0.9167 0.0607 -0.3948
vn -0.9417 0.0522 -0.3323
vn -0.9489 0.0595 -0.3099
vn -0.9719 0.0575 -0.2284
vn -0.9753 0.0660 -0.2109
vn -0.9890 0.0534 -0.1379
vn -0.9916 0.0640 -0.1125
vn -0.8136 0.0385 -0.5802
vn -0.6816 0.0304 -0.7311
vn -0.2644 0.0055 -0.9644
vn -0.3823 0.0192 -0.9238
vn -0.3865 0.0178 -0.9221
vn -0.5075 0.0181 -0.8615
vn -0.2594 0.0819 -0.9623
vn -0.1753 0.0520 -0.9831
vn -0.9787 0.1504 -0.1395
vn -0.9874 0.1126 -0.1108
vn -0.9870 0.1141 -0.1129
vn -0.9716 0.1157 -0.2063
vn -0.9711 0.1169 -0.2080
vn -0.9466 0.1152 -0.3013
vn -0.9455 0.1161 -0.3041
vn -0.9220 0.1134 -0.3703
vn -0.9129 0.1264 -0.3881
vn -0.8667 0.1174 -0.4847
vn -0.8591 0.1263 -0.4960
vn -0.7802 0.1100 -0.6158
vn -0.7670 0.1227 -0.6298
vn -0.6293 0.0946 -0.7714
vn -0.6140 0.1071 -0.7820
vn -0.3989 0.0645 -0.9147
vn -0.3879 0.0725 -0.9189
vn -0.9208 0.1691 -0.3516
vn -0.9106 0.1450 -0.3871
vn -0.8571 0.1430 -0.4949
vn -0.8151 0.1507 -0.5594
vn -0.6303 0.0792 -0.7723
vn -0.6330 0.0767 -0.7703
vn -0.7814 0.0949 -0.6167
vn -0.7844 0.0918 -0.6134
vn -0.8683 0.1014 -0.4856
vn -0.8699 0.0994 -0.4832
vn -0.9181 0.1041 -0.3825
vn -0.9744 0.1431 0.1736
vn -0.9761 0.1533 0.1542
vn -0.9610 0.2197 0.1679
vn -0.9665 0.2303 0.1134
vn -0.8547 0.1926 -0.4821
vn 0.9850 0.0043 -0.1724
vn 0.9959 0.0363 0.0826
vn 0.9946 0.0659 0.0804
vn 0.9891 0.0892 0.1173
vn 0.9893 0.1321 0.0613
vn 0.9805 0.1734 0.0922
vn 0.9747 0.2151 0.0604
vn 0.9651 0.2441 0.0943
vn 0.9445 0.2289 0.2355
vn 0.9447 0.2310 0.2327
vn -0.1199 0.0653 0.9906
vn 0.1025 0.1020 0.9895
vn 0.1272 0.0609 0.9900
vn 0.1277 0.0763 0.9889
vn 0.0217 0.0095 0.9997
vn 0.0623 0.0085 0.9980
vn 0.0675 0.0102 0.9977
vn 0.0937 0.0108 0.9955
vn -0.0393 0.0075 0.9992
vn -0.0269 0.0093 0.9996
vn -0.0162 0.0077 0.9998
vn 0.0155 0.0079 0.9998
vn -0.1464 0.0131 0.9891
vn -0.1636 0.0053 0.9865
vn -0.1624 0.0039 0.9867
vn -0.1723 0.0011 0.9850
vn -0.1748 -0.0004 0.9846
vn -0.1360 0.0297 0.9903
vn -0.1277 0.0898 0.9877
vn -0.1172 0.0772 0.9901
vn -0.1355 0.0205 0.9906
vn 0.1054 0.0267 0.9941
vn 0.1099 0.0249 0.9936
vn 0.1472 0.0148 0.9890
vn 0.1235 0.0814 0.9890
vn 0.1313 0.0975 0.9865
vn 0.1063 0.0500 0.9931
vn 0.1029 0.0519 0.9933
vn 0.0691 0.0510 0.9963
vn 0.0675 0.0520 0.9964
vn 0.6843 0.7058 0.1834
vn 0.5803 0.7058 0.4064
vn 0.5010 0.7058 0.5010
vn 0.2994 0.7058 0.6421
vn -0.1834 0.7058 0.6843
vn -0.2994 0.7058 0.6421
vn -0.5010 0.7058 0.5010
vn -0.5803 0.7058 0.4064
vn -0.6843 0.7058 0.1834
vn -0.7058 0.7058 -0.0617
vn -0.6421 0.7058 -0.2994
vn -0.4064 0.7058 -0.5803
vn -0.2994 0.7058 -0.6421
vn -0.0617 0.7058 -0.7058
vn 0.1834 0.7058 -0.6843
vn 0.4064 0.7058 -0.5803
vn 0.6421 0.7058 -0.2994
vn 0.7058 0.7058 -0.0617
vn -0.0000 -0.9588 0.2842
vn 0.9942 -0.0277 0.1040
vn 0.9989 0.0084 -0.0472
vn 0.9988 0.0087 -0.0476
vn 0.9990 0.0055 -0.0448
vn 0.9945 0.0054 0.1050
vn 0.0864 0.1341 -0.9872
vn -0.0427 0.0724 -0.9965
vn 0.2334 0.5213 0.8208
vn 0.9228 0.2177 0.3178
vn 0.9208 0.2216 0.3209
vn 0.9510 -0.2919 0.1025
vn 0.9782 -0.1804 0.1025
vn 0.9894 -0.1028 0.1028
vn 0.9942 0.0099 0.1069
vn 0.9916 0.0179 0.1280
vn -0.0343 -0.6536 -0.7560
vn 0.9977 -0.0004 -0.0671
vn 0.9969 0.0077 -0.0783
vn 0.9956 0.0093 -0.0931
vn 0.9959 0.0109 -0.0893
vn 0.9964 0.0112 -0.0841
vn 0.9981 0.0121 -0.0597
vn 0.9981 0.0121 -0.0604
vn 0.9989 0.0121 0.0445
vn 0.9956 0.0108 0.0934
vn 0.5735 0.0147 0.8191
vn 0.9891 0.0253 0.1449
vn 0.1717 0.0057 0.9851
vn 0.5718 0.0157 0.8202
vn 0.5669 0.0184 0.8236
vn 0.5556 0.0221 0.8312
vn 0.5474 0.0247 0.8365
vn 0.5326 0.0287 0.8459
vn 0.1588 0.0093 0.9873
vn 0.0010 0.7042 0.7100
vn 0.2249 -0.8871 0.4030
vn 0.1952 -0.8961 0.3985
vn 0.1516 -0.9100 0.3859
vn 0.1192 -0.9212 0.3704
vn -0.9853 0.0551 0.1614
vn -0.9842 0.0605 0.1663
vn 0.0335 -0.9582 0.2842
vn 0.3877 -0.1691 -0.9062
vn 0.4395 -0.1572 -0.8844
vn 0.9485 -0.3050 0.0860
vn 0.7027 -0.0743 -0.7076
vn 0.6761 -0.0835 -0.7321
vn 0.9769 0.0830 0.1969
vn 0.9779 0.0674 0.1981
vn 0.9791 0.0625 0.1935
vn 0.9830 0.0463 0.1774
vn 0.9868 0.0337 0.1584
vn 0.9955 0.0092 -0.0946
vn 0.9745 0.0060 -0.2245
vn 0.9939 0.0121 -0.1094
vn 0.9939 0.0120 -0.1097
vn 0.9964 0.0128 -0.0838
vn 0.9982 0.0141 -0.0581
vn 0.9980 0.0138 -0.0621
vn 0.9985 0.0143 -0.0536
vn 0.9993 0.0157 -0.0330
vn 0.9852 -0.1714 -0.0007
vn 0.9878 -0.1550 -0.0169
vn 0.9764 0.0726 0.2036
vn 0.5284 0.0303 0.8485
vn 0.9720 0.0890 0.2174
vn 0.9702 0.0945 0.2230
vn 0.4910 0.0418 0.8702
vn 0.4835 0.0435 0.8743
vn -0.0847 -0.4729 -0.8770
vn -0.0845 -0.4710 -0.8781
vn -0.9113 -0.0320 -0.4106
vn -0.9300 -0.0224 -0.3668
vn 0.0159 -0.9526 0.3038
vn 0.0331 -0.9492 0.3129
vn 0.0269 -0.7710 -0.6363
vn 0.0342 -0.9793 -0.1994
vn -0.7730 0.1286 -0.6212
vn -0.7657 0.1351 -0.6289
vn 0.9265 -0.3703 -0.0677
vn -0.9810 -0.1817 -0.0683
vn -0.9830 -0.1725 -0.0625
vn 0.9693 0.0975 0.2256
vn -0.1352 -0.7619 -0.6334
vn -0.1352 -0.7603 -0.6353
vn 0.9192 -0.3817 -0.0970
vn 0.9009 -0.3915 -0.1871
vn 0.9599 0.0041 -0.2802
vn 0.9679 0.0052 -0.2511
vn -0.3935 -0.1734 -0.9028
vn -0.3532 -0.1811 -0.9178
vn 0.9538 0.1409 0.2652
vn 0.9262 -0.3577 0.1191
vn 0.6732 -0.6357 0.3776
vn 0.4495 0.0545 0.8916
vn 0.1367 0.0245 0.9903
vn 0.4328 0.0594 0.8995
vn 0.1324 0.0259 0.9909
vn -0.0711 0.0077 0.9974
vn -0.0725 0.0081 0.9973
vn -0.1713 -0.9651 -0.1979
vn -0.1712 -0.9650 -0.1989
vn -0.3994 0.0504 -0.9154
vn -0.4004 0.0514 -0.9149
vn -0.0000 -0.9799 -0.1994
vn -0.0211 -0.9797 -0.1993
vn 0.1025 0.0824 0.9913
vn 0.1034 0.0811 0.9913
vn 0.0246 0.0875 0.9959
vn 0.0257 0.0859 0.9960
vn 0.8281 -0.4207 -0.3706
vn -0.6858 0.2437 -0.6858
vn -0.6825 0.2427 -0.6894
vn 0.8072 -0.4223 -0.4125
vn 0.9224 0.0003 -0.3862
vn 0.8641 -0.0000 -0.5034
vn 0.8773 0.0289 -0.4791
vn 0.8776 0.0295 -0.4785
vn 0.0228 -0.6541 -0.7560
vn 0.8851 0.0506 -0.4626
vn 0.8905 0.0599 -0.4511
vn 0.9075 0.0877 -0.4108
vn 0.9202 0.1149 -0.3741
vn 0.9182 0.1105 -0.3803
vn 0.9403 0.1293 -0.3149
vn -0.9813 0.0750 0.1775
vn -0.9793 0.0825 0.1848
vn 0.4263 0.0624 0.9024
vn 0.1344 0.0423 0.9900
vn 0.4015 0.0726 0.9130
vn 0.3827 0.0792 0.9205
vn 0.1191 0.0505 0.9916
vn 0.0109 -0.6545 -0.7560
vn -0.9157 0.0788 -0.3940
vn -0.9199 0.0826 -0.3835
vn 0.9429 -0.3303 0.0420
vn 0.9420 -0.3345 0.0261
vn -0.0500 -0.9534 0.2974
vn -0.9475 0.0820 -0.3090
vn -0.9495 0.0842 -0.3024
vn -0.0000 -0.7715 -0.6363
vn 0.0160 -0.9586 0.2842
vn -0.9634 0.2580 -0.0732
vn -0.9622 0.2590 -0.0842
vn 0.5010 0.7058 -0.5010
vn -0.0729 0.0210 0.9971
vn -0.0678 0.0230 0.9974
vn -0.0502 -0.9574 0.2842
vn 0.2565 0.1331 0.9573
vn 0.1208 0.1143 0.9861
vn 0.7274 -0.4346 -0.5310
vn 0.9454 0.1443 -0.2923
vn -0.1427 0.0135 0.9897
vn -0.1329 0.0171 0.9910
vn -0.7857 0.0706 -0.6146
vn -0.7715 0.0613 -0.6333
vn -0.9629 0.0107 -0.2696
vn -0.9729 0.0321 -0.2291
vn -0.0206 -0.9553 0.2950
vn -0.0293 -0.9546 0.2964
vn 0.9132 0.2368 0.3316
vn 0.6364 -0.3502 -0.6872
vn 0.6243 -0.3928 -0.6752
vn 0.7670 -0.0490 -0.6397
vn 0.9593 0.2697 0.0839
vn 0.9595 0.2697 0.0812
vn -0.7416 0.0402 -0.6696
vn -0.7718 0.0501 -0.6339
vn 0.8280 0.1469 -0.5411
vn 0.8905 0.1138 -0.4406
vn 0.8886 0.0822 -0.4513
vn 0.9146 0.1047 -0.3907
vn 0.8937 0.2157 -0.3934
vn 0.9106 0.1619 -0.3804
vn 0.9166 0.1963 -0.3483
vn 0.9314 0.1706 -0.3216
vn 0.9283 0.1921 -0.3183
vn 0.9293 0.1456 -0.3393
vn 0.9282 0.1430 -0.3434
vn 0.9387 0.1502 -0.3104
vn 0.8893 0.2447 0.3864
vn 0.1283 -0.0149 0.9916
vn 0.3764 0.0829 0.9228
vn 0.3639 0.0892 0.9271
vn 0.3531 0.0944 0.9308
vn 0.3454 0.0976 0.9334
vn 0.8362 0.2535 0.4863
vn 0.7917 0.2569 0.5543
vn 0.7660 0.2557 0.5898
vn -0.0102 -0.4775 -0.8786
vn -0.0102 -0.4776 -0.8785
vn 0.0129 -0.7714 -0.6362
vn 0.0163 -0.9798 -0.1994
vn -0.0206 -0.9586 0.2841
vn -0.0166 -0.7714 -0.6362
vn -0.0166 -0.7714 -0.6361
vn -0.1020 -0.9453 0.3099
vn -0.9903 0.0817 -0.1122
vn -0.9904 0.0823 -0.1113
vn 0.1486 0.0114 0.9888
vn 0.1458 0.0108 0.9893
vn -0.0513 -0.9786 -0.1994
vn -0.0212 0.0843 0.9962
vn -0.0190 0.0875 0.9960
vn -0.0000 -0.6545 -0.7560
vn 0.0248 0.0510 0.9984
vn 0.0256 0.0514 0.9983
vn -0.7901 0.2640 -0.5532
vn -0.7956 0.2644 -0.5451
vn -0.9341 0.2667 -0.2375
vn -0.9306 0.2678 -0.2494
vn 0.9724 0.2263 -0.0565
vn 0.9700 0.2382 -0.0483
vn -0.9020 0.2690 -0.3376
vn -0.8723 0.2713 -0.4068
vn 0.0167 -0.4773 -0.8786
vn 0.5646 -0.3790 -0.7332
vn 0.9374 0.1655 -0.3065
vn 0.9380 0.1647 -0.3051
vn 0.9360 0.1689 -0.3089
vn 0.9364 0.1720 -0.3059
vn 0.9553 0.2590 -0.1427
vn 0.9357 0.1654 -0.3118
vn 0.9503 0.2761 -0.1441
vn 0.0617 0.7058 0.7058
vn 0.2994 0.7058 -0.6421
vn 0.8780 0.2481 0.4094
vn 0.6364 -0.3360 -0.6943
vn 0.4312 -0.3335 -0.8383
vn 0.5761 -0.1188 -0.8087
vn -0.0000 -0.9539 0.3002
vn 0.0125 -0.9540 0.2994
vn 0.8668 0.2921 -0.4042
vn 0.8890 0.2821 -0.3607
vn 0.7785 0.3110 -0.5451
vn 0.7808 0.3106 -0.5422
vn 0.8243 0.3018 -0.4791
vn 0.8422 0.2980 -0.4493
vn 0.8918 0.2415 -0.3825
vn -0.7765 -0.0810 -0.6249
vn -0.7963 -0.0754 -0.6002
vn 0.9020 0.2817 -0.3270
vn 0.9122 0.2816 -0.2975
vn -0.9590 0.1879 0.2121
vn -0.9557 0.2276 0.1865
vn 0.9341 0.1673 -0.3155
vn 0.9360 0.1841 -0.3000
vn 0.9353 0.1828 -0.3030
vn 0.9325 0.2804 -0.2275
vn 0.9339 0.1609 -0.3192
vn 0.9353 0.1647 -0.3130
vn 0.3399 0.1006 0.9351
vn 0.3200 0.1105 0.9410
vn 0.6846 0.2503 0.6846
vn 0.6769 0.2490 0.6926
vn 0.5944 0.2346 0.7692
vn 0.5585 0.2280 0.7976
vn 0.5077 0.2147 0.8344
vn 0.3188 0.1113 0.9413
vn 0.2881 0.1268 0.9492
vn -0.1570 -0.2076 -0.9655
vn -0.1053 -0.2130 -0.9714
vn 0.1060 0.1045 0.9889
vn 0.1010 0.1036 0.9895
vn -0.6142 0.0389 -0.7882
vn -0.5893 0.0292 -0.8074
vn 0.0285 0.0956 0.9950
vn 0.0246 0.0947 0.9952
vn -0.0190 0.0946 0.9953
vn -0.0238 0.0956 0.9951
vn 0.0655 0.0985 0.9930
vn 0.0867 0.1020 0.9910
vn -0.0932 0.1034 0.9903
vn -0.0951 0.1016 0.9903
vn -0.2056 -0.9235 0.3238
vn -0.2366 -0.9128 0.3330
vn -0.6443 -0.6825 0.3451
vn -0.8915 -0.4262 0.1533
vn -0.0140 -0.6545 -0.7560
vn -0.0141 -0.6546 -0.7559
vn 0.0712 -0.2305 -0.9705
vn 0.1277 -0.2235 -0.9663
vn -0.0246 0.0490 0.9985
vn -0.0211 0.0510 0.9985
vn -0.0000 -0.4775 -0.8786
vn -0.9741 0.0826 -0.2104
vn -0.9746 0.0846 -0.2071
vn -0.1195 0.0476 0.9917
vn -0.1146 0.0433 0.9925
vn -0.0985 0.1042 0.9897
vn -0.4600 -0.1818 -0.8691
vn -0.4684 -0.2556 -0.8457
vn -0.1260 0.0325 0.9915
vn -0.1253 0.0184 0.9919
vn 0.4085 0.2566 -0.8760
vn 0.4054 0.2555 -0.8777
vn -0.0628 0.0792 0.9949
vn -0.0593 0.0842 0.9947
vn 0.0167 -0.4772 -0.8786
vn 0.0104 -0.2989 -0.9542
vn 0.0118 -0.2963 -0.9550
vn 0.0467 -0.2735 -0.9607
vn 0.0436 -0.2739 -0.9608
vn 0.1358 -0.2688 -0.9536
vn 0.1714 -0.2729 -0.9466
vn 0.2980 -0.2981 -0.9068
vn 0.9424 0.2781 -0.1857
vn 0.1834 0.7058 0.6843
vn -0.0000 1.0000 -0.0000
vn 0.3573 -0.1769 -0.9171
vn 0.2914 -0.1926 -0.9370
vn 0.1940 -0.2124 -0.9577
vn -0.9770 0.0020 -0.2130
vn -0.9811 0.0040 -0.1935
vn 0.0016 -0.3036 -0.9528
vn -0.0000 -0.3049 -0.9524
vn -0.1648 -0.1027 -0.9810
vn -0.1647 -0.1029 -0.9810
vn 0.5482 0.2939 -0.7830
vn -0.5010 0.7058 -0.5010
vn 0.4064 0.7058 0.5803
vn 0.4149 0.1900 0.8898
vn 0.4088 0.1879 0.8931
vn -0.4064 0.7058 0.5803
vn 0.2786 0.1334 0.9511
vn 0.2913 0.1488 0.9450
vn 0.2657 0.1405 0.9538
vn -0.1834 0.7058 -0.6843
vn -0.0617 0.7058 0.7058
vn 0.0617 0.7058 -0.7058
vn -0.5608 0.2102 -0.8009
vn -0.5175 0.1950 -0.8332
vn -0.9468 -0.3121 0.0782
vn -0.9471 -0.3115 0.0766
vn -0.9471 -0.3147 0.0630
vn -0.9962 0.0755 -0.0445
vn -0.9957 0.0796 -0.0481
vn -0.9909 0.0231 0.1325
vn -0.9910 0.0225 0.1316
vn -0.9916 0.0196 0.1277
vn -0.9920 0.0177 0.1254
vn -0.9928 0.0126 0.1195
vn -0.9933 0.0065 0.1156
vn -0.9931 -0.0439 0.1089
vn -0.9903 -0.0937 0.1025
vn -0.9863 -0.1331 0.0979
vn -0.4007 0.0346 -0.9156
vn -0.3824 0.0253 -0.9237
vn -0.9291 -0.3524 -0.1119
vn -0.9033 -0.3652 -0.2252
vn -0.8352 -0.3877 -0.3900
vn -0.9324 -0.3498 -0.0906
vn -0.9419 -0.3350 -0.0247
vn -0.0271 0.0222 0.9994
vn -0.0244 0.0233 0.9994
vn -0.3219 0.1255 0.9384
vn -0.3446 0.1147 0.9317
vn -0.3583 0.1072 0.9274
vn -0.3611 0.1058 0.9265
vn -0.3732 0.0989 0.9225
vn -0.3851 0.0915 0.9183
vn -0.3832 0.0922 0.9191
vn -0.3944 0.0873 0.9148
vn -0.4128 0.0788 0.9074
vn -0.4246 0.0721 0.9025
vn -0.2911 0.1458 0.9455
vn -0.3184 0.1283 0.9392
vn -0.4481 0.0626 0.8918
vn -0.4737 0.0514 0.8792
vn -0.1144 0.0178 0.9933
vn -0.1034 0.0221 0.9944
vn 0.0051 -0.3038 -0.9527
vn 0.0011 -0.2358 -0.9718
vn 0.0105 -0.2369 -0.9715
vn 0.0432 -0.2348 -0.9711
vn 0.0596 -0.2324 -0.9708
vn -0.6406 -0.1268 -0.7573
vn -0.6487 -0.1713 -0.7415
vn -0.0944 -0.0078 -0.9955
vn -0.0867 -0.0000 -0.9962
vn -0.0018 -0.2351 -0.9720
vn -0.0029 -0.2348 -0.9720
vn -0.0049 -0.2339 -0.9722
vn -0.0070 -0.2328 -0.9725
vn -0.0253 -0.2228 -0.9745
vn -0.0440 -0.2124 -0.9762
vn -0.9973 0.0535 -0.0499
vn -0.9975 0.0593 -0.0397
vn 0.1044 0.1411 -0.9845
vn 0.1593 0.1630 -0.9737
vn 0.1744 0.1694 -0.9700
vn 0.2534 0.2040 -0.9456
vn -0.6421 0.7058 0.2994
vn -0.4152 0.1860 0.8905
vn -0.3603 0.1680 0.9176
vn 0.9268 0.2817 -0.2483
vn 0.9222 0.2815 -0.2651
vn -0.9864 -0.1323 0.0980
vn -0.9739 -0.2088 0.0884
vn -0.5173 0.0358 0.8550
vn -0.5398 0.0288 0.8413
vn -0.5520 0.0234 0.8335
vn -0.5558 0.0213 0.8311
vn -0.5573 0.0207 0.8300
vn -0.5602 0.0192 0.8281
vn -0.5617 0.0182 0.8271
vn -0.9895 0.0308 0.1414
vn -0.9896 0.0304 0.1409
vn -0.9904 0.0262 0.1359
vn -0.9979 0.0268 -0.0596
vn -0.9977 0.0258 -0.0622
vn -0.9975 0.0232 -0.0671
vn -0.9969 0.0202 -0.0757
vn -0.9962 0.0178 -0.0849
vn -0.9963 0.0127 -0.0854
vn -0.9923 0.0094 -0.1236
vn -0.9924 0.0094 -0.1228
vn -0.9973 0.0068 -0.0738
vn -0.9968 0.0147 -0.0787
vn -0.9977 0.0098 -0.0671
vn -0.9901 -0.0927 0.1055
vn -0.9887 -0.1222 0.0867
vn -0.1043 0.0428 0.9936
vn -0.0964 0.0471 0.9942
vn -0.8243 -0.3882 -0.4120
vn -0.7330 -0.4012 -0.5494
vn -0.0342 -0.6536 -0.7560
vn -0.9644 -0.1794 -0.1946
vn -0.9391 -0.2546 -0.2310
vn -0.4649 0.0540 0.8837
vn -0.4815 0.0491 0.8751
vn -0.4960 0.0440 0.8672
vn -0.5119 0.0383 0.8582
vn -0.1676 -0.9446 0.2822
vn -0.1676 -0.9442 0.2835
vn -0.4543 0.1960 0.8690
vn -0.5433 0.2188 0.8105
vn -0.5592 0.2228 0.7986
vn -0.6249 0.2342 0.7447
vn -0.6857 0.2441 0.6857
vn -0.7072 0.2456 0.6629
vn -0.4465 0.0634 0.8926
vn -0.7746 0.2493 0.5812
vn -0.7931 0.2500 0.5554
vn -0.8591 0.2434 0.4503
vn -0.8797 0.2405 0.4102
vn -0.9238 0.2254 0.3095
vn -0.9305 0.2125 0.2985
vn -0.9417 0.1913 0.2769
vn -0.9429 0.1884 0.2746
vn -0.0066 -0.3085 -0.9512
vn -0.0067 -0.3086 -0.9512
vn -0.0039 -0.3056 -0.9522
vn -0.0021 -0.3047 -0.9525
vn -0.1132 0.1143 0.9870
vn -0.2565 0.1331 0.9573
vn -0.0574 -0.2158 -0.9748
vn -0.0808 -0.2151 -0.9732
vn -0.6317 0.1035 -0.7683
vn -0.6132 0.1174 -0.7812
vn -0.1722 0.0050 -0.9851
vn -0.1398 0.0118 -0.9901
vn -0.1385 0.0119 -0.9903
vn -0.1722 0.0478 -0.9839
vn -0.1488 0.0709 -0.9863
vn -0.0600 -0.9518 0.3008
vn -0.1465 0.0194 -0.9890
vn -0.1542 0.0272 -0.9877
vn -0.1638 0.0378 -0.9858
vn -0.0666 0.0696 -0.9953
vn -0.0503 0.0689 -0.9964
vn -0.0093 -0.3105 -0.9505
vn -0.0166 -0.3175 -0.9481
vn -0.0358 -0.3180 -0.9474
vn -0.1662 -0.9363 0.3095
vn -0.1630 -0.9366 0.3103
vn -0.7058 0.7058 0.0617
vn 0.6421 0.7058 0.2994
vn -0.9967 0.0039 -0.0810
vn -0.9930 0.0059 -0.1177
vn -0.9908 0.0095 -0.1353
vn -0.9870 0.0077 -0.1605
vn -0.9891 0.0094 -0.1472
vn -0.9690 0.1205 0.2156
vn -0.9715 0.1134 0.2083
vn -0.9773 0.0918 0.1909
vn 0.0760 -0.9347 0.3471
vn -0.9835 0.0642 0.1690
vn -0.9866 0.0473 0.1563
vn -0.9869 0.0457 0.1547
vn -0.9879 0.0400 0.1496
vn -0.9882 0.0383 0.1483
vn -0.9888 0.0349 0.1450
vn -0.9982 0.0355 -0.0484
vn -0.9982 0.0345 -0.0499
vn -0.9981 0.0310 -0.0527
vn -0.9936 0.0315 -0.1087
vn -0.9916 0.0264 -0.1268
vn -0.9912 0.0188 -0.1313
vn -0.9911 0.0129 -0.1326
vn -0.9946 0.0158 -0.1022
vn -0.9909 0.0119 -0.1338
vn -0.9899 0.0099 -0.1416
vn -0.1182 0.0054 0.9930
vn -0.1139 0.0069 0.9935
vn -0.7094 -0.3901 -0.5870
vn -0.6145 -0.3572 -0.7034
vn -0.5721 -0.3462 -0.7435
vn 0.8086 0.1649 -0.5648
vn 0.8008 0.1597 -0.5772
vn -0.9622 -0.0065 -0.2722
vn -0.9597 -0.0076 -0.2809
vn 0.9967 0.0753 -0.0320
vn 0.9968 0.0701 -0.0373
vn -0.8747 -0.0459 -0.4825
vn -0.9664 0.1371 0.2174
vn -0.9655 0.1452 0.2161
vn -0.9518 0.1669 0.2573
vn -0.9608 0.1452 0.2361
vn -0.9636 0.1381 0.2289
vn 0.7058 0.7058 0.0617
vn -0.2575 0.1005 -0.9610
vn -0.2607 0.1020 -0.9600
vn 0.9313 -0.3633 0.0254
vn 0.9205 -0.3815 -0.0841
vn -0.0713 -0.2782 -0.9579
vn -0.0573 -0.3193 -0.9459
vn -0.1609 -0.2073 -0.9649
vn -0.1779 -0.2059 -0.9623
vn -0.2784 -0.1939 -0.9407
vn 0.9303 -0.3576 0.0816
vn 0.9265 -0.3582 0.1157
vn -0.0875 -0.2718 -0.9584
vn -0.1728 -0.2648 -0.9487
vn -0.1151 -0.6472 -0.7535
vn -0.1156 -0.6453 -0.7552
vn -0.0867 0.1027 0.9909
vn -0.0593 0.0983 0.9934
vn -0.1752 0.0510 -0.9832
vn -0.1677 0.0403 -0.9850
vn -0.1924 0.0709 -0.9787
vn -0.1928 0.0724 -0.9786
vn -0.6843 0.7058 -0.1834
vn -0.1939 0.0725 -0.9783
vn -0.9699 0.1272 -0.2078
vn -0.9713 0.1457 -0.1879
vn -0.0869 0.0713 -0.9937
vn -0.1149 0.0704 -0.9909
vn -0.2902 0.0748 -0.9540
vn -0.4618 -0.3059 -0.8326
vn -0.2859 -0.2714 -0.9190
vn -0.9886 0.0092 -0.1506
vn -0.9919 0.0239 -0.1246
vn -0.9739 0.0203 -0.2259
vn -0.9767 0.0230 -0.2135
vn -0.0999 -0.0140 -0.9949
vn -0.0840 -0.0768 -0.9935
vn 0.9329 0.1948 0.3028
vn 0.9470 0.1612 0.2779
vn -0.5622 0.0173 0.8268
vn -0.5602 0.0075 0.8283
vn -0.9979 0.0462 -0.0445
vn -0.9982 0.0406 -0.0443
vn -0.9964 0.0535 -0.0655
vn -0.9549 0.2340 0.1830
vn -0.9396 0.2320 0.2518
vn -0.4170 0.1620 -0.8943
vn -0.3706 0.1432 -0.9177
vn 0.6718 0.3122 -0.6718
vn 0.5981 0.3011 -0.7427
vn 0.9611 0.2422 -0.1327
vn 0.9640 0.2282 -0.1365
vn 0.8637 -0.0021 -0.5039
vn 0.8443 -0.0022 -0.5358
vn -0.6339 0.0561 -0.7714
vn -0.6142 0.0450 -0.7879
vn 0.1094 0.0122 0.9939
vn 0.1171 0.0105 0.9931
vn -0.9419 0.1448 -0.3029
vn -0.9450 0.1495 -0.2909
vn -0.4613 -0.1623 -0.8722
vn -0.1501 0.0047 0.9887
vn -0.1423 0.0059 0.9898
vn 0.9586 0.1651 0.2320
vn 0.9612 0.1606 0.2244
vn -0.7785 -0.0467 -0.6260
vn -0.8136 0.0163 -0.5812
vn -0.6703 -0.1352 -0.7297
vn -0.6219 -0.0260 -0.7826
vn -0.5807 0.1229 -0.8048
vn -0.5423 0.1267 -0.8306
vn -0.4033 0.0861 -0.9110
vn -0.3718 0.0874 -0.9242
vn -0.3874 0.0806 -0.9184
vn -0.4147 0.1612 -0.8956
vn -0.3728 0.1069 -0.9218
vn -0.5209 0.1605 -0.8384
vn -0.9908 0.1293 -0.0395
vn -0.9908 0.1277 -0.0436
vn -0.9909 0.1274 -0.0434
vn -0.9905 0.1300 -0.0457
vn -0.9832 0.1640 -0.0807
vn -0.9851 0.1300 -0.1127
vn -0.8633 0.0724 -0.4995
vn -0.8714 0.0786 -0.4842
vn 0.0080 -0.4775 -0.8786
vn 0.9905 0.0798 -0.1124
vn 0.9902 0.0748 -0.1182
vn 0.0679 0.0253 0.9974
vn 0.0686 0.0256 0.9973
vn -0.9668 0.2550 -0.0193
vn -0.9673 0.2522 0.0257
vn -0.0684 0.0463 0.9966
vn -0.0625 0.0496 0.9968
vn -0.6157 -0.1262 -0.7778
vn -0.6411 -0.1206 -0.7579
vn -0.7561 0.1353 -0.6403
vn -0.7076 0.1463 -0.6913
vn -0.6643 0.2377 -0.7086
vn -0.5940 0.2188 -0.7742
vn 0.0655 0.0858 0.9942
vn 0.0678 0.0824 0.9943
vn -0.9751 0.1503 -0.1628
vn 0.5731 0.0129 0.8194
vn 0.5736 0.0146 0.8190
vn -0.9766 0.1997 -0.0797
vn -0.9610 0.2594 -0.0957
vn -0.9562 0.2607 -0.1330
vn 0.0218 0.0233 0.9995
vn 0.0246 0.0245 0.9994
vn -0.0969 0.0768 0.9923
vn -0.0950 0.0794 0.9923
vn -0.5803 0.7058 -0.4064
vn 0.9582 0.2736 -0.0838
vn 0.9597 0.2752 -0.0573
vn -0.9478 0.2631 -0.1801
vn -0.9534 0.2616 -0.1506
vn 0.6843 0.7058 -0.1834
vn 0.9348 0.2520 0.2505
vn 0.9379 0.2534 0.2369
vn -0.7693 0.2598 -0.5836
vn -0.7265 0.2516 -0.6394
vn -0.9547 0.1629 -0.2489
vn -0.9927 0.1096 -0.0495
vn -0.9924 0.1157 -0.0428
vn 0.4067 0.1493 -0.9013
vn 0.4019 0.1407 -0.9048
vn -0.9172 0.2687 -0.2944
vn -0.8896 0.1521 -0.4308
vn -0.8602 0.1480 -0.4880
vn -0.8100 0.1950 -0.5531
vn -0.9630 0.2440 0.1146
vn -0.9650 0.2482 0.0844
vn 0.5803 0.7058 -0.4064
vn -0.8425 0.2683 -0.4672
vn -0.8741 0.2715 -0.4029
s 0
f 1//1 2//1 3//1
f 4//2 5//2 6//2
f 4//2 6//2 7//2
f 8//3 9//3 10//3
f 11//4 12//4 13//4
f 13//5 12//5 14//5
f 13//6 14//6 15//6
f 16//7 17//7 18//7
f 19//8 20//8 15//8
f 16//9 21//9 19//9
f 11//10 13//10 22//10
f 23//11 24//11 25//11
f 26//12 25//12 22//12
f 26//13 22//13 20//13
f 20//14 22//14 13//14
f 20//15 13//15 15//15
f 27//16 28//16 29//16
f 27//17 29//17 30//17
f 30//18 29//18 31//18
f 30//19 31//19 32//19
f 33//20 31//20 34//20
f 34//21 31//21 29//21
f 35//22 36//22 37//22
f 15//23 14//23 19//23
f 19//24 14//24 38//24
f 39//25 40//25 17//25
f 39//26 17//26 38//26
f 38//27 17//27 16//27
f 38//28 16//28 19//28
f 41//29 42//29 43//29
f 44//30 45//30 46//30
f 47//31 48//31 45//31
f 49//32 32//32 50//32
f 50//33 32//33 44//33
f 50//34 44//34 51//34
f 52//35 53//35 54//35
f 54//36 53//36 55//36
f 55//37 53//37 56//37
f 55//38 56//38 57//38
f 58//39 59//39 60//39
f 56//40 61//40 57//40
f 62//41 63//41 64//41
f 62//42 64//42 65//42
f 65//43 64//43 66//43
f 65//44 66//44 67//44
f 68//45 69//45 70//45
f 71//46 72//46 73//46
f 74//47 75//47 76//47
f 77//48 78//48 79//48
f 79//49 78//49 80//49
f 81//50 82//50 83//50
f 83//51 82//51 84//51
f 80//52 85//52 79//52
f 86//53 87//53 88//53
f 87//54 89//54 88//54
f 90//55 91//55 92//55
f 90//56 92//56 93//56
f 93//57 92//57 94//57
f 94//58 92//58 95//58
f 96//59 97//59 98//59
f 98//60 97//60 99//60
f 98//61 99//61 95//61
f 95//62 99//62 100//62
f 95//63 100//63 94//63
f 101//64 102//64 103//64
f 103//65 102//65 104//65
f 105//66 104//66 106//66
f 107//67 108//67 109//67
f 110//68 109//68 111//68
f 112//69 111//69 113//69
f 112//70 113//70 114//70
f 115//71 116//71 117//71
f 115//72 117//72 118//72
f 118//73 117//73 119//73
f 118//74 119//74 120//74
f 119//75 121//75 120//75
f 122//76 123//76 124//76
f 125//77 124//77 126//77
f 127//78 66//78 128//78
f 128//79 66//79 64//79
f 128//80 64//80 129//80
f 129//81 64//81 63//81
f 129//82 63//82 130//82
f 130//83 63//83 70//83
f 130//84 70//84 131//84
f 131//85 70//85 69//85
f 131//86 69//86 132//86
f 127//87 59//87 66//87
f 133//88 61//88 60//88
f 134//89 52//89 54//89
f 134//90 54//90 135//90
f 135//91 54//91 55//91
f 135//92 55//92 57//92
f 136//93 137//93 138//93
f 136//94 138//94 139//94
f 140//95 141//95 142//95
f 126//96 143//96 144//96
f 144//97 143//97 140//97
f 144//98 140//98 145//98
f 145//99 140//99 146//99
f 145//100 146//100 147//100
f 147//101 146//101 148//101
f 147//102 148//102 149//102
f 149//103 148//103 150//103
f 149//104 150//104 151//104
f 151//105 150//105 152//105
f 151//106 152//106 153//106
f 153//107 152//107 154//107
f 153//108 154//108 155//108
f 155//109 154//109 156//109
f 155//110 156//110 157//110
f 157//111 156//111 158//111
f 148//112 159//112 160//112
f 148//113 160//113 150//113
f 150//114 161//114 152//114
f 152//115 161//115 162//115
f 155//116 163//116 153//116
f 153//117 163//117 164//117
f 153//118 164//118 151//118
f 151//119 164//119 165//119
f 151//120 165//120 149//120
f 149//121 165//121 166//121
f 149//122 166//122 147//122
f 123//123 122//123 167//123
f 123//124 167//124 168//124
f 168//125 167//125 169//125
f 168//126 169//126 170//126
f 161//127 171//127 172//127
f 173//128 93//128 94//128
f 48//129 47//129 174//129
f 174//130 47//130 33//130
f 174//131 33//131 175//131
f 175//132 33//132 34//132
f 175//133 34//133 176//133
f 176//134 34//134 177//134
f 176//135 177//135 178//135
f 178//136 179//136 176//136
f 176//137 179//137 180//137
f 181//138 182//138 183//138
f 184//139 185//139 186//139
f 187//140 188//140 189//140
f 187//141 189//141 190//141
f 191//142 192//142 193//142
f 193//143 192//143 194//143
f 193//144 194//144 195//144
f 195//145 194//145 196//145
f 197//146 198//146 199//146
f 197//147 199//147 191//147
f 191//148 199//148 200//148
f 191//149 200//149 192//149
f 201//150 202//150 203//150
f 203//151 202//151 204//151
f 203//152 204//152 205//152
f 205//153 204//153 206//153
f 205//154 206//154 207//154
f 208//155 209//155 210//155
f 211//156 181//156 212//156
f 212//157 181//157 183//157
f 209//158 201//158 210//158
f 213//159 195//159 214//159
f 214//160 195//160 215//160
f 216//161 215//161 217//161
f 184//162 187//162 190//162
f 184//163 190//163 218//163
f 214//164 187//164 213//164
f 213//165 187//165 219//165
f 213//166 219//166 220//166
f 220//167 219//167 221//167
f 222//168 223//168 224//168
f 222//168 224//168 225//168
f 226//169 227//169 228//169
f 226//169 228//169 229//169
f 229//170 228//170 230//170
f 229//170 230//170 231//170
f 232//171 233//171 234//171
f 232//171 234//171 235//171
f 236//172 237//172 238//172
f 236//172 238//172 239//172
f 239//173 238//173 240//173
f 239//173 240//173 241//173
f 242//174 243//174 244//174
f 242//174 244//174 245//174
f 245//175 244//175 246//175
f 245//175 246//175 247//175
f 248//176 249//176 250//176
f 248//176 250//176 251//176
f 252//177 253//177 254//177
f 252//177 254//177 255//177
f 256//178 257//178 258//178
f 256//178 258//178 259//178
f 260//179 261//179 262//179
f 260//179 262//179 263//179
f 263//180 262//180 264//180
f 263//180 264//180 265//180
f 266//181 267//181 268//181
f 269//182 270//182 271//182
f 269//182 271//182 272//182
f 273//183 274//183 275//183
f 273//183 275//183 276//183
f 277//184 278//184 279//184
f 277//184 279//184 280//184
f 281//185 282//185 283//185
f 281//185 283//185 284//185
f 285//186 286//186 287//186
f 285//186 287//186 288//186
f 289//187 86//187 290//187
f 86//188 88//188 290//188
f 88//189 291//189 290//189
f 291//190 292//190 290//190
f 292//191 289//191 290//191
f 293//192 269//192 17//192
f 293//193 17//193 40//193
f 294//194 295//194 289//194
f 179//195 296//195 297//195
f 179//196 297//196 180//196
f 298//197 89//197 289//197
f 89//198 87//198 289//198
f 87//199 86//199 289//199
f 292//200 174//200 289//200
f 174//201 299//201 289//201
f 300//202 3//202 301//202
f 300//202 301//202 302//202
f 90//203 291//203 88//203
f 90//204 292//204 291//204
f 90//205 173//205 292//205
f 173//206 303//206 292//206
f 303//207 304//207 292//207
f 304//208 305//208 292//208
f 305//209 306//209 292//209
f 306//210 48//210 292//210
f 48//211 174//211 292//211
f 307//212 308//212 299//212
f 174//213 307//213 299//213
f 309//214 294//214 308//214
f 307//215 310//215 308//215
f 310//216 311//216 308//216
f 311//217 312//217 308//217
f 312//218 313//218 308//218
f 313//219 217//219 308//219
f 217//220 309//220 308//220
f 309//221 295//221 294//221
f 309//222 314//222 295//222
f 309//223 315//223 314//223
f 315//224 196//224 314//224
f 196//225 194//225 314//225
f 316//226 317//226 318//226
f 316//227 318//227 319//227
f 320//228 321//228 322//228
f 320//228 322//228 323//228
f 104//229 38//229 14//229
f 104//230 14//230 103//230
f 324//231 89//231 298//231
f 101//232 14//232 12//232
f 101//233 12//233 96//233
f 175//234 325//234 174//234
f 325//235 312//235 174//235
f 312//236 311//236 174//236
f 311//237 310//237 174//237
f 310//238 307//238 174//238
f 93//239 173//239 90//239
f 94//240 44//240 173//240
f 44//241 303//241 173//241
f 44//242 46//242 303//242
f 46//243 304//243 303//243
f 46//244 305//244 304//244
f 46//245 45//245 305//245
f 45//246 306//246 305//246
f 45//247 48//247 306//247
f 91//248 90//248 88//248
f 91//249 88//249 89//249
f 325//250 313//250 312//250
f 326//251 217//251 313//251
f 325//252 175//252 313//252
f 175//253 326//253 313//253
f 326//254 327//254 217//254
f 327//255 216//255 217//255
f 328//256 300//256 329//256
f 328//257 329//257 330//257
f 65//258 118//258 120//258
f 65//259 120//259 62//259
f 286//260 322//260 192//260
f 322//261 321//261 192//261
f 331//262 332//262 333//262
f 331//262 333//262 334//262
f 320//263 335//263 336//263
f 162//264 337//264 154//264
f 162//265 154//265 152//265
f 338//266 92//266 91//266
f 83//267 84//267 85//267
f 83//268 85//268 80//268
f 339//269 326//269 175//269
f 4//270 7//270 340//270
f 4//271 340//271 341//271
f 338//272 335//272 92//272
f 335//273 95//273 92//273
f 100//274 51//274 94//274
f 51//275 44//275 94//275
f 114//276 56//276 53//276
f 114//277 53//277 112//277
f 339//278 327//278 326//278
f 314//279 298//279 289//279
f 314//280 289//280 295//280
f 297//281 216//281 327//281
f 342//282 215//282 216//282
f 297//283 342//283 216//283
f 342//284 214//284 215//284
f 343//285 198//285 197//285
f 343//286 197//286 344//286
f 340//287 7//287 8//287
f 340//288 8//288 345//288
f 163//289 155//289 157//289
f 163//290 157//290 346//290
f 347//291 285//291 288//291
f 347//291 288//291 348//291
f 349//292 348//292 288//292
f 349//292 288//292 350//292
f 184//293 186//293 219//293
f 184//294 219//294 187//294
f 323//263 332//263 335//263
f 323//263 335//263 320//263
f 351//295 352//295 353//295
f 351//296 353//296 221//296
f 354//297 95//297 335//297
f 355//298 356//298 260//298
f 355//299 260//299 357//299
f 354//300 98//300 95//300
f 99//301 51//301 100//301
f 12//302 11//302 51//302
f 11//303 358//303 51//303
f 358//304 50//304 51//304
f 359//305 360//305 331//305
f 359//305 331//305 334//305
f 358//306 361//306 50//306
f 361//307 362//307 50//307
f 362//308 49//308 50//308
f 49//309 35//309 32//309
f 35//310 363//310 32//310
f 363//311 30//311 32//311
f 124//312 125//312 319//312
f 124//313 319//313 364//313
f 296//314 342//314 297//314
f 188//315 214//315 342//315
f 296//316 365//316 342//316
f 365//317 188//317 342//317
f 188//318 187//318 214//318
f 359//319 334//319 366//319
f 359//319 366//319 367//319
f 166//320 128//320 129//320
f 166//321 129//321 147//321
f 338//322 91//322 89//322
f 338//323 89//323 324//323
f 9//324 368//324 199//324
f 368//324 369//324 199//324
f 354//262 335//262 332//262
f 354//262 332//262 331//262
f 147//325 129//325 130//325
f 147//326 130//326 145//326
f 366//327 347//327 348//327
f 366//327 348//327 370//327
f 323//328 322//328 286//328
f 323//328 286//328 285//328
f 333//263 332//263 323//263
f 371//329 372//329 252//329
f 371//330 252//330 255//330
f 275//331 373//331 374//331
f 275//331 374//331 276//331
f 375//332 344//332 197//332
f 375//333 197//333 376//333
f 350//334 369//334 368//334
f 350//3 368//3 377//3
f 235//335 378//335 184//335
f 235//336 184//336 218//336
f 379//337 98//337 354//337
f 363//338 27//338 30//338
f 201//339 203//339 380//339
f 201//340 380//340 210//340
f 127//341 165//341 164//341
f 127//342 164//342 133//342
f 63//343 62//343 381//343
f 63//344 381//344 70//344
f 369//345 287//345 200//345
f 369//346 200//346 199//346
f 225//347 296//347 179//347
f 102//348 96//348 98//348
f 379//349 102//349 98//349
f 97//350 96//350 12//350
f 284//351 222//351 178//351
f 284//352 178//352 177//352
f 133//353 60//353 59//353
f 133//354 59//354 127//354
f 24//355 358//355 11//355
f 24//356 362//356 358//356
f 362//357 361//357 358//357
f 362//358 35//358 49//358
f 24//359 382//359 362//359
f 382//360 35//360 362//360
f 382//361 36//361 35//361
f 37//362 383//362 35//362
f 383//363 384//363 35//363
f 384//364 363//364 35//364
f 384//365 385//365 363//365
f 385//366 27//366 363//366
f 225//367 386//367 296//367
f 386//368 365//368 296//368
f 365//369 387//369 188//369
f 387//370 388//370 188//370
f 388//371 389//371 188//371
f 389//372 189//372 188//372
f 386//373 226//373 365//373
f 226//374 229//374 365//374
f 229//375 387//375 365//375
f 390//376 391//376 3//376
f 390//377 3//377 2//377
f 366//378 334//378 333//378
f 366//378 333//378 347//378
f 347//379 333//379 323//379
f 347//379 323//379 285//379
f 350//380 288//380 287//380
f 350//380 287//380 369//380
f 370//381 348//381 349//381
f 370//382 349//382 301//382
f 343//383 10//383 198//383
f 144//384 131//384 132//384
f 144//385 132//385 126//385
f 215//386 315//386 309//386
f 215//387 309//387 217//387
f 8//3 377//3 9//3
f 377//3 368//3 9//3
f 377//388 349//388 350//388
f 392//389 393//389 353//389
f 392//390 353//390 352//390
f 367//391 366//391 370//391
f 367//391 370//391 391//391
f 353//392 394//392 220//392
f 353//393 220//393 221//393
f 259//394 356//394 162//394
f 259//395 162//395 172//395
f 395//396 396//396 255//396
f 395//397 255//397 256//397
f 397//398 177//398 34//398
f 397//399 34//399 29//399
f 160//400 159//400 256//400
f 160//401 256//401 259//401
f 360//305 379//305 354//305
f 360//305 354//305 331//305
f 359//402 398//402 360//402
f 398//402 379//402 360//402
f 398//403 102//403 379//403
f 385//404 28//404 27//404
f 385//405 399//405 28//405
f 400//406 401//406 399//406
f 401//407 402//407 399//407
f 402//408 397//408 399//408
f 385//409 400//409 399//409
f 402//410 281//410 397//410
f 403//411 404//411 378//411
f 403//411 378//411 405//411
f 271//412 274//412 273//412
f 271//412 273//412 272//412
f 226//413 386//413 225//413
f 101//414 96//414 102//414
f 398//415 104//415 102//415
f 101//416 103//416 14//416
f 287//417 286//417 192//417
f 287//418 192//418 200//418
f 406//419 277//419 280//419
f 406//420 280//420 382//420
f 374//421 277//421 25//421
f 277//422 23//422 25//422
f 23//423 277//423 24//423
f 277//424 406//424 24//424
f 406//425 382//425 24//425
f 67//426 58//426 115//426
f 67//427 115//427 118//427
f 280//428 36//428 382//428
f 280//429 37//429 36//429
f 167//430 407//430 408//430
f 167//431 408//431 169//431
f 409//432 402//432 383//432
f 402//433 401//433 383//433
f 401//434 384//434 383//434
f 281//435 409//435 383//435
f 401//436 385//436 384//436
f 401//437 400//437 385//437
f 389//438 410//438 189//438
f 410//439 190//439 189//439
f 229//440 231//440 387//440
f 231//441 388//441 387//441
f 231//442 389//442 388//442
f 231//443 232//443 389//443
f 232//444 410//444 389//444
f 410//445 411//445 190//445
f 411//446 218//446 190//446
f 109//447 53//447 412//447
f 109//448 412//448 107//448
f 378//449 185//449 184//449
f 185//450 378//450 186//450
f 61//451 133//451 135//451
f 61//452 135//452 57//452
f 404//453 413//453 351//453
f 413//454 352//454 351//454
f 413//455 392//455 352//455
f 413//456 404//456 392//456
f 404//457 351//457 186//457
f 404//458 186//458 378//458
f 236//459 414//459 415//459
f 414//460 212//460 415//460
f 416//461 205//461 417//461
f 205//462 207//462 417//462
f 207//463 418//463 417//463
f 418//464 345//464 417//464
f 3//465 391//465 370//465
f 3//466 370//466 301//466
f 7//388 6//388 8//388
f 6//388 349//388 377//388
f 6//388 377//388 8//388
f 419//467 39//467 38//467
f 419//468 38//468 420//468
f 336//228 314//228 321//228
f 336//228 321//228 320//228
f 393//469 376//469 394//469
f 393//470 394//470 353//470
f 421//471 367//471 391//471
f 421//471 391//471 390//471
f 145//472 130//472 131//472
f 145//473 131//473 144//473
f 182//474 208//474 183//474
f 208//475 422//475 183//475
f 414//476 236//476 212//476
f 423//477 114//477 113//477
f 423//478 113//478 424//478
f 208//479 210//479 422//479
f 210//480 380//480 422//480
f 272//481 273//481 26//481
f 272//482 26//482 21//482
f 415//483 425//483 393//483
f 415//484 393//484 392//484
f 426//485 427//485 359//485
f 427//485 398//485 359//485
f 427//486 428//486 398//486
f 428//487 429//487 398//487
f 429//488 430//488 398//488
f 430//489 419//489 398//489
f 419//490 420//490 398//490
f 420//491 106//491 398//491
f 106//492 104//492 398//492
f 409//493 281//493 402//493
f 234//494 405//494 378//494
f 234//494 378//494 235//494
f 282//495 279//495 278//495
f 282//495 278//495 373//495
f 282//495 373//495 275//495
f 282//495 275//495 274//495
f 282//495 274//495 271//495
f 282//495 271//495 270//495
f 282//495 270//495 268//495
f 282//495 268//495 267//495
f 282//495 267//495 264//495
f 282//495 264//495 262//495
f 282//495 262//495 261//495
f 282//495 261//495 431//495
f 282//495 431//495 258//495
f 282//495 258//495 257//495
f 282//495 257//495 254//495
f 282//495 254//495 253//495
f 282//495 253//495 250//495
f 282//495 250//495 249//495
f 282//495 249//495 246//495
f 282//495 246//495 244//495
f 282//495 244//495 243//495
f 282//495 243//495 240//495
f 282//495 240//495 238//495
f 282//495 238//495 237//495
f 282//495 237//495 403//495
f 282//495 403//495 405//495
f 282//495 405//495 234//495
f 282//495 234//495 233//495
f 282//495 233//495 230//495
f 282//495 230//495 228//495
f 282//495 228//495 227//495
f 282//495 227//495 224//495
f 282//495 224//495 223//495
f 282//495 223//495 283//495
f 105//496 38//496 104//496
f 105//497 106//497 38//497
f 106//498 420//498 38//498
f 432//499 381//499 121//499
f 432//500 121//500 81//500
f 433//501 428//501 421//501
f 433//502 421//502 390//502
f 53//503 52//503 434//503
f 53//504 434//504 412//504
f 273//505 276//505 26//505
f 431//506 261//506 260//506
f 431//506 260//506 356//506
f 230//507 233//507 232//507
f 230//507 232//507 231//507
f 232//508 235//508 410//508
f 235//509 411//509 410//509
f 242//510 241//510 240//510
f 242//510 240//510 243//510
f 435//511 218//511 411//511
f 235//512 435//512 411//512
f 435//513 235//513 218//513
f 264//514 267//514 266//514
f 264//514 266//514 265//514
f 403//515 237//515 236//515
f 403//515 236//515 404//515
f 268//516 270//516 269//516
f 268//516 269//516 293//516
f 436//517 260//517 263//517
f 436//518 263//518 437//518
f 418//519 438//519 345//519
f 438//520 79//520 345//520
f 79//521 85//521 345//521
f 132//522 316//522 125//522
f 132//523 125//523 126//523
f 439//524 440//524 418//524
f 440//525 441//525 418//525
f 441//526 72//526 418//526
f 72//527 71//527 418//527
f 71//528 442//528 418//528
f 442//529 443//529 418//529
f 443//530 444//530 418//530
f 444//531 445//531 418//531
f 445//532 438//532 418//532
f 135//533 163//533 346//533
f 135//534 346//534 134//534
f 84//535 82//535 340//535
f 82//536 119//536 340//536
f 119//537 341//537 340//537
f 5//202 302//202 301//202
f 84//538 340//538 345//538
f 84//539 345//539 85//539
f 376//540 197//540 191//540
f 376//541 191//541 394//541
f 301//2 349//2 6//2
f 301//2 6//2 5//2
f 211//542 446//542 181//542
f 446//543 447//543 181//543
f 447//544 182//544 181//544
f 447//545 448//545 182//545
f 448//546 449//546 182//546
f 449//547 208//547 182//547
f 449//548 450//548 208//548
f 450//549 451//549 208//549
f 451//550 452//550 208//550
f 452//551 209//551 208//551
f 239//552 453//552 211//552
f 453//553 446//553 211//553
f 209//554 454//554 201//554
f 454//555 202//555 201//555
f 422//556 380//556 344//556
f 422//557 344//557 375//557
f 428//558 426//558 421//558
f 428//486 427//486 426//486
f 433//559 39//559 428//559
f 39//560 429//560 428//560
f 39//561 430//561 429//561
f 39//562 419//562 430//562
f 115//563 423//563 424//563
f 115//564 424//564 116//564
f 41//565 43//565 39//565
f 43//566 40//566 39//566
f 433//567 455//567 39//567
f 455//568 456//568 39//568
f 456//569 457//569 39//569
f 457//570 458//570 39//570
f 458//571 459//571 39//571
f 459//572 412//572 39//572
f 132//573 460//573 317//573
f 132//574 317//574 316//574
f 269//575 18//575 17//575
f 18//576 269//576 16//576
f 269//577 21//577 16//577
f 269//578 272//578 21//578
f 246//579 249//579 248//579
f 246//579 248//579 247//579
f 241//580 446//580 239//580
f 446//581 453//581 239//581
f 280//582 281//582 383//582
f 280//583 383//583 37//583
f 445//584 77//584 438//584
f 77//585 79//585 438//585
f 202//586 364//586 204//586
f 364//587 319//587 204//587
f 319//588 318//588 204//588
f 318//589 206//589 204//589
f 318//590 461//590 206//590
f 461//591 462//591 206//591
f 462//592 439//592 206//592
f 462//593 463//593 439//593
f 463//594 464//594 439//594
f 464//595 440//595 439//595
f 464//596 76//596 440//596
f 76//597 75//597 440//597
f 75//598 441//598 440//598
f 75//599 72//599 441//599
f 75//600 73//600 72//600
f 73//601 442//601 71//601
f 73//602 83//602 442//602
f 83//603 465//603 442//603
f 465//604 443//604 442//604
f 465//605 78//605 443//605
f 78//606 444//606 443//606
f 78//607 445//607 444//607
f 78//608 77//608 445//608
f 183//609 422//609 375//609
f 183//610 375//610 425//610
f 119//611 117//611 341//611
f 117//612 329//612 341//612
f 300//613 5//613 4//613
f 81//614 121//614 82//614
f 121//615 119//615 82//615
f 300//202 302//202 5//202
f 454//616 466//616 202//616
f 466//617 467//617 202//617
f 467//618 468//618 202//618
f 468//619 364//619 202//619
f 300//1 328//1 3//1
f 328//1 1//1 3//1
f 345//620 8//620 10//620
f 345//621 10//621 417//621
f 241//622 447//622 446//622
f 241//623 448//623 447//623
f 241//624 242//624 448//624
f 242//625 449//625 448//625
f 242//626 245//626 449//626
f 245//627 450//627 449//627
f 452//628 454//628 209//628
f 245//629 451//629 450//629
f 245//630 247//630 451//630
f 247//631 452//631 451//631
f 247//632 248//632 452//632
f 248//633 408//633 452//633
f 408//634 454//634 452//634
f 408//635 407//635 454//635
f 407//636 466//636 454//636
f 2//637 457//637 390//637
f 457//638 456//638 390//638
f 456//639 455//639 390//639
f 455//640 433//640 390//640
f 239//641 211//641 212//641
f 239//642 212//642 236//642
f 459//643 108//643 412//643
f 108//644 107//644 412//644
f 357//645 469//645 156//645
f 357//646 156//646 154//646
f 52//647 134//647 434//647
f 134//648 346//648 434//648
f 346//649 41//649 434//649
f 139//650 470//650 41//650
f 470//651 266//651 41//651
f 10//324 9//324 199//324
f 10//652 199//652 198//652
f 346//653 157//653 41//653
f 157//654 158//654 41//654
f 158//655 139//655 41//655
f 42//656 293//656 43//656
f 293//657 40//657 43//657
f 2//658 458//658 457//658
f 2//659 1//659 458//659
f 1//659 328//659 458//659
f 328//660 459//660 458//660
f 416//661 417//661 10//661
f 416//662 10//662 343//662
f 266//181 268//181 293//181
f 252//663 251//663 250//663
f 252//663 250//663 253//663
f 224//664 227//664 226//664
f 224//664 226//664 225//664
f 78//665 465//665 80//665
f 465//666 83//666 80//666
f 73//667 471//667 83//667
f 471//668 432//668 83//668
f 432//669 81//669 83//669
f 468//670 472//670 364//670
f 472//671 122//671 364//671
f 122//672 124//672 364//672
f 192//261 321//261 314//261
f 192//673 314//673 194//673
f 125//674 316//674 319//674
f 317//675 461//675 318//675
f 317//676 473//676 461//676
f 473//677 474//677 461//677
f 474//678 462//678 461//678
f 474//679 463//679 462//679
f 474//680 460//680 463//680
f 460//681 76//681 463//681
f 76//682 464//682 463//682
f 460//683 69//683 76//683
f 69//684 432//684 76//684
f 432//685 74//685 76//685
f 74//686 475//686 75//686
f 475//687 73//687 75//687
f 475//688 74//688 73//688
f 74//689 471//689 73//689
f 380//690 416//690 343//690
f 380//691 343//691 344//691
f 117//692 116//692 329//692
f 116//693 424//693 329//693
f 424//694 330//694 329//694
f 25//695 24//695 11//695
f 25//696 11//696 22//696
f 381//697 120//697 121//697
f 381//698 62//698 120//698
f 31//699 33//699 47//699
f 31//700 47//700 45//700
f 65//701 67//701 118//701
f 122//702 472//702 407//702
f 122//703 407//703 167//703
f 407//704 467//704 466//704
f 407//705 468//705 467//705
f 407//706 472//706 468//706
f 283//707 223//707 222//707
f 283//707 222//707 284//707
f 137//708 265//708 266//708
f 137//709 266//709 138//709
f 338//710 324//710 336//710
f 338//711 336//711 335//711
f 330//712 108//712 459//712
f 330//713 459//713 328//713
f 109//714 110//714 53//714
f 110//715 111//715 53//715
f 111//716 112//716 53//716
f 336//717 324//717 298//717
f 336//718 298//718 314//718
f 330//719 109//719 108//719
f 330//720 111//720 109//720
f 300//721 4//721 341//721
f 300//722 341//722 329//722
f 404//723 236//723 415//723
f 404//724 415//724 392//724
f 138//725 470//725 139//725
f 158//726 136//726 139//726
f 138//727 476//727 470//727
f 476//728 266//728 470//728
f 256//729 255//729 254//729
f 256//729 254//729 257//729
f 476//730 138//730 266//730
f 396//731 146//731 140//731
f 396//732 140//732 477//732
f 266//733 293//733 42//733
f 266//734 42//734 41//734
f 137//735 136//735 158//735
f 424//736 113//736 330//736
f 113//737 111//737 330//737
f 74//738 432//738 471//738
f 69//739 68//739 432//739
f 68//740 70//740 432//740
f 70//741 381//741 432//741
f 434//742 41//742 39//742
f 434//743 39//743 412//743
f 180//744 297//744 327//744
f 180//745 327//745 339//745
f 206//746 439//746 418//746
f 206//747 418//747 207//747
f 460//748 473//748 317//748
f 460//749 474//749 473//749
f 132//750 69//750 460//750
f 251//751 169//751 408//751
f 251//752 408//752 248//752
f 478//753 263//753 265//753
f 478//754 265//754 137//754
f 276//755 374//755 25//755
f 276//756 25//756 26//756
f 399//757 397//757 29//757
f 399//758 29//758 28//758
f 97//759 12//759 51//759
f 97//760 51//760 99//760
f 133//761 164//761 163//761
f 133//762 163//762 135//762
f 215//763 195//763 196//763
f 215//764 196//764 315//764
f 159//765 148//765 146//765
f 159//766 146//766 395//766
f 114//767 423//767 56//767
f 203//768 205//768 416//768
f 203//769 416//769 380//769
f 176//770 180//770 339//770
f 176//771 339//771 175//771
f 59//772 58//772 67//772
f 59//773 67//773 66//773
f 60//774 61//774 56//774
f 60//775 56//775 58//775
f 469//776 436//776 156//776
f 436//777 479//777 156//777
f 479//778 437//778 156//778
f 437//779 137//779 158//779
f 437//780 158//780 156//780
f 263//781 478//781 437//781
f 478//782 137//782 437//782
f 479//783 436//783 437//783
f 168//784 170//784 123//784
f 170//785 143//785 123//785
f 170//786 480//786 143//786
f 480//787 372//787 143//787
f 372//788 141//788 143//788
f 141//789 140//789 143//789
f 165//790 127//790 128//790
f 165//791 128//791 166//791
f 421//792 426//792 359//792
f 421//792 359//792 367//792
f 32//793 31//793 45//793
f 32//794 45//794 44//794
f 220//795 193//795 195//795
f 220//796 195//796 213//796
f 372//797 480//797 252//797
f 480//798 170//798 252//798
f 425//799 375//799 376//799
f 425//800 376//800 393//800
f 58//801 56//801 423//801
f 58//802 423//802 115//802
f 337//803 355//803 154//803
f 355//804 357//804 154//804
f 357//805 260//805 469//805
f 260//806 436//806 469//806
f 186//807 351//807 221//807
f 186//808 221//808 219//808
f 142//809 477//809 140//809
f 308//810 294//810 289//810
f 308//811 289//811 299//811
f 371//812 141//812 372//812
f 371//813 255//813 141//813
f 255//814 142//814 141//814
f 394//815 191//815 193//815
f 394//816 193//816 220//816
f 212//817 183//817 425//817
f 212//818 425//818 415//818
f 258//819 431//819 356//819
f 258//819 356//819 259//819
f 281//820 284//820 177//820
f 281//821 177//821 397//821
f 396//822 477//822 255//822
f 477//823 142//823 255//823
f 279//824 282//824 281//824
f 279//824 281//824 280//824
f 222//825 225//825 179//825
f 222//826 179//826 178//826
f 162//827 356//827 337//827
f 356//828 355//828 337//828
f 396//829 395//829 146//829
f 143//830 126//830 124//830
f 143//831 124//831 123//831
f 21//832 26//832 20//832
f 21//833 20//833 19//833
f 159//834 395//834 256//834
f 160//835 171//835 150//835
f 171//836 161//836 150//836
f 172//837 162//837 161//837
f 170//838 169//838 251//838
f 170//839 251//839 252//839
f 373//840 278//840 277//840
f 373//840 277//840 374//840
f 172//841 171//841 259//841
f 171//842 160//842 259//842
