# Blender 4.3.2
# www.blender.org
mtllib right_thumb_2_collision.mtl
o right_thumb_2_collision
v 0.012738 -0.019703 -0.005464
v 0.010259 -0.019740 -0.004991
v 0.013653 -0.019794 -0.006964
v 0.022665 -0.019733 -0.010127
v 0.027164 -0.019680 -0.011759
v 0.027109 -0.019655 -0.011373
v 0.025887 -0.019613 -0.010242
v 0.024549 -0.019599 -0.009441
v 0.027222 -0.019726 -0.012575
v 0.022006 -0.019839 -0.011900
v 0.027272 -0.019783 -0.014248
v 0.027205 -0.019803 -0.015851
v 0.021636 -0.019898 -0.015349
v 0.022121 -0.019884 -0.016619
v 0.022508 -0.019860 -0.018018
v 0.027025 -0.019798 -0.017242
v 0.027099 -0.019801 -0.016785
v 0.022872 -0.019586 -0.026343
v 0.024075 -0.019574 -0.026200
v 0.022961 -0.019665 -0.025170
v 0.024452 -0.019650 -0.024603
v 0.022981 -0.019683 -0.024793
v 0.024485 -0.019654 -0.024489
v 0.023026 -0.019745 -0.022941
v 0.024988 -0.019689 -0.023007
v 0.022262 -0.012630 -0.030777
v 0.023509 -0.012746 -0.031113
v 0.022263 -0.012944 -0.030766
v 0.023515 -0.014387 -0.031025
v 0.022279 -0.014631 -0.030662
v 0.023526 -0.015793 -0.030861
v 0.022307 -0.015975 -0.030487
v 0.023540 -0.016732 -0.030652
v 0.022345 -0.016959 -0.030248
v 0.023561 -0.017523 -0.030361
v 0.022392 -0.017684 -0.029958
v 0.023587 -0.018115 -0.030016
v 0.022433 -0.018120 -0.029704
v 0.022611 -0.019098 -0.028560
v 0.023675 -0.018974 -0.029030
v 0.023738 -0.019225 -0.028435
v 0.022709 -0.019353 -0.027846
v 0.023779 -0.019322 -0.028093
v 0.022736 -0.019405 -0.027630
v 0.023856 -0.019437 -0.027508
v 0.022823 -0.019533 -0.026855
v 0.023893 -0.019473 -0.027257
v 0.023994 -0.019540 -0.026640
v 0.019551 -0.019895 -0.012094
v 0.019718 -0.019896 -0.012285
v 0.013659 -0.019861 -0.008117
v 0.014637 -0.019862 -0.008552
v 0.015278 -0.019863 -0.008870
v 0.016656 -0.019870 -0.009661
v 0.017787 -0.019878 -0.010457
v 0.018619 -0.019886 -0.011155
v 0.011813 -0.019863 -0.007436
v 0.012823 -0.019861 -0.007788
v -0.003851 -0.019875 -0.003570
v 0.000556 -0.019914 -0.005559
v 0.002437 -0.019908 -0.005689
v 0.015201 -0.019665 -0.006015
v -0.004429 0.001221 -0.017465
v 0.000976 0.001282 -0.019895
v -0.005079 0.001156 -0.018055
v -0.005695 0.001051 -0.018677
v 0.000684 0.001109 -0.021025
v -0.005745 0.001039 -0.018732
v 0.000470 0.000778 -0.021859
v -0.006393 0.000749 -0.019564
v -0.006058 0.000939 -0.019100
v -0.006615 0.000504 -0.019953
v -0.006512 0.000638 -0.019760
v -0.004018 -0.005328 -0.022885
v -0.004733 -0.004851 -0.022639
v -0.004178 -0.004948 -0.022817
v -0.004552 -0.005192 -0.022712
v -0.004541 -0.005445 -0.022726
v -0.004692 -0.005313 -0.022674
v 0.009203 -0.007565 -0.026992
v 0.009023 -0.007597 -0.026939
v 0.009026 -0.007030 -0.026930
v 0.005017 -0.006528 -0.025714
v 0.005194 -0.007030 -0.025780
v 0.004689 -0.006893 -0.025623
v -0.004333 -0.013585 -0.022729
v -0.004433 -0.013574 -0.022699
v -0.004414 -0.013504 -0.022724
v -0.002451 -0.011605 -0.023414
v -0.002454 -0.011069 -0.023425
v -0.002029 -0.011381 -0.023551
v -0.002059 -0.010693 -0.023555
v -0.001950 -0.010901 -0.023585
v -0.004178 -0.013152 -0.022817
v -0.004733 -0.013249 -0.022639
v -0.004018 -0.012772 -0.022885
v 0.009203 -0.010535 -0.026992
v 0.009026 -0.011070 -0.026930
v 0.009023 -0.010503 -0.026939
v -0.000228 -0.012738 -0.024065
v -0.000732 -0.012909 -0.023901
v -0.000417 -0.012624 -0.024012
v -0.005745 -0.019139 -0.018732
v -0.006058 -0.019039 -0.019100
v 0.000684 -0.019209 -0.021025
v -0.006393 -0.018849 -0.019564
v 0.000470 -0.018878 -0.021859
v -0.006512 -0.018738 -0.019760
v -0.006615 -0.018604 -0.019953
v -0.005695 -0.019151 -0.018677
v 0.000976 -0.019382 -0.019895
v -0.005079 -0.019256 -0.018055
v -0.004429 -0.019321 -0.017465
v 0.013653 0.001694 -0.006964
v 0.014727 0.001762 -0.008594
v 0.013047 0.001761 -0.007872
v 0.019621 0.001796 -0.012174
v 0.018667 0.001787 -0.011199
v 0.022006 0.001739 -0.011900
v 0.020410 0.001802 -0.013174
v 0.021149 0.001803 -0.014359
v 0.027261 0.001695 -0.014900
v 0.021735 0.001796 -0.015581
v 0.027135 0.001703 -0.016518
v 0.027099 0.001701 -0.016785
v 0.023026 0.001643 -0.023023
v 0.024893 0.001584 -0.023257
v 0.022993 0.001594 -0.024541
v 0.024485 0.001554 -0.024489
v 0.024395 0.001543 -0.024811
v 0.022969 0.001572 -0.025025
v 0.024032 0.001457 -0.026429
v 0.023994 0.001439 -0.026639
v 0.022832 0.001443 -0.026764
v 0.023893 0.001373 -0.027258
v 0.022736 0.001305 -0.027630
v 0.023831 0.001307 -0.027688
v 0.022714 0.001263 -0.027808
v 0.023727 0.001091 -0.028534
v 0.022618 0.001021 -0.028510
v 0.022636 0.001079 -0.028376
v 0.022313 -0.001934 -0.030451
v 0.022352 -0.001010 -0.030204
v 0.023537 -0.001532 -0.030698
v 0.023556 -0.000708 -0.030419
v 0.022386 -0.000493 -0.029996
v 0.022402 -0.000290 -0.029893
v 0.023581 -0.000088 -0.030087
v 0.022465 0.000276 -0.029509
v 0.023616 0.000419 -0.029664
v 0.022541 0.000727 -0.029019
v 0.023665 0.000819 -0.029128
v 0.022283 -0.003196 -0.030635
v 0.023522 -0.002712 -0.030921
v 0.023514 -0.003966 -0.031043
v 0.022264 -0.005126 -0.030765
v 0.023510 -0.005182 -0.031107
v 0.017517 0.001776 -0.010253
v 0.022665 0.001633 -0.010127
v 0.027255 0.001654 -0.013253
v 0.027164 0.001580 -0.011759
v 0.024549 0.001499 -0.009441
v 0.025887 0.001513 -0.010242
v 0.027013 0.001529 -0.010996
v 0.027109 0.001555 -0.011373
v 0.010259 0.001640 -0.004991
v 0.012738 0.001603 -0.005464
v 0.015201 0.001565 -0.006015
v 0.019017 0.001512 -0.007073
v -0.006902 -0.014894 -0.021232
v -0.006882 -0.014911 -0.021418
v -0.006900 -0.015925 -0.021266
v 0.022569 -0.018500 -0.004744
v 0.022934 -0.017998 -0.003733
v 0.019751 -0.018185 -0.002847
v 0.019563 -0.017739 -0.001938
v 0.023263 -0.017345 -0.002820
v 0.019446 -0.017387 -0.001371
v 0.019392 -0.017202 -0.001111
v 0.023553 -0.016521 -0.002015
v 0.019283 -0.016773 -0.000586
v 0.012225 -0.018082 0.000104
v 0.016210 -0.017713 -0.000644
v 0.012505 -0.017433 0.001068
v 0.016507 -0.017462 -0.000379
v 0.015366 -0.018271 -0.001396
v 0.015487 -0.018203 -0.001288
v 0.038156 -0.009457 -0.006339
v 0.038161 -0.009050 -0.006338
v 0.037004 -0.009050 -0.005761
v 0.038044 -0.010818 -0.006357
v 0.034380 -0.010999 -0.004582
v 0.037807 -0.012017 -0.006398
v 0.034282 -0.012684 -0.004813
v 0.037623 -0.012634 -0.006431
v 0.037466 -0.013064 -0.006461
v 0.034125 -0.014125 -0.005184
v 0.037068 -0.013933 -0.006542
v 0.036493 -0.014871 -0.006673
v 0.033912 -0.015342 -0.005687
v 0.036173 -0.015295 -0.006754
v 0.035792 -0.015739 -0.006858
v 0.033647 -0.016353 -0.006312
v 0.035014 -0.016494 -0.007100
v 0.032979 -0.017840 -0.007888
v 0.032550 -0.018099 -0.008196
v 0.033301 -0.017701 -0.007798
v 0.033334 -0.017180 -0.007049
v 0.034175 -0.017147 -0.007410
v 0.034752 -0.016713 -0.007191
v 0.027664 -0.018436 -0.006753
v 0.031384 -0.018602 -0.008966
v 0.031972 -0.018364 -0.008551
v 0.018918 -0.018605 -0.003589
v 0.015615 -0.018687 -0.002599
v 0.011915 -0.018579 -0.000961
v 0.011580 -0.018947 -0.002115
v -0.001525 -0.019089 0.001326
v -0.003813 -0.018919 0.002733
v -0.004361 -0.019163 0.001738
v -0.003199 -0.018590 0.003645
v 0.000882 -0.018598 0.002457
v -0.002857 -0.018379 0.004086
v 0.001132 -0.018100 0.003545
v -0.002210 -0.017922 0.004823
v 0.001359 -0.017449 0.004530
v -0.001551 -0.017364 0.005469
v -0.000058 -0.015593 0.006652
v 0.001731 -0.015596 0.006140
v 0.000096 -0.015348 0.006756
v -0.000454 -0.016156 0.006369
v -0.000530 -0.016254 0.006313
v 0.001560 -0.016622 0.005399
v -0.000829 -0.016618 0.006083
v -0.001055 -0.016869 0.005900
v 0.001869 -0.014348 0.006738
v 0.000870 -0.013760 0.007241
v 0.000625 -0.014347 0.007095
v 0.000457 -0.014698 0.006990
v 0.002034 -0.011098 0.007458
v 0.001604 -0.010293 0.007647
v 0.001467 -0.011487 0.007575
v 0.006427 -0.018595 0.000792
v 0.001249 -0.018733 0.001942
v 0.006124 -0.018961 -0.000378
v 0.024236 -0.011065 -0.000119
v 0.018864 -0.011085 0.001966
v 0.024145 -0.012797 -0.000372
v 0.018779 -0.012832 0.001704
v 0.023998 -0.014269 -0.000780
v 0.018641 -0.014315 0.001282
v 0.023799 -0.015503 -0.001332
v 0.018456 -0.015555 0.000711
v 0.018226 -0.016575 0.000005
v 0.017091 -0.016859 0.000140
v 0.029412 -0.011036 -0.002307
v 0.029316 -0.012747 -0.002550
v 0.029162 -0.014206 -0.002941
v 0.028954 -0.015432 -0.003470
v 0.028696 -0.016447 -0.004127
v 0.028392 -0.017272 -0.004900
v 0.028047 -0.017928 -0.005779
v 0.027248 -0.018816 -0.007811
v 0.007741 -0.009050 0.005849
v 0.007715 -0.011101 0.005755
v 0.012120 -0.009050 0.004439
v 0.013337 -0.011097 0.003928
v 0.013259 -0.012854 0.003659
v 0.013133 -0.014342 0.003226
v 0.012963 -0.015586 0.002641
v 0.012753 -0.016609 0.001918
v 0.007185 -0.016623 0.003713
v 0.006961 -0.017449 0.002850
v 0.006708 -0.018098 0.001872
v 0.007376 -0.015599 0.004448
v 0.007530 -0.014353 0.005042
v 0.007644 -0.012861 0.005482
v 0.000457 -0.003402 0.006990
v 0.000625 -0.003753 0.007095
v 0.001869 -0.003752 0.006738
v 0.012755 -0.001491 0.001917
v 0.018229 -0.001525 0.000004
v 0.017091 -0.001241 0.000140
v 0.019283 -0.001327 -0.000586
v 0.023556 -0.001579 -0.002017
v 0.015809 -0.000097 -0.001002
v 0.015458 0.000119 -0.001313
v 0.012227 -0.000018 0.000103
v 0.015366 0.000171 -0.001396
v 0.011917 0.000479 -0.000962
v 0.015615 0.000587 -0.002599
v 0.022177 0.000775 -0.005843
v 0.018918 0.000505 -0.003589
v 0.022573 0.000400 -0.004746
v 0.019751 0.000085 -0.002847
v 0.022937 -0.000102 -0.003734
v 0.019563 -0.000361 -0.001940
v 0.023266 -0.000755 -0.002821
v 0.019446 -0.000713 -0.001371
v 0.019392 -0.000897 -0.001112
v 0.032548 -0.000000 -0.008197
v 0.032983 -0.000260 -0.007890
v 0.033306 -0.000402 -0.007796
v 0.035907 -0.002489 -0.006825
v 0.035119 -0.001698 -0.007065
v 0.033651 -0.001747 -0.006314
v 0.034754 -0.001389 -0.007190
v 0.033916 -0.002759 -0.005689
v 0.036173 -0.002805 -0.006753
v 0.034287 -0.005416 -0.004815
v 0.037552 -0.005264 -0.006445
v 0.037120 -0.004268 -0.006531
v 0.034384 -0.007101 -0.004584
v 0.038023 -0.007133 -0.006361
v 0.037881 -0.006386 -0.006385
v 0.000870 -0.004340 0.007241
v 0.001197 -0.005345 0.007428
v 0.001971 -0.005244 0.007182
v 0.001467 -0.006613 0.007575
v 0.001731 -0.002504 0.006140
v 0.000096 -0.002752 0.006756
v -0.000058 -0.002507 0.006652
v -0.001055 -0.001231 0.005900
v -0.000829 -0.001482 0.006083
v 0.001561 -0.001478 0.005399
v -0.000530 -0.001846 0.006313
v -0.000454 -0.001944 0.006369
v 0.000882 0.000498 0.002457
v -0.003199 0.000490 0.003645
v -0.002857 0.000279 0.004086
v 0.018867 -0.007015 0.001965
v 0.020622 -0.009050 0.001405
v 0.024239 -0.007035 -0.000120
v 0.033339 -0.000920 -0.007051
v 0.034229 -0.000991 -0.007389
v 0.028051 -0.000172 -0.005780
v 0.032405 0.000069 -0.008281
v 0.027668 0.000336 -0.006754
v 0.031503 0.000457 -0.008877
v 0.027252 0.000716 -0.007813
v 0.030791 0.000714 -0.009454
v 0.038089 -0.007646 -0.006350
v 0.034413 -0.009050 -0.004503
v 0.029416 -0.007064 -0.002309
v 0.029174 -0.009050 -0.002105
v 0.024267 -0.009050 -0.000031
v 0.006709 -0.000002 0.001872
v 0.001133 0.000000 0.003544
v -0.002210 -0.000178 0.004823
v 0.006963 -0.000651 0.002850
v 0.001360 -0.000651 0.004530
v -0.001551 -0.000736 0.005469
v 0.002035 -0.007002 0.007458
v 0.001604 -0.007807 0.007647
v 0.007187 -0.001477 0.003713
v 0.012507 -0.000667 0.001067
v 0.016490 -0.000622 -0.000395
v -0.001526 0.000989 0.001325
v -0.004361 0.001063 0.001738
v -0.003813 0.000819 0.002733
v 0.001249 0.000633 0.001942
v 0.006429 0.000495 0.000792
v 0.034129 -0.003975 -0.005186
v 0.036568 -0.003337 -0.006655
v 0.007717 -0.006999 0.005755
v 0.013339 -0.007003 0.003927
v -0.001313 -0.001679 0.005681
v -0.001909 -0.000650 0.005130
v -0.002387 -0.000650 0.004633
v -0.003118 -0.000650 0.003754
v -0.005244 0.001354 -0.000544
v -0.005412 0.001395 -0.001172
v -0.005330 -0.000529 -0.000850
v -0.005637 -0.000457 -0.002242
v -0.005464 0.001407 -0.001389
v -0.005713 0.001458 -0.002715
v -0.000534 -0.002528 0.006310
v -0.001473 -0.016567 0.005539
v -0.000526 -0.015563 0.006316
v -0.000362 -0.015345 0.006437
v -0.001909 -0.017450 0.005130
v -0.002387 -0.017450 0.004633
v -0.003118 -0.017450 0.003754
v -0.005637 -0.017643 -0.002243
v -0.005713 -0.019558 -0.002715
v -0.005464 -0.019507 -0.001389
v -0.005330 -0.017571 -0.000851
v -0.005244 -0.019454 -0.000544
v -0.004921 -0.017450 0.000436
v -0.005092 -0.019413 -0.000053
v -0.004620 -0.019261 0.001183
v 0.037416 -0.015250 -0.023059
v 0.037416 -0.002850 -0.023059
v 0.037926 -0.002850 -0.021826
v 0.037926 -0.015250 -0.021826
v 0.023508 -0.005975 -0.031132
v 0.028281 0.000852 -0.028454
v 0.023506 -0.009050 -0.031165
v 0.030792 -0.018813 -0.009453
v 0.036421 -0.015250 -0.023950
v 0.028281 -0.018952 -0.028454
v 0.023523 -0.002520 -0.030894
v 0.022306 -0.002162 -0.030494
v 0.028175 0.000846 -0.028510
v 0.028695 0.000872 -0.028225
v 0.036421 -0.002850 -0.023950
v 0.024148 -0.005303 -0.000373
v 0.018782 -0.005268 0.001703
v 0.028978 0.000884 -0.028042
v 0.029166 -0.018994 -0.027888
v 0.028695 -0.018972 -0.028225
v 0.028175 -0.018946 -0.028510
v 0.011072 -0.012625 -0.027486
v 0.012868 -0.011605 -0.028048
v 0.012346 -0.010942 -0.027911
v 0.013041 -0.010535 -0.028120
v 0.022254 -0.009050 -0.030827
v 0.010832 -0.009691 -0.027482
v 0.011563 -0.009050 -0.027698
v 0.010832 -0.008409 -0.027482
v 0.013041 -0.007565 -0.028120
v 0.012864 -0.007030 -0.028060
v 0.013291 -0.006719 -0.028177
v 0.012868 -0.006495 -0.028048
v 0.011072 -0.005475 -0.027486
v 0.010756 -0.005191 -0.027379
v 0.010704 -0.004683 -0.027334
v 0.011166 -0.004636 -0.027467
v 0.027862 0.000829 -0.028646
v 0.029824 0.000950 -0.026919
v 0.029559 0.000921 -0.027433
v 0.029400 0.000909 -0.027645
v 0.029797 -0.019046 -0.026989
v 0.029684 -0.019033 -0.027226
v 0.029545 -0.019020 -0.027454
v 0.029351 -0.019005 -0.027701
v 0.027862 -0.018929 -0.028646
v -0.001105 -0.008762 -0.023862
v -0.001105 -0.009338 -0.023862
v -0.003754 -0.009148 -0.023034
v -0.003754 -0.008952 -0.023034
v 0.010756 -0.012909 -0.027379
v 0.010766 -0.012656 -0.027394
v 0.008849 -0.011572 -0.026865
v 0.012358 -0.011207 -0.027909
v 0.012358 -0.006893 -0.027909
v 0.012346 -0.007158 -0.027911
v 0.012625 -0.010561 -0.027998
v 0.010570 -0.009575 -0.027405
v 0.010570 -0.008525 -0.027405
v 0.012625 -0.007539 -0.027998
v -0.000933 -0.013197 -0.023824
v -0.003992 -0.013322 -0.022866
v 0.010972 -0.004587 -0.027406
v 0.007137 -0.004587 -0.026265
v 0.008849 -0.006528 -0.026865
v 0.010766 -0.005444 -0.027394
v 0.010538 -0.005117 -0.027310
v 0.007238 -0.005475 -0.026345
v 0.007550 -0.005132 -0.026422
v 0.027502 0.000813 -0.028753
v -0.006907 -0.001322 -0.021058
v -0.006907 -0.016778 -0.021058
v 0.029953 -0.019077 -0.026431
v 0.029981 -0.019092 -0.026169
v 0.027272 0.001679 -0.014060
v 0.037850 -0.002850 -0.020493
v 0.029904 0.000964 -0.026667
v 0.029960 0.000980 -0.026384
v 0.029984 0.000996 -0.026093
v 0.029976 0.001011 -0.025829
v 0.032309 -0.018214 -0.008338
v 0.029944 -0.019126 -0.025591
v 0.001971 -0.012856 0.007182
v 0.037850 -0.015250 -0.020493
v 0.018893 -0.009050 0.002056
v 0.003720 -0.012968 -0.025265
v 0.002912 -0.013250 -0.025003
v 0.002874 -0.012983 -0.025006
v 0.003597 -0.012738 -0.025239
v 0.027502 -0.018913 -0.028753
v 0.007137 -0.013513 -0.026265
v 0.010972 -0.013513 -0.027406
v 0.010704 -0.013417 -0.027334
v 0.010538 -0.012983 -0.027310
v 0.007550 -0.012968 -0.026422
v 0.007238 -0.012625 -0.026345
v 0.008509 -0.010942 -0.026779
v 0.005197 -0.011605 -0.025768
v 0.005017 -0.011572 -0.025714
v 0.005620 -0.011381 -0.025901
v 0.006997 -0.009691 -0.026341
v 0.007727 -0.009050 -0.026561
v 0.006997 -0.008409 -0.026341
v 0.008509 -0.007158 -0.026779
v -0.004987 -0.009050 -0.022645
v -0.004769 -0.012981 -0.022640
v -0.006849 -0.012507 -0.021586
v -0.005052 -0.009050 -0.022611
v 0.003307 -0.004587 -0.025107
v -0.000594 -0.004595 -0.023910
v 0.006741 -0.013251 -0.026163
v 0.006781 -0.012788 -0.026201
v 0.006741 -0.004849 -0.026163
v 0.003654 -0.004777 -0.025225
v 0.005620 -0.006719 -0.025901
v 0.005197 -0.006495 -0.025768
v 0.006781 -0.005312 -0.026201
v 0.024748 0.000330 -0.029570
v -0.004438 0.001809 -0.005447
v 0.029861 0.001046 -0.025262
v 0.030721 0.000736 -0.009516
v 0.025999 0.001636 -0.020589
v 0.026562 0.001668 -0.019077
v 0.026585 0.001670 -0.019002
v 0.026929 0.001692 -0.017730
v 0.001648 -0.009050 0.007670
v 0.028396 -0.000828 -0.004901
v 0.030527 -0.018898 -0.009698
v 0.029781 -0.019110 -0.010507
v 0.029861 -0.019146 -0.025261
v 0.026725 -0.019779 -0.018541
v 0.026585 -0.019770 -0.019002
v 0.026228 -0.019748 -0.020014
v -0.004438 -0.019909 -0.005447
v 0.023655 -0.018854 -0.029235
v 0.024930 -0.018546 -0.029439
v 0.023624 -0.018602 -0.029573
v 0.022528 -0.018760 -0.029109
v -0.000594 -0.013505 -0.023910
v 0.003307 -0.013513 -0.025107
v 0.003654 -0.013323 -0.025225
v 0.005194 -0.011070 -0.025780
v 0.005699 -0.010902 -0.025936
v -0.002454 -0.007031 -0.023425
v -0.002451 -0.006495 -0.023414
v -0.002030 -0.006719 -0.023551
v -0.001950 -0.007199 -0.023585
v 0.001606 -0.011546 -0.024673
v 0.001883 -0.011167 -0.024767
v 0.004689 -0.011207 -0.025623
v 0.004770 -0.010725 -0.025657
v 0.003780 -0.009430 -0.025368
v 0.003890 -0.009148 -0.025402
v 0.006481 -0.009050 -0.026187
v -0.006755 0.000201 -0.020277
v -0.006705 0.000333 -0.020151
v 0.003890 -0.008952 -0.025402
v 0.003780 -0.008670 -0.025368
v 0.004770 -0.007375 -0.025657
v 0.005699 -0.007198 -0.025936
v -0.004414 -0.004596 -0.022724
v -0.004433 -0.004526 -0.022699
v -0.006906 -0.001647 -0.021149
v -0.006853 -0.000263 -0.020611
v -0.006776 0.000131 -0.020338
v 0.002912 -0.004850 -0.025003
v -0.000171 -0.004777 -0.024052
v -0.000324 -0.004636 -0.023996
v -0.004145 -0.004637 -0.022810
v 0.003720 -0.005132 -0.025265
v 0.003467 -0.004948 -0.025178
v 0.001883 -0.006933 -0.024767
v 0.001606 -0.006554 -0.024673
v 0.003597 -0.005362 -0.025239
v -0.006896 -0.000820 -0.020881
v -0.006896 -0.017280 -0.020881
v -0.005453 0.001777 -0.003521
v -0.005317 0.001784 -0.003856
v -0.004600 0.001806 -0.005196
v -0.004803 0.001801 -0.004863
v -0.001438 0.001815 -0.005478
v 0.022187 0.001781 -0.016826
v 0.022560 0.001755 -0.018247
v 0.022818 0.001722 -0.019741
v 0.022971 0.001686 -0.021303
v 0.023024 0.001651 -0.022736
v 0.028700 -0.001653 -0.004128
v 0.013261 -0.005246 0.003658
v 0.018644 -0.003785 0.001281
v 0.013135 -0.003758 0.003225
v 0.007646 -0.005239 0.005481
v -0.006853 -0.017837 -0.020611
v -0.006880 -0.017575 -0.020751
v 0.029970 0.000960 -0.010282
v 0.023199 0.001491 -0.008733
v 0.022457 -0.018318 -0.029557
v 0.012965 -0.002514 0.002641
v 0.018459 -0.002545 0.000710
v 0.007531 -0.003747 0.005041
v 0.007377 -0.002501 0.004447
v 0.023199 -0.019591 -0.008733
v 0.027013 -0.019629 -0.010996
v 0.000863 -0.006893 -0.024452
v 0.000944 -0.007375 -0.024486
v 0.022792 -0.019827 -0.019549
v 0.022957 -0.019791 -0.021101
v -0.000723 -0.019915 -0.005500
v -0.004803 -0.019901 -0.004863
v -0.004600 -0.019906 -0.005196
v 0.021014 -0.019903 -0.014119
v -0.005317 -0.019884 -0.003856
v -0.005453 -0.019877 -0.003521
v 0.019017 -0.019612 -0.007073
v 0.021811 -0.019591 -0.008102
v -0.006705 -0.018433 -0.020151
v -0.006880 -0.000525 -0.020751
v -0.005092 0.001313 -0.000053
v -0.006906 -0.016453 -0.021149
v -0.004605 -0.013415 -0.022669
v -0.004145 -0.013463 -0.022810
v -0.000171 -0.013323 -0.024052
v -0.000324 -0.013464 -0.023996
v 0.003467 -0.013152 -0.025178
v 0.003103 -0.012656 -0.025092
v 0.002874 -0.005117 -0.025007
v 0.001191 -0.011572 -0.024545
v 0.000863 -0.011207 -0.024452
v 0.000944 -0.010725 -0.024486
v 0.001365 -0.010502 -0.024619
v 0.003275 -0.009701 -0.025213
v -0.000269 -0.009631 -0.024121
v 0.002653 -0.009050 -0.025024
v -0.000269 -0.008469 -0.024121
v 0.003275 -0.008399 -0.025213
v 0.001365 -0.007598 -0.024619
v -0.004605 -0.004685 -0.022669
v -0.006900 -0.002175 -0.021266
v -0.006902 -0.003206 -0.021232
v -0.004923 -0.009338 -0.022665
v -0.004923 -0.008762 -0.022665
v -0.000097 -0.013116 -0.024087
v 0.000072 -0.009050 -0.024228
v -0.000933 -0.004903 -0.023824
v -0.003992 -0.004778 -0.022866
v 0.001191 -0.006528 -0.024545
v -0.000417 -0.005476 -0.024012
v 0.003103 -0.005444 -0.025092
v -0.000228 -0.005362 -0.024065
v -0.005552 0.001670 -0.003250
v -0.004620 0.001161 0.001183
v -0.003851 0.001775 -0.003570
v 0.001809 0.001810 -0.005640
v 0.023802 -0.002597 -0.001333
v 0.029166 -0.003894 -0.002943
v 0.029320 -0.005353 -0.002551
v 0.021811 0.001491 -0.008102
v -0.000097 -0.004984 -0.024087
v 0.020339 -0.019901 -0.013074
v -0.005552 -0.019770 -0.003250
v -0.006755 -0.018301 -0.020277
v -0.006776 -0.018231 -0.020338
v -0.006882 -0.003189 -0.021418
v -0.000732 -0.005191 -0.023901
v -0.000872 -0.012788 -0.023864
v -0.002456 -0.010502 -0.023433
v -0.000916 -0.009575 -0.023921
v -0.000916 -0.008525 -0.023921
v -0.002456 -0.007598 -0.023433
v -0.002059 -0.007407 -0.023555
v -0.004753 -0.013196 -0.022635
v -0.006875 -0.014548 -0.021457
v -0.000872 -0.005312 -0.023864
v -0.004921 -0.000650 0.000436
v 0.004905 0.001710 -0.004219
v -0.000546 0.001759 -0.003735
v 0.004569 0.001799 -0.005907
v 0.024001 -0.003831 -0.000781
v 0.028958 -0.002668 -0.003472
v 0.016216 0.001767 -0.009390
v -0.004753 -0.004904 -0.022635
v -0.006875 -0.003552 -0.021457
v 0.011582 0.000847 -0.002116
v -0.002969 -0.010941 -0.023266
v -0.002969 -0.007159 -0.023266
v -0.002850 -0.006687 -0.023294
v 0.005239 -0.019895 -0.005993
v 0.003420 -0.019904 -0.005779
v -0.000546 -0.019859 -0.003735
v 0.004905 -0.019810 -0.004219
v -0.006849 -0.005593 -0.021586
v -0.004692 -0.012787 -0.022674
v -0.004552 -0.012908 -0.022712
v -0.004541 -0.012655 -0.022726
v -0.002850 -0.011413 -0.023294
v -0.004367 -0.009701 -0.022840
v -0.004367 -0.008399 -0.022840
v -0.004769 -0.005119 -0.022640
v 0.007159 0.001785 -0.006292
v 0.011179 0.001765 -0.007238
v 0.009252 0.001774 -0.006723
v 0.002027 0.000959 0.000433
v 0.006125 0.000861 -0.000378
v 0.002027 -0.019059 0.000433
v 0.010017 -0.019870 -0.006912
v 0.008548 -0.019877 -0.006564
v 0.006088 -0.019891 -0.006115
v -0.006835 -0.009050 -0.021640
v -0.004474 -0.009691 -0.022806
v -0.004474 -0.008409 -0.022806
v -0.001057 0.000792 0.002053
v -0.001057 -0.018892 0.002053
v 0.000423 -0.004069 0.006969
v 0.000392 -0.014093 0.006949
v 0.000623 -0.004522 0.007093
v 0.000963 -0.005505 0.007295
v 0.001412 -0.008890 0.007546
v 0.001413 -0.009050 0.007546
v 0.001197 -0.012755 0.007428
vn 0.0301 -0.9964 0.0788
vn 0.0374 -0.9968 0.0706
vn 0.0402 -0.9956 0.0848
vn 0.0328 -0.9978 0.0580
vn 0.0281 -0.9984 0.0493
vn 0.0263 -0.9990 0.0354
vn 0.0166 -0.9999 -0.0047
vn 0.0159 -0.9998 -0.0129
vn 0.0162 -0.9998 -0.0107
vn 0.0164 -0.9999 -0.0035
vn 0.0184 -0.9975 -0.0683
vn 0.0309 -0.9980 -0.0549
vn 0.0286 -0.9984 -0.0490
vn 0.0274 -0.9988 -0.0394
vn 0.0264 -0.9991 -0.0343
vn 0.0274 -0.9991 -0.0334
vn -0.2633 -0.0372 -0.9640
vn -0.2607 -0.0531 -0.9639
vn -0.2701 -0.0618 -0.9608
vn -0.2593 -0.1138 -0.9591
vn -0.2729 -0.1293 -0.9533
vn -0.2571 -0.2131 -0.9426
vn -0.2710 -0.2379 -0.9327
vn -0.2430 -0.3415 -0.9079
vn -0.2557 -0.3721 -0.8923
vn -0.2198 -0.4985 -0.8386
vn -0.2225 -0.5067 -0.8329
vn -0.0614 -0.9222 -0.3819
vn -0.0697 -0.9422 -0.3278
vn -0.0339 -0.9624 -0.2696
vn -0.0243 -0.9730 -0.2296
vn -0.0071 -0.9813 -0.1924
vn -0.0107 -0.9869 -0.1611
vn 0.0017 -0.9899 -0.1420
vn 0.0200 -0.9965 -0.0813
vn 0.0206 -0.9995 0.0257
vn 0.0248 -0.9980 0.0580
vn 0.0267 -0.9979 0.0592
vn 0.0278 -0.9978 0.0602
vn 0.0270 -0.9981 0.0555
vn 0.0220 -0.9991 0.0371
vn 0.0203 -0.9994 0.0296
vn 0.0224 -0.9980 0.0590
vn 0.0234 -0.9980 0.0580
vn 0.0050 -0.9995 0.0306
vn 0.0335 -0.9962 0.0809
vn -0.0405 0.9971 -0.0649
vn -0.0549 0.9921 -0.1126
vn -0.0590 0.9889 -0.1361
vn -0.0667 0.9853 -0.1570
vn -0.1177 0.9328 -0.3406
vn -0.1114 0.9453 -0.3067
vn -0.0808 0.9771 -0.1969
vn -0.1677 0.8487 -0.5016
vn -0.1441 0.8960 -0.4199
vn -0.2990 0.0446 -0.9532
vn -0.2979 0.0410 -0.9537
vn -0.2854 0.0162 -0.9583
vn -0.2895 0.0229 -0.9569
vn -0.3070 -0.2467 -0.9192
vn -0.2988 -0.0206 -0.9541
vn -0.2985 -0.0150 -0.9543
vn -0.2990 -0.0446 -0.9532
vn -0.2854 -0.0162 -0.9583
vn -0.2957 -0.0437 -0.9543
vn -0.0808 -0.9771 -0.1969
vn -0.1114 -0.9453 -0.3067
vn -0.1177 -0.9328 -0.3406
vn -0.1441 -0.8960 -0.4199
vn -0.1677 -0.8487 -0.5015
vn -0.0667 -0.9853 -0.1570
vn -0.0590 -0.9889 -0.1361
vn -0.0548 -0.9921 -0.1126
vn -0.0405 -0.9971 -0.0649
vn 0.0242 0.9980 0.0576
vn 0.0203 0.9994 0.0291
vn 0.0210 0.9995 0.0225
vn 0.0179 0.9998 0.0031
vn 0.0178 0.9998 0.0033
vn 0.0160 0.9998 -0.0069
vn 0.0273 0.9991 -0.0332
vn 0.0279 0.9990 -0.0341
vn 0.0281 0.9988 -0.0410
vn 0.0273 0.9986 -0.0455
vn 0.0126 0.9963 -0.0855
vn 0.0151 0.9939 -0.1095
vn -0.0138 0.9738 -0.2271
vn -0.0116 0.9692 -0.2462
vn -0.0662 0.9193 -0.3879
vn -0.0540 0.9520 -0.3013
vn -0.2722 0.2589 -0.9267
vn -0.2278 0.4549 -0.8609
vn -0.2210 0.4673 -0.8560
vn -0.2273 0.5635 -0.7942
vn -0.1798 0.6376 -0.7491
vn -0.1791 0.7373 -0.6514
vn -0.1222 0.8005 -0.5868
vn -0.2592 0.0951 -0.9611
vn -0.2760 0.0670 -0.9588
vn -0.2625 0.0513 -0.9636
vn 0.0221 0.9990 0.0377
vn 0.0288 0.9984 0.0490
vn 0.0304 0.9982 0.0514
vn 0.0402 0.9956 0.0848
vn 0.0400 0.9960 0.0804
vn 0.0397 0.9961 0.0791
vn 0.0374 0.9968 0.0706
vn 0.0301 0.9964 0.0788
vn 0.0335 0.9962 0.0809
vn 0.0345 0.9963 0.0792
vn 0.0371 0.9958 0.0839
vn -0.9939 0.0012 -0.1102
vn 0.1623 -0.9057 0.3916
vn 0.1801 -0.8676 0.4635
vn 0.2112 -0.8299 0.5164
vn 0.2160 -0.8095 0.5459
vn 0.2341 -0.7691 0.5947
vn 0.2579 -0.7198 0.6445
vn 0.2578 -0.7211 0.6431
vn 0.1745 -0.8395 0.5146
vn 0.1931 -0.8124 0.5502
vn 0.1432 -0.8993 0.4133
vn 0.1687 -0.8662 0.4703
vn 0.4463 -0.0083 0.8949
vn 0.4376 -0.1169 0.8915
vn 0.4287 -0.1466 0.8915
vn 0.4313 -0.1763 0.8848
vn 0.4283 -0.2166 0.8773
vn 0.4172 -0.2694 0.8680
vn 0.4176 -0.2721 0.8669
vn 0.4092 -0.3677 0.8351
vn 0.3896 -0.4095 0.8249
vn 0.3891 -0.4465 0.8058
vn 0.3765 -0.5055 0.7764
vn 0.3509 -0.5568 0.7528
vn 0.3540 -0.5958 0.7209
vn 0.2890 -0.8922 0.3471
vn 0.2645 -0.7970 0.5430
vn 0.3207 -0.6641 0.6753
vn 0.1503 -0.9344 0.3230
vn 0.1412 -0.9211 0.3627
vn 0.0948 -0.9561 0.2773
vn 0.0559 -0.9765 0.2083
vn 0.1037 -0.9264 0.3621
vn 0.1169 -0.9131 0.3906
vn 0.1223 -0.8877 0.4438
vn 0.1540 -0.8403 0.5198
vn 0.1539 -0.8203 0.5508
vn 0.2370 -0.5033 0.8310
vn 0.2252 -0.6094 0.7602
vn 0.2102 -0.6407 0.7385
vn 0.1853 -0.7444 0.6415
vn 0.2592 -0.3350 0.9058
vn 0.2547 -0.4496 0.8562
vn 0.2593 -0.0879 0.9618
vn 0.0871 -0.9568 0.2772
vn 0.3580 -0.1535 0.9210
vn 0.3573 -0.1556 0.9209
vn 0.3477 -0.2826 0.8940
vn 0.3463 -0.2866 0.8933
vn 0.3277 -0.4291 0.8418
vn 0.3253 -0.4349 0.8397
vn 0.2956 -0.5809 0.7584
vn 0.2921 -0.5879 0.7544
vn 0.2761 -0.6470 0.7107
vn 0.2529 -0.6860 0.6822
vn 0.4128 -0.1467 0.8989
vn 0.4115 -0.1503 0.8989
vn 0.4022 -0.2696 0.8750
vn 0.3996 -0.2766 0.8740
vn 0.3813 -0.4096 0.8287
vn 0.3769 -0.4201 0.8255
vn 0.3476 -0.5569 0.7543
vn 0.3409 -0.5701 0.7475
vn 0.2924 -0.7090 0.6417
vn 0.3858 -0.1505 0.9102
vn 0.3848 -0.1533 0.9102
vn 0.3752 -0.2769 0.8846
vn 0.3732 -0.2823 0.8837
vn 0.3546 -0.4205 0.8351
vn 0.3512 -0.4287 0.8324
vn 0.3214 -0.5705 0.7558
vn 0.3163 -0.5805 0.7503
vn 0.2763 -0.7094 0.6484
vn 0.2697 -0.7195 0.6400
vn 0.2244 -0.8213 0.5246
vn 0.2170 -0.8297 0.5142
vn 0.1726 -0.8997 0.4010
vn 0.1653 -0.9057 0.3905
vn 0.1267 -0.9483 0.2910
vn 0.3062 -0.0472 0.9508
vn 0.3307 -0.1558 0.9308
vn 0.3302 -0.1572 0.9307
vn 0.3207 -0.2869 0.9027
vn 0.3198 -0.2895 0.9022
vn 0.3015 -0.4353 0.8483
vn 0.3001 -0.4389 0.8469
vn 0.2710 -0.5883 0.7618
vn 0.2690 -0.5925 0.7593
vn 0.2501 -0.6646 0.7041
vn 0.1949 -0.7335 0.6511
vn 0.1955 -0.7326 0.6520
vn 0.0953 -0.9441 0.3157
vn 0.0904 -0.9568 0.2763
vn 0.0916 -0.9561 0.2783
vn 0.1262 -0.9134 0.3870
vn 0.1272 -0.9125 0.3888
vn 0.1674 -0.8408 0.5148
vn 0.1684 -0.8396 0.5164
vn 0.2100 -0.7332 0.6468
vn 0.2109 -0.7317 0.6482
vn 0.2481 -0.5947 0.7647
vn 0.2489 -0.5930 0.7658
vn 0.2770 -0.4410 0.8537
vn 0.2777 -0.4393 0.8543
vn 0.2954 -0.2911 0.9099
vn 0.2959 -0.2898 0.9102
vn 0.3051 -0.1582 0.9391
vn 0.3054 -0.1574 0.9391
vn 0.3087 -0.0534 0.9497
vn 0.2538 0.3860 0.8869
vn 0.2502 0.6645 0.7042
vn 0.2529 0.6860 0.6822
vn 0.2761 0.6470 0.7107
vn 0.1554 0.8845 0.4399
vn 0.1423 0.9002 0.4116
vn 0.1302 0.9125 0.3879
vn 0.1266 0.9292 0.3472
vn 0.1168 0.9520 0.2830
vn 0.1412 0.9211 0.3627
vn 0.1623 0.9057 0.3916
vn 0.1801 0.8676 0.4634
vn 0.2112 0.8299 0.5164
vn 0.2160 0.8096 0.5458
vn 0.2341 0.7692 0.5946
vn 0.2945 0.8937 0.3386
vn 0.3564 0.5776 0.7344
vn 0.3254 0.6583 0.6788
vn 0.3786 0.4963 0.7813
vn 0.4217 0.2582 0.8692
vn 0.4368 0.1116 0.8926
vn 0.2617 0.2576 0.9301
vn 0.2782 0.1692 0.9455
vn 0.2547 0.4496 0.8562
vn 0.2370 0.5033 0.8310
vn 0.1989 0.6865 0.6994
vn 0.2102 0.6407 0.7385
vn 0.2252 0.6094 0.7602
vn 0.1037 0.9264 0.3621
vn 0.3614 0.0555 0.9307
vn 0.2980 0.7112 0.6367
vn 0.2690 0.7958 0.5425
vn 0.1791 0.8996 0.3984
vn 0.1649 0.9220 0.3504
vn 0.1304 0.9482 0.2895
vn 0.1258 0.9547 0.2696
vn 0.4461 0.0304 0.8945
vn 0.4163 0.0440 0.9082
vn 0.4159 0.0427 0.9084
vn 0.3893 0.0472 0.9199
vn 0.3888 0.0457 0.9202
vn 0.3662 0.0458 0.9294
vn 0.1175 0.9131 0.3905
vn 0.1169 0.9131 0.3906
vn 0.1223 0.8877 0.4438
vn 0.1557 0.8411 0.5180
vn 0.1558 0.8402 0.5194
vn 0.1853 0.7444 0.6415
vn 0.2593 0.0879 0.9618
vn 0.1943 0.7326 0.6523
vn 0.1952 0.7326 0.6521
vn 0.1952 0.7335 0.6510
vn 0.2220 0.7314 0.6448
vn 0.2199 0.7516 0.6219
vn 0.0559 0.9765 0.2083
vn 0.0890 0.9460 0.3117
vn 0.0953 0.9441 0.3157
vn 0.1174 0.9136 0.3894
vn 0.1772 0.8394 0.5138
vn 0.1812 0.8353 0.5191
vn 0.3896 0.4095 0.8249
vn 0.3904 0.4397 0.8088
vn 0.4290 0.1466 0.8913
vn 0.4333 0.1737 0.8844
vn 0.4166 0.2694 0.8683
vn 0.4118 0.3563 0.8387
vn 0.3535 0.5568 0.7517
vn 0.2272 0.5596 0.7970
vn 0.3062 0.0472 0.9508
vn 0.2592 0.3351 0.9058
vn 0.3087 0.0534 0.9497
vn -0.6525 0.0057 0.7578
vn -0.6826 0.0386 0.7298
vn -0.7474 0.0125 0.6643
vn -0.7900 0.0021 0.6131
vn -0.9660 0.0018 0.2587
vn -0.9827 0.0064 0.1852
vn -0.5968 -0.0000 0.8024
vn -0.6540 -0.0030 0.7565
vn -0.5967 -0.0000 0.8025
vn -0.5783 -0.0022 0.8158
vn -0.6826 -0.0386 0.7298
vn -0.7474 -0.0125 0.6643
vn -0.7900 -0.0021 0.6131
vn -0.9827 -0.0064 0.1852
vn -0.9678 -0.0030 0.2518
vn -0.9339 -0.0079 0.3576
vn 0.9241 -0.0000 -0.3822
vn 0.4795 0.0089 -0.8775
vn 0.1231 -0.9566 0.2640
vn 0.1299 -0.9483 0.2897
vn 0.4859 -0.0049 -0.8740
vn 0.4751 -0.0117 -0.8799
vn 0.1177 -0.9131 0.3904
vn 0.1171 -0.9136 0.3894
vn -0.2545 0.1921 -0.9478
vn -0.2565 0.1881 -0.9481
vn -0.2635 0.0312 -0.9641
vn 0.4591 0.0273 -0.8880
vn 0.0616 0.9734 -0.2207
vn 0.0652 0.9772 -0.2021
vn 0.4842 -0.0000 -0.8750
vn 0.4657 0.0207 -0.8847
vn 0.3580 0.1535 0.9210
vn 0.3573 0.1556 0.9209
vn 0.5318 0.1454 -0.8343
vn 0.5935 0.4558 -0.6634
vn 0.5944 -0.4530 -0.6644
vn 0.5570 -0.2443 -0.7938
vn 0.4842 -0.0000 -0.8749
vn 0.0643 -0.9776 -0.2006
vn 0.0642 -0.9775 -0.2011
vn 0.0622 -0.9731 -0.2218
vn 0.4656 -0.0211 -0.8847
vn 0.4383 -0.0470 -0.8976
vn -0.2820 -0.0371 -0.9587
vn -0.2821 -0.0323 -0.9588
vn -0.2812 -0.0228 -0.9594
vn -0.2800 -0.0147 -0.9599
vn -0.2798 -0.0138 -0.9600
vn -0.2806 -0.0084 -0.9598
vn -0.2809 -0.0037 -0.9597
vn -0.2809 0.0037 -0.9597
vn -0.2806 0.0085 -0.9598
vn 0.2582 0.7198 0.6444
vn 0.2572 0.7214 0.6430
vn -0.2808 0.0234 -0.9595
vn -0.2806 0.0217 -0.9596
vn -0.2819 0.0326 -0.9589
vn -0.2822 0.0471 -0.9582
vn -0.2821 0.0560 -0.9577
vn -0.2820 0.0580 -0.9577
vn -0.2815 0.0670 -0.9572
vn 0.4403 0.0455 -0.8967
vn 0.0560 0.9674 -0.2469
vn 0.4058 0.0859 -0.9099
vn 0.3903 0.1091 -0.9142
vn 0.0698 0.9845 -0.1607
vn 0.0688 0.9824 -0.1736
vn 0.0542 0.9658 -0.2534
vn 0.0787 0.9922 -0.0970
vn 0.0787 0.9922 -0.0964
vn 0.6668 -0.0000 -0.7453
vn 0.5936 0.4639 -0.6576
vn 0.5816 0.6596 -0.4761
vn 0.5507 0.7678 -0.3273
vn 0.5227 0.8247 -0.2162
vn 0.0735 0.9876 -0.1388
vn 0.5224 -0.8249 -0.2160
vn 0.5454 -0.7817 -0.3025
vn 0.5650 -0.7287 -0.3870
vn 0.5844 -0.6424 -0.4957
vn 0.5950 -0.5113 -0.6201
vn 0.0739 -0.9883 -0.1331
vn 0.0714 -0.9859 -0.1516
vn 0.0704 -0.9840 -0.1634
vn 0.0544 -0.9587 -0.2791
vn 0.0586 -0.9657 -0.2528
vn 0.3906 -0.1051 -0.9145
vn 0.3920 -0.1036 -0.9141
vn -0.2985 -0.0000 -0.9544
vn -0.2822 -0.0472 -0.9582
vn -0.2835 -0.0341 -0.9584
vn -0.2825 -0.0316 -0.9588
vn -0.2825 -0.0239 -0.9590
vn -0.2829 -0.0276 -0.9587
vn -0.2768 -0.0191 -0.9607
vn -0.2827 0.0193 -0.9590
vn -0.2827 0.0172 -0.9590
vn -0.2823 -0.0135 -0.9592
vn -0.2793 -0.0160 -0.9601
vn -0.2799 -0.0063 -0.9600
vn -0.2841 -0.0082 -0.9588
vn 0.2029 -0.8155 0.5421
vn 0.2049 -0.8127 0.5455
vn -0.2823 -0.0118 -0.9592
vn -0.2818 0.0026 -0.9595
vn -0.2841 0.0082 -0.9588
vn -0.2823 0.0118 -0.9592
vn -0.2798 0.0062 -0.9600
vn -0.2792 0.0160 -0.9601
vn -0.2793 0.0159 -0.9601
vn -0.2966 -0.0490 -0.9537
vn -0.2969 -0.0469 -0.9538
vn -0.2840 0.0941 -0.9542
vn -0.2862 0.1359 -0.9485
vn 0.2051 0.8127 0.5455
vn 0.1871 0.8372 0.5140
vn -0.2802 0.0224 -0.9597
vn -0.2829 0.0276 -0.9587
vn -0.2825 0.0239 -0.9590
vn -0.2825 0.0316 -0.9588
vn -0.2835 0.0341 -0.9584
vn -0.2822 0.0472 -0.9582
vn -0.2811 0.0561 -0.9580
vn -0.2849 0.0470 -0.9574
vn -0.2848 0.0459 -0.9575
vn -0.2849 0.0445 -0.9575
vn -0.2824 0.0633 -0.9572
vn -0.2847 0.0576 -0.9569
vn -0.2850 0.0596 -0.9567
vn -0.2845 0.0700 -0.9561
vn 0.0513 0.9471 -0.3168
vn 0.3786 0.1253 -0.9171
vn 0.3401 0.1792 -0.9232
vn 0.2685 0.3028 -0.9144
vn 0.2552 0.3324 -0.9079
vn -0.8295 -0.0000 0.5585
vn 0.0424 0.9069 -0.4192
vn -0.9979 -0.0000 0.0649
vn -0.0508 0.9891 -0.1383
vn -0.0542 0.9870 -0.1516
vn -0.0743 0.9728 -0.2193
vn 0.0821 -0.9945 -0.0649
vn 0.0847 -0.9949 -0.0556
vn 0.0203 0.9996 0.0188
vn 0.0187 0.9997 0.0125
vn -0.0298 0.9970 -0.0715
vn 0.9720 0.2284 0.0551
vn 0.9812 0.1875 0.0458
vn 0.9912 0.1291 0.0296
vn 0.1389 -0.9206 0.3649
vn 0.1519 -0.9016 0.4050
vn 0.5208 0.8272 -0.2112
vn 0.4955 0.8561 -0.1466
vn 0.4720 0.8772 -0.0879
vn 0.4519 0.8913 -0.0378
vn 0.4418 -0.8970 -0.0131
vn 0.4372 -0.8992 -0.0155
vn 0.4683 0.8836 -0.0000
vn 0.5298 0.8477 0.0265
vn 0.5423 0.8396 0.0308
vn 0.2830 -0.1671 0.9445
vn 0.2852 -0.1584 0.9453
vn 0.0024 0.9984 -0.0563
vn -0.1068 -0.9407 -0.3221
vn -0.1121 -0.9329 -0.3421
vn 0.9999 -0.0141 -0.0095
vn 0.9965 -0.0817 0.0158
vn 0.9795 -0.1956 0.0485
vn 0.9723 -0.2273 0.0551
vn 0.5427 -0.8393 0.0308
vn 0.5274 -0.8492 0.0255
vn 0.4682 -0.8836 -0.0000
vn -0.2731 0.1363 -0.9523
vn -0.2732 0.1362 -0.9523
vn 0.4458 -0.8948 -0.0239
vn 0.4769 -0.8733 -0.0998
vn 0.5122 -0.8374 -0.1907
vn 0.0792 0.9940 -0.0756
vn 0.0810 0.9942 -0.0711
vn 0.0134 -0.9943 -0.1057
vn 0.0141 -0.9939 -0.1095
vn -0.0082 -0.9986 -0.0517
vn 0.3343 -0.0362 0.9418
vn 0.3314 -0.0465 0.9423
vn -0.2912 -0.0538 -0.9551
vn -0.2914 -0.0485 -0.9554
vn -0.1119 0.9329 -0.3422
vn -0.0995 0.9504 -0.2946
vn -0.0555 -0.9862 -0.1560
vn -0.0754 -0.9719 -0.2229
vn 0.0430 -0.9191 -0.3917
vn 0.0516 -0.9469 -0.3175
vn 0.2561 -0.3262 -0.9100
vn 0.2550 -0.3289 -0.9093
vn 0.3271 -0.2000 -0.9236
vn -0.0509 -0.9891 -0.1382
vn -0.0389 -0.9942 -0.1007
vn -0.2853 -0.1291 -0.9497
vn -0.2840 -0.0935 -0.9543
vn -0.2817 -0.0610 -0.9576
vn -0.2811 -0.0561 -0.9580
vn -0.2845 -0.0699 -0.9561
vn -0.2850 -0.0596 -0.9567
vn -0.2847 -0.0576 -0.9569
vn -0.2849 -0.0444 -0.9575
vn -0.2848 -0.0458 -0.9575
vn -0.2849 -0.0471 -0.9574
vn -0.2849 -0.0369 -0.9578
vn -0.2862 -0.0224 -0.9579
vn -0.2874 -0.0328 -0.9572
vn -0.2877 -0.0131 -0.9576
vn -0.2876 -0.0317 -0.9572
vn -0.2872 -0.0231 -0.9576
vn -0.2848 -0.0162 -0.9585
vn -0.2877 -0.0125 -0.9577
vn -0.2853 -0.0060 -0.9584
vn -0.2853 -0.0049 -0.9584
vn -0.2845 -0.0000 -0.9587
vn -0.2853 0.0049 -0.9584
vn -0.2853 0.0060 -0.9584
vn -0.2848 0.0162 -0.9585
vn -0.2877 0.0125 -0.9576
vn -0.0044 0.9886 -0.1506
vn -0.0100 0.9876 -0.1566
vn -0.2823 0.0136 -0.9592
vn -0.4569 -0.0264 -0.8891
vn -0.4711 -0.0166 -0.8819
vn -0.2866 0.1402 -0.9477
vn -0.2891 0.1731 -0.9415
vn -0.2897 0.1873 -0.9386
vn -0.2877 -0.0527 -0.9563
vn -0.2856 -0.0592 -0.9565
vn -0.2888 0.0646 -0.9552
vn -0.2889 0.0653 -0.9551
vn -0.2862 0.0224 -0.9579
vn -0.2872 0.0230 -0.9576
vn -0.2876 0.0318 -0.9572
vn -0.2877 0.0129 -0.9576
vn -0.2874 0.0328 -0.9572
vn -0.2849 0.0369 -0.9578
vn -0.2928 0.0448 -0.9551
vn -0.2900 0.0381 -0.9563
vn -0.2867 0.0477 -0.9568
vn 0.1134 0.6395 -0.7604
vn 0.0600 0.7971 -0.6009
vn 0.1905 0.4574 -0.8686
vn 0.1209 0.6209 -0.7745
vn 0.1266 -0.9292 0.3472
vn 0.1302 -0.9125 0.3879
vn -0.1527 0.8657 -0.4766
vn -0.1239 0.9171 -0.3789
vn -0.0238 0.9987 -0.0454
vn -0.0221 0.9988 -0.0430
vn -0.0333 0.9982 -0.0489
vn 0.8501 0.5176 0.0970
vn 0.9109 0.4029 0.0886
vn 0.9564 0.2836 0.0690
vn 0.5911 0.8051 0.0491
vn 0.6330 0.7716 0.0626
vn 0.6938 0.7157 0.0798
vn 0.7519 0.6531 0.0897
vn 0.7911 0.6044 0.0946
vn 0.0790 -0.9926 -0.0919
vn 0.0788 -0.9925 -0.0930
vn 0.4363 0.0398 0.8989
vn 0.0111 0.9983 -0.0575
vn -0.0651 0.8685 -0.4913
vn -0.1132 0.9079 -0.4035
vn 0.2981 0.9545 0.0025
vn 0.3112 0.9503 0.0018
vn 0.3388 0.9409 0.0003
vn 0.3984 0.9172 -0.0059
vn 0.0850 0.9949 -0.0541
vn 0.0864 0.9948 -0.0531
vn 0.0929 0.9944 -0.0498
vn 0.1028 0.9937 -0.0448
vn 0.1312 0.9908 -0.0339
vn 0.1338 0.9905 -0.0330
vn 0.1875 0.8916 0.4123
vn 0.2060 0.8714 0.4452
vn 0.2258 0.8402 0.4930
vn -0.6880 -0.0000 0.7257
vn 0.4363 -0.0422 0.8988
vn 0.2923 -0.0279 0.9559
vn 0.2861 -0.0473 0.9570
vn 0.9551 -0.2882 0.0691
vn 0.9348 -0.3460 0.0795
vn 0.9021 -0.4221 0.0904
vn 0.8423 -0.5302 0.0973
vn 0.7864 -0.6106 0.0940
vn 0.7455 -0.6606 0.0889
vn 0.6819 -0.7274 0.0769
vn 0.6276 -0.7761 0.0608
vn 0.5886 -0.8070 0.0484
vn 0.2989 -0.7162 0.6306
vn 0.2523 0.7992 0.5456
vn 0.2354 0.8210 0.5201
vn 0.2258 -0.8402 0.4930
vn 0.2060 -0.8714 0.4453
vn 0.1848 -0.8943 0.4075
vn 0.4127 -0.9108 -0.0084
vn 0.3774 -0.9261 -0.0035
vn 0.3345 -0.9424 0.0007
vn 0.3042 -0.9526 0.0025
vn 0.2697 -0.9629 0.0039
vn 0.2505 -0.9681 0.0037
vn 0.2686 -0.9632 0.0086
vn 0.1695 -0.9853 -0.0209
vn 0.1403 -0.9896 -0.0306
vn 0.1127 -0.9928 -0.0405
vn 0.0961 -0.9942 -0.0482
vn 0.0883 -0.9947 -0.0523
vn 0.0879 -0.9947 -0.0525
vn 0.0851 -0.9949 -0.0542
vn 0.0844 0.9948 -0.0565
vn 0.0839 0.9947 -0.0593
vn -0.0284 -0.9975 -0.0648
vn -0.0333 -0.9982 -0.0489
vn -0.0237 -0.9987 -0.0453
vn -0.2827 -0.0172 -0.9590
vn -0.2827 -0.0193 -0.9590
vn 0.0505 -0.8599 -0.5080
vn 0.1007 -0.6698 -0.7357
vn 0.1756 -0.4898 -0.8540
vn 0.0630 -0.7970 -0.6007
vn 0.1044 -0.6597 -0.7442
vn -0.1597 -0.8514 -0.4996
vn -0.2912 -0.2373 -0.9268
vn -0.2911 -0.2299 -0.9287
vn -0.2905 -0.2034 -0.9350
vn -0.2891 -0.1732 -0.9415
vn -0.2866 -0.1408 -0.9477
vn -0.2889 -0.0653 -0.9551
vn -0.2888 -0.0646 -0.9552
vn 0.0752 -0.9900 -0.1191
vn 0.0769 -0.9909 -0.1109
vn -0.2867 -0.0477 -0.9568
vn -0.2900 -0.0380 -0.9563
vn -0.2928 -0.0447 -0.9551
vn -0.2878 -0.0188 -0.9575
vn -0.2876 -0.0250 -0.9574
vn -0.2875 -0.0123 -0.9577
vn -0.2988 0.0206 -0.9541
vn -0.2974 0.0185 -0.9546
vn -0.2903 -0.0226 -0.9567
vn -0.2894 -0.0371 -0.9565
vn -0.2920 -0.0336 -0.9558
vn -0.2920 -0.0239 -0.9561
vn -0.2921 -0.0254 -0.9560
vn -0.2889 -0.0106 -0.9573
vn -0.2901 -0.0079 -0.9570
vn -0.2897 -0.0027 -0.9571
vn -0.2899 -0.0042 -0.9570
vn -0.2111 0.7170 -0.6643
vn -0.2059 0.7354 -0.6456
vn -0.2899 0.0042 -0.9570
vn -0.2897 0.0027 -0.9571
vn -0.2901 0.0079 -0.9570
vn -0.2889 0.0106 -0.9573
vn -0.2875 0.0123 -0.9577
vn -0.2876 0.0251 -0.9574
vn -0.2878 0.0188 -0.9575
vn -0.2905 0.2024 -0.9352
vn -0.2918 0.2519 -0.9227
vn -0.2918 0.2467 -0.9241
vn -0.2454 0.5848 -0.7732
vn -0.2496 0.5621 -0.7885
vn -0.2913 0.0607 -0.9547
vn -0.2927 0.0631 -0.9541
vn -0.2926 0.0606 -0.9543
vn -0.2926 0.0724 -0.9535
vn -0.2949 0.0580 -0.9538
vn -0.2961 0.0551 -0.9536
vn -0.2960 0.0669 -0.9528
vn 0.1713 -0.9114 0.3741
vn 0.1790 -0.8996 0.3984
vn -0.2892 0.0554 -0.9557
vn -0.2892 0.0551 -0.9557
vn -0.2910 0.0572 -0.9550
vn -0.2903 0.0226 -0.9567
vn -0.2921 0.0255 -0.9560
vn -0.2920 0.0239 -0.9561
vn -0.2920 0.0336 -0.9558
vn -0.2894 0.0371 -0.9565
vn 0.1133 0.6321 -0.7666
vn -0.2854 0.3240 -0.9020
vn -0.2853 -0.3240 -0.9020
vn -0.2796 -0.3709 -0.8856
vn 0.3893 -0.0471 0.9199
vn 0.3888 -0.0458 0.9202
vn -0.2821 -0.0560 -0.9578
vn -0.2818 -0.0617 -0.9575
vn 0.0825 -0.9943 -0.0669
vn 0.0779 -0.9940 -0.0773
vn -0.1899 0.7837 -0.5914
vn -0.1875 0.7902 -0.5835
vn -0.6755 0.7373 -0.0077
vn -0.4618 0.8865 -0.0298
vn -0.2590 0.9650 -0.0419
vn -0.1897 0.9808 -0.0440
vn -0.1563 0.9867 -0.0448
vn -0.1221 0.9915 -0.0459
vn -0.0146 0.9994 -0.0323
vn -0.0550 0.9973 -0.0489
vn -0.0951 0.9944 -0.0467
vn 0.0127 0.9997 0.0228
vn -0.0019 0.9999 0.0138
vn -0.0021 1.0000 -0.0067
vn -0.0049 0.9999 -0.0139
vn -0.0075 0.9998 -0.0201
vn -0.0091 0.9997 -0.0234
vn -0.0093 0.9997 -0.0238
vn -0.0101 0.9996 -0.0252
vn -0.0111 0.9996 -0.0268
vn -0.1223 0.9914 -0.0459
vn -0.1011 0.9938 -0.0464
vn 0.2963 0.7032 0.6463
vn 0.3064 0.6817 0.6644
vn 0.3208 0.2869 0.9027
vn 0.3198 0.2895 0.9022
vn 0.3054 0.1574 0.9391
vn 0.3051 0.1582 0.9391
vn -0.2658 -0.4744 -0.8393
vn -0.2605 -0.5046 -0.8231
vn 0.2827 0.9592 0.0034
vn 0.1554 0.9875 -0.0257
vn 0.2009 0.9796 -0.0110
vn 0.2559 0.9667 0.0036
vn 0.1558 0.9787 0.1336
vn 0.1249 0.9704 0.2066
vn 0.1228 0.9682 0.2180
vn 0.1222 0.9675 0.2212
vn 0.1216 0.9625 0.2424
vn 0.1230 0.9567 0.2637
vn 0.0634 0.9969 -0.0458
vn 0.0336 0.9989 -0.0335
vn -0.0227 0.9997 -0.0127
vn 0.0276 0.9991 -0.0311
vn 0.0226 0.9994 -0.0266
vn 0.0199 0.9995 -0.0241
vn 0.0187 0.9996 -0.0222
vn 0.0178 0.9996 -0.0212
vn 0.0167 0.9997 -0.0189
vn -0.1828 -0.7142 -0.6757
vn -0.1320 -0.8002 -0.5851
vn 0.0162 0.9998 -0.0063
vn 0.2244 0.8213 0.5246
vn 0.2170 0.8297 0.5142
vn 0.2711 0.5883 0.7618
vn 0.2690 0.5925 0.7593
vn 0.2924 0.7090 0.6417
vn 0.2777 0.4393 0.8543
vn 0.2770 0.4410 0.8537
vn 0.3063 -0.6818 0.6644
vn 0.2962 -0.7032 0.6463
vn 0.4400 0.8979 -0.0142
vn 0.4422 0.8968 -0.0130
vn 0.1539 0.8203 0.5508
vn 0.1540 0.8403 0.5198
vn 0.1230 -0.9567 0.2637
vn 0.1216 -0.9625 0.2424
vn 0.1222 -0.9675 0.2212
vn 0.1250 -0.9704 0.2068
vn 0.1282 -0.9715 0.1995
vn 0.1633 -0.9805 0.1097
vn 0.1661 -0.9806 0.1040
vn 0.1712 -0.9813 0.0884
vn 0.1811 -0.9811 0.0678
vn 0.2029 -0.9784 0.0399
vn 0.2540 -0.9672 0.0037
vn 0.2451 -0.9695 0.0015
vn -0.2821 0.0534 -0.9579
vn -0.2885 0.0567 -0.9558
vn -0.2941 0.0222 -0.9555
vn -0.2943 0.0175 -0.9555
vn 0.0175 -0.9996 -0.0209
vn 0.0197 -0.9995 -0.0241
vn 0.0218 -0.9994 -0.0259
vn 0.0271 -0.9992 -0.0307
vn 0.0274 -0.9991 -0.0311
vn 0.0586 -0.9973 -0.0439
vn -0.0242 -0.9986 -0.0461
vn -0.0014 -0.9999 0.0140
vn 0.0161 -0.9996 0.0249
vn -0.0949 -0.9944 -0.0467
vn -0.0550 -0.9973 -0.0489
vn -0.0153 -0.9993 -0.0333
vn -0.0101 -0.9996 -0.0253
vn -0.0093 -0.9997 -0.0238
vn -0.0090 -0.9997 -0.0232
vn -0.0071 -0.9998 -0.0192
vn -0.0044 -0.9999 -0.0128
vn -0.0014 -1.0000 -0.0050
vn -0.0017 -1.0000 -0.0057
vn -0.1011 -0.9938 -0.0464
vn -0.1223 -0.9914 -0.0459
vn -0.1221 -0.9915 -0.0459
vn -0.1563 -0.9867 -0.0448
vn -0.1898 -0.9808 -0.0440
vn -0.2590 -0.9650 -0.0419
vn -0.4618 -0.8865 -0.0298
vn -0.6755 -0.7373 -0.0077
vn -0.1873 -0.7909 -0.5826
vn -0.2062 -0.5986 -0.7740
vn -0.1725 -0.6696 -0.7224
vn 0.1042 -0.6646 -0.7399
vn 0.1097 -0.9541 0.2788
vn 0.1168 -0.9520 0.2829
vn -0.1900 -0.7837 -0.5914
vn -0.2762 0.4023 -0.8728
vn -0.2794 0.3742 -0.8842
vn -0.9553 -0.0000 0.2957
vn -0.2761 -0.4023 -0.8729
vn -0.2893 -0.0000 -0.9572
vn -0.2852 -0.0000 -0.9585
vn -0.2910 -0.2574 -0.9214
vn -0.2917 -0.2473 -0.9240
vn -0.3067 -0.2332 -0.9228
vn -0.2823 -0.2552 -0.9248
vn -0.3441 -0.1991 -0.9176
vn -0.3510 -0.1915 -0.9166
vn -0.2978 -0.0557 -0.9530
vn -0.2960 -0.0669 -0.9529
vn -0.2961 -0.0551 -0.9536
vn -0.2949 -0.0580 -0.9538
vn -0.2925 -0.0723 -0.9535
vn -0.2926 -0.0607 -0.9543
vn -0.2927 -0.0631 -0.9541
vn -0.2913 -0.0607 -0.9547
vn -0.2910 -0.0573 -0.9550
vn -0.2892 -0.0551 -0.9557
vn -0.2892 -0.0554 -0.9557
vn -0.2886 0.0469 -0.9563
vn -0.2894 0.0526 -0.9558
vn -0.2900 -0.0171 -0.9569
vn -0.2921 -0.0179 -0.9562
vn -0.2931 -0.0430 -0.9551
vn -0.2932 -0.0390 -0.9553
vn -0.2934 -0.0590 -0.9542
vn -0.2891 -0.0283 -0.9569
vn -0.2897 0.0536 -0.9556
vn -0.2927 0.0492 -0.9549
vn -0.2952 -0.0070 -0.9554
vn -0.2959 -0.0264 -0.9549
vn -0.2795 0.0158 -0.9600
vn -0.2795 0.0159 -0.9600
vn -0.2935 -0.0349 -0.9553
vn -0.2934 -0.0353 -0.9553
vn -0.2936 -0.0157 -0.9558
vn -0.2925 -0.0148 -0.9561
vn -0.2923 -0.0115 -0.9562
vn -0.2901 -0.0080 -0.9570
vn -0.2943 0.0004 -0.9557
vn -0.2940 -0.0064 -0.9558
vn -0.2925 -0.0015 -0.9563
vn -0.2924 -0.0000 -0.9563
vn -0.2901 -0.0000 -0.9570
vn -0.2925 0.0015 -0.9563
vn -0.2940 0.0064 -0.9558
vn -0.2943 -0.0004 -0.9557
vn -0.2923 0.0115 -0.9562
vn -0.2925 0.0148 -0.9561
vn -0.2921 0.0179 -0.9562
vn -0.2907 0.0181 -0.9566
vn -0.2900 0.0171 -0.9569
vn -0.2978 0.0557 -0.9530
vn -0.3510 0.1915 -0.9166
vn -0.3441 0.1991 -0.9176
vn -0.2824 0.2551 -0.9248
vn -0.9822 -0.0518 0.1804
vn -0.9993 0.0012 -0.0378
vn -0.9997 -0.0000 -0.0244
vn -0.3007 -0.0000 -0.9537
vn -0.9979 -0.0027 0.0653
vn -0.2921 0.0512 -0.9550
vn -0.1267 -0.8615 -0.4917
vn -0.1242 -0.8534 -0.5062
vn -0.2931 -0.0540 -0.9546
vn -0.2930 -0.0550 -0.9545
vn -0.2971 -0.0015 -0.9548
vn -0.2958 -0.0000 -0.9553
vn -0.2959 0.0633 -0.9531
vn -0.2960 0.0566 -0.9535
vn -0.2977 0.0546 -0.9531
vn -0.2936 0.0157 -0.9558
vn -0.2943 -0.0175 -0.9555
vn -0.2941 -0.0222 -0.9555
vn -0.2959 0.0263 -0.9549
vn -0.2952 0.0072 -0.9554
vn -0.2934 0.0352 -0.9553
vn -0.2935 0.0349 -0.9553
vn -0.2891 0.0283 -0.9569
vn -0.2934 0.0590 -0.9542
vn -0.2932 0.0391 -0.9553
vn -0.2931 0.0431 -0.9551
vn -0.2243 0.6733 -0.7046
vn -0.9977 0.0298 0.0612
vn -0.9959 0.0706 0.0566
vn -0.9861 0.1592 0.0475
vn -0.9456 0.3235 0.0329
vn -0.8942 0.4470 0.0220
vn -0.7995 0.6006 0.0086
vn -0.7868 0.6172 0.0072
vn -0.7369 0.6760 0.0006
vn -0.5220 0.8408 0.1436
vn -0.4359 0.8871 0.1521
vn -0.3578 0.9206 0.1562
vn -0.2356 0.9597 0.1531
vn -0.0411 0.9897 0.1369
vn 0.0056 0.9916 0.1289
vn 0.0024 0.9997 0.0239
vn 0.0028 0.9997 0.0252
vn -0.0001 0.9998 0.0192
vn -0.0015 0.9999 0.0160
vn 0.0017 1.0000 0.0031
vn 0.0012 1.0000 0.0016
vn -0.0020 1.0000 -0.0065
vn 0.2956 0.5809 0.7584
vn 0.2921 0.5879 0.7544
vn 0.2959 0.2898 0.9102
vn 0.2954 0.2911 0.9099
vn 0.3016 0.4353 0.8483
vn 0.3001 0.4389 0.8469
vn 0.4014 0.2765 0.8731
vn 0.4003 0.2696 0.8758
vn 0.3307 0.1558 0.9308
vn 0.3302 0.1572 0.9307
vn 0.4162 -0.0439 0.9082
vn 0.4159 -0.0428 0.9084
vn 0.2373 0.9713 0.0153
vn 0.2118 0.9767 0.0345
vn 0.1850 0.9809 0.0601
vn 0.1702 0.9814 0.0883
vn 0.1620 0.9807 0.1094
vn -0.2534 0.3755 -0.8915
vn -0.2431 0.3160 -0.9171
vn 0.0394 0.9955 0.0867
vn 0.0384 0.9957 0.0843
vn 0.0365 0.9961 0.0804
vn 0.1218 0.9557 0.2681
vn -0.2963 0.0187 -0.9549
vn -0.2962 0.0172 -0.9550
vn -0.2929 0.0550 -0.9545
vn -0.2931 0.0541 -0.9546
vn 0.2764 0.7094 0.6484
vn 0.2698 0.7195 0.6400
vn 0.1205 -0.9518 0.2820
vn 0.1218 -0.9557 0.2681
vn 0.0365 -0.9961 0.0805
vn 0.0384 -0.9957 0.0843
vn 0.0394 -0.9955 0.0867
vn 0.0400 -0.9960 0.0805
vn 0.0397 -0.9961 0.0791
vn 0.0210 -0.9995 0.0234
vn 0.0208 -0.9995 0.0224
vn 0.0194 -0.9997 0.0143
vn 0.0017 -1.0000 0.0029
vn 0.0014 -1.0000 0.0022
vn 0.0025 -0.9997 0.0251
vn -0.0000 -0.9998 0.0192
vn -0.0011 -0.9999 0.0162
vn -0.0411 -0.9897 0.1369
vn -0.2356 -0.9597 0.1531
vn -0.3819 -0.9108 0.1565
vn -0.5220 -0.8408 0.1436
vn -0.7369 -0.6760 0.0006
vn 0.0056 -0.9916 0.1289
vn -0.7868 -0.6172 0.0072
vn -0.7996 -0.6005 0.0086
vn -0.8942 -0.4471 0.0220
vn -0.2242 -0.6733 -0.7046
vn -0.2907 0.2583 -0.9213
vn -0.2908 0.2574 -0.9215
vn -0.9456 -0.3235 0.0329
vn -0.9861 -0.1592 0.0475
vn -0.9959 -0.0706 0.0566
vn -0.9977 -0.0298 0.0612
vn -0.9979 0.0027 0.0653
vn -0.9993 -0.0012 -0.0378
vn -0.9823 0.0517 0.1801
vn -0.9973 -0.0000 -0.0738
vn -0.9931 -0.0001 -0.1175
vn -0.9939 -0.0000 -0.1100
vn -0.4133 -0.1276 -0.9016
vn -0.4006 -0.1399 -0.9055
vn -0.2980 -0.0524 -0.9531
vn -0.2977 -0.0546 -0.9531
vn -0.2960 -0.0566 -0.9535
vn -0.2959 -0.0633 -0.9531
vn -0.2942 0.0508 -0.9544
vn -0.2961 0.0537 -0.9536
vn 0.4877 -0.0000 -0.8730
vn 0.4859 0.0049 -0.8740
vn -0.2921 -0.0511 -0.9550
vn -0.2934 -0.0473 -0.9548
vn -0.2944 -0.0477 -0.9545
vn -0.2947 -0.0448 -0.9545
vn -0.2970 -0.0382 -0.9541
vn -0.2972 -0.0336 -0.9542
vn -0.2960 -0.0309 -0.9547
vn -0.2961 -0.0260 -0.9548
vn -0.2974 -0.0185 -0.9546
vn 0.0169 -0.9997 -0.0184
vn 0.0168 -0.9997 -0.0184
vn -0.2964 -0.0138 -0.9550
vn -0.2964 -0.0099 -0.9550
vn -0.2964 -0.0102 -0.9550
vn -0.2944 -0.0062 -0.9557
vn -0.2968 -0.0094 -0.9549
vn -0.2970 -0.0089 -0.9548
vn -0.2965 -0.0024 -0.9550
vn 0.0174 -0.9998 0.0046
vn 0.0193 -0.9997 0.0113
vn -0.2945 -0.0031 -0.9556
vn -0.2945 0.0031 -0.9556
vn -0.2964 0.0020 -0.9551
vn -0.2965 0.0024 -0.9550
vn -0.2970 0.0088 -0.9548
vn -0.2968 0.0094 -0.9549
vn -0.2964 0.0102 -0.9550
vn -0.2944 0.0062 -0.9557
vn -0.2964 0.0099 -0.9550
vn -0.2980 0.0524 -0.9531
vn -0.4006 0.1399 -0.9055
vn -0.4133 0.1276 -0.9016
vn -0.9871 -0.0000 0.1598
vn -0.5842 0.7993 0.1407
vn -0.9652 0.2588 0.0387
vn -0.2934 0.0473 -0.9548
vn -0.2944 0.0477 -0.9545
vn -0.4562 -0.0576 -0.8880
vn -0.4608 -0.0501 -0.8861
vn -0.2943 0.0469 -0.9545
vn -0.2979 0.0511 -0.9532
vn -0.2964 0.0138 -0.9550
vn -0.2962 -0.0171 -0.9550
vn -0.2963 -0.0187 -0.9549
vn 0.1766 0.8685 0.4631
vn 0.1621 0.8863 0.4337
vn -0.2961 0.0260 -0.9548
vn -0.2960 0.0309 -0.9547
vn -0.2972 0.0335 -0.9542
vn -0.2970 0.0382 -0.9541
vn -0.2947 0.0448 -0.9545
vn -0.2957 0.0437 -0.9543
vn -0.9801 -0.0000 0.1987
vn -0.9729 -0.0000 0.2314
vn -0.9703 -0.0001 0.2421
vn -0.9686 -0.0000 0.2486
vn -0.9631 -0.0000 0.2690
vn -0.2114 -0.7170 -0.6642
vn -0.2130 -0.7122 -0.6689
vn -0.9441 -0.0000 0.3295
vn -0.9339 0.0079 0.3576
vn -0.9274 -0.0000 0.3740
vn -0.9274 -0.0000 0.3741
vn 0.2354 -0.8210 0.5201
vn 0.2522 -0.7994 0.5453
vn 0.0334 0.9867 0.1592
vn 0.0212 0.9902 0.1380
vn 0.0111 0.9915 0.1297
vn 0.0064 0.9994 0.0346
vn 0.0076 0.9993 0.0362
vn 0.0053 0.9999 0.0123
vn 0.0042 0.9999 0.0093
vn 0.0208 0.9995 0.0228
vn 0.3277 0.4291 0.8417
vn 0.3253 0.4349 0.8397
vn 0.3814 0.4096 0.8287
vn 0.3769 0.4201 0.8255
vn 0.3747 0.2823 0.8831
vn 0.3738 0.2769 0.8852
vn 0.3858 0.1505 0.9102
vn 0.3848 0.1534 0.9102
vn 0.3662 -0.0458 0.9294
vn 0.3614 -0.0555 0.9307
vn 0.0243 0.9992 0.0313
vn 0.0265 0.9984 0.0499
vn 0.0274 0.9979 0.0583
vn 0.0277 0.9978 0.0600
vn -0.4405 0.0871 -0.8935
vn -0.4292 0.1039 -0.8972
vn 0.0842 0.9632 0.2554
vn 0.0940 0.9584 0.2695
vn 0.1074 0.9543 0.2788
vn 0.1179 0.9520 0.2826
vn 0.0038 0.9985 -0.0540
vn 0.0319 0.9966 -0.0763
vn -0.2986 -0.0136 -0.9543
vn -0.2982 -0.0153 -0.9544
vn 0.1729 -0.8694 0.4629
vn 0.1732 -0.8675 0.4663
vn 0.2201 0.7733 0.5947
vn -0.2831 -0.0000 -0.9591
vn -0.2818 -0.0026 -0.9595
vn 0.2490 0.5930 0.7658
vn 0.2481 0.5947 0.7647
vn 0.3409 0.5701 0.7475
vn 0.3476 0.5569 0.7543
vn 0.2417 0.7261 0.6437
vn 0.2241 0.7529 0.6187
vn 0.2205 -0.7731 0.5947
vn -0.2961 0.0178 -0.9550
vn -0.2994 0.0206 -0.9539
vn -0.2908 -0.0181 -0.9566
vn -0.2895 -0.0229 -0.9569
vn 0.2200 -0.7502 0.6235
vn 0.2220 -0.7314 0.6448
vn 0.1512 0.9026 0.4030
vn 0.1390 0.9206 0.3649
vn 0.1074 -0.9543 0.2788
vn 0.0940 -0.9584 0.2695
vn 0.0842 -0.9632 0.2554
vn 0.0371 -0.9958 0.0839
vn 0.0345 -0.9963 0.0792
vn 0.0266 -0.9984 0.0499
vn 0.0251 -0.9986 0.0462
vn -0.0147 -0.9999 -0.0050
vn 0.0068 -0.9999 0.0157
vn 0.0067 -0.9999 0.0155
vn 0.0051 -0.9999 0.0116
vn 0.0033 -1.0000 0.0070
vn 0.0042 -0.9999 0.0093
vn 0.0111 -0.9915 0.1297
vn 0.0212 -0.9902 0.1380
vn 0.0334 -0.9867 0.1592
vn -0.5843 -0.7993 0.1407
vn 0.0064 -0.9994 0.0347
vn -0.9652 -0.2588 0.0387
vn -0.9811 -0.0000 -0.1935
vn -0.9945 0.0064 -0.1041
vn 0.2249 -0.7518 0.6199
vn 0.2418 -0.7260 0.6438
vn -0.3012 -0.0453 -0.9525
vn -0.2972 -0.0476 -0.9536
vn -0.2979 -0.0511 -0.9532
vn -0.2895 -0.0463 -0.9561
vn -0.2906 -0.0464 -0.9557
vn -0.2943 -0.0469 -0.9546
vn -0.2969 0.0470 -0.9538
vn -0.2966 0.0490 -0.9537
vn -0.2969 -0.0476 -0.9537
vn -0.2988 -0.0410 -0.9534
vn -0.2974 -0.0333 -0.9542
vn -0.3002 -0.0273 -0.9535
vn -0.2768 0.0190 -0.9607
vn -0.2808 0.0224 -0.9595
vn -0.2982 0.0153 -0.9544
vn -0.2986 0.0136 -0.9543
vn -0.3007 -0.0110 -0.9537
vn -0.2987 -0.0058 -0.9543
vn -0.2988 -0.0043 -0.9543
vn -0.2988 -0.0042 -0.9543
vn 0.4373 -0.0477 0.8980
vn 0.4361 -0.0439 0.8988
vn -0.2988 0.0042 -0.9543
vn -0.2988 0.0044 -0.9543
vn -0.2987 0.0058 -0.9543
vn -0.3007 0.0110 -0.9537
vn -0.2985 0.0150 -0.9543
vn -0.2972 0.0476 -0.9536
vn -0.3012 0.0453 -0.9525
vn -0.2906 0.0464 -0.9557
vn -0.2895 0.0463 -0.9560
vn -0.4292 -0.1039 -0.8972
vn -0.4405 -0.0872 -0.8935
vn -0.9945 -0.0064 -0.1042
vn -0.2969 0.0476 -0.9537
vn -0.2974 0.0334 -0.9542
vn -0.2988 0.0410 -0.9534
vn -0.2989 -0.0185 -0.9541
vn -0.2973 -0.0206 -0.9546
vn -0.3002 0.0273 -0.9535
vn 0.0162 0.9998 -0.0139
vn 0.0160 0.9998 -0.0132
vn 0.0554 0.9773 0.2047
vn 0.0525 0.9788 0.1981
vn 0.0366 0.9858 0.1640
vn 0.0135 0.9986 0.0507
vn 0.0226 0.9976 0.0660
vn 0.0218 0.9977 0.0635
vn 0.0207 0.9979 0.0612
vn 0.0165 0.9984 0.0539
vn 0.0125 0.9988 0.0475
vn 0.0084 0.9998 0.0199
vn 0.0069 0.9998 0.0160
vn 0.0268 0.9984 0.0506
vn 0.3546 0.4205 0.8351
vn 0.3512 0.4287 0.8324
vn 0.4128 0.1467 0.8989
vn 0.4116 0.1503 0.8989
vn 0.3523 0.0464 0.9347
vn -0.2733 0.0159 -0.9618
vn -0.2606 0.0103 -0.9654
vn 0.3523 -0.0464 0.9347
vn 0.0760 0.9905 -0.1146
vn 0.0751 0.9901 -0.1188
vn 0.0114 0.9996 0.0274
vn 0.0124 0.9995 0.0300
vn 0.0131 0.9994 0.0316
vn 0.0123 0.9995 0.0300
vn 0.0223 0.9980 0.0588
vn 0.0653 0.9722 0.2247
vn 0.0655 0.9721 0.2251
vn 0.0691 0.9702 0.2324
vn 0.0836 0.9634 0.2548
vn 0.1273 0.9291 0.3473
vn 0.0948 0.9561 0.2773
vn 0.1557 -0.8411 0.5180
vn 0.1558 -0.8402 0.5194
vn 0.1684 0.8396 0.5164
vn 0.1674 0.8408 0.5148
vn 0.2104 0.7331 0.6467
vn 0.2105 0.7317 0.6484
vn 0.1681 0.9056 0.3894
vn 0.1699 0.8997 0.4021
vn 0.3214 0.5705 0.7558
vn 0.3163 0.5805 0.7503
vn 0.1267 0.9483 0.2910
vn 0.1205 0.9518 0.2820
vn 0.1273 -0.9291 0.3473
vn 0.1167 0.9520 0.2828
vn 0.1097 0.9541 0.2788
vn 0.0836 -0.9634 0.2548
vn 0.0691 -0.9702 0.2324
vn 0.0655 -0.9721 0.2251
vn 0.0653 -0.9722 0.2247
vn 0.0226 -0.9976 0.0660
vn 0.0218 -0.9977 0.0634
vn 0.0218 -0.9979 0.0616
vn 0.0133 -0.9994 0.0322
vn 0.0118 -0.9995 0.0289
vn 0.0125 -0.9995 0.0304
vn 0.0108 -0.9996 0.0260
vn 0.0090 -0.9997 0.0216
vn 0.0098 -0.9997 0.0234
vn 0.0082 -0.9998 0.0194
vn 0.0122 -0.9988 0.0471
vn 0.0096 -0.9991 0.0406
vn 0.0074 -0.9993 0.0362
vn 0.0366 -0.9858 0.1640
vn 0.0525 -0.9788 0.1981
vn 0.0554 -0.9773 0.2047
vn 0.0135 -0.9986 0.0509
vn 0.0150 -0.9985 0.0518
vn 0.0187 -0.9982 0.0577
vn -0.9696 -0.0000 -0.2445
vn -0.4780 -0.0119 -0.8783
vn -0.4711 0.0165 -0.8819
vn -0.4569 0.0264 -0.8891
vn -0.4562 0.0577 -0.8880
vn -0.4608 0.0501 -0.8861
vn -0.2978 -0.0410 -0.9537
vn -0.3465 -0.0210 -0.9378
vn -0.3156 -0.0189 -0.9487
vn -0.3884 -0.0227 -0.9212
vn -0.3118 -0.0185 -0.9500
vn -0.3017 -0.0188 -0.9532
vn -0.3067 -0.0184 -0.9516
vn -0.3049 -0.0202 -0.9522
vn -0.3004 -0.0024 -0.9538
vn -0.3003 -0.0023 -0.9538
vn -0.9064 -0.0000 0.4225
vn -0.3003 0.0023 -0.9538
vn -0.3004 0.0023 -0.9538
vn -0.3017 0.0188 -0.9532
vn -0.3067 0.0184 -0.9516
vn -0.3049 0.0202 -0.9522
vn -0.3156 0.0189 -0.9487
vn -0.3465 0.0210 -0.9378
vn -0.3883 0.0227 -0.9212
vn -0.2894 -0.0473 -0.9560
vn -0.2890 -0.0526 -0.9559
vn 0.9999 -0.0000 -0.0152
vn 0.9987 0.0516 0.0055
vn -0.4780 0.0119 -0.8783
vn -0.3118 0.0185 -0.9500
vn 0.3314 0.0465 0.9423
vn 0.3343 0.0362 0.9418
vn 0.0806 0.9535 0.2904
vn 0.0798 0.9552 0.2850
vn 0.0647 0.9726 0.2233
vn 0.0612 0.9743 0.2167
vn 0.0108 0.9996 0.0260
vn 0.0094 0.9997 0.0223
vn 0.3473 0.2866 0.8929
vn 0.3467 0.2826 0.8944
vn 0.0688 0.9705 0.2309
vn 0.0791 0.9621 0.2610
vn 0.0871 0.9568 0.2772
vn 0.0916 0.9561 0.2783
vn 0.0904 0.9568 0.2763
vn 0.1272 0.9125 0.3888
vn 0.1262 0.9134 0.3870
vn 0.2291 0.6022 0.7648
vn 0.2312 0.5951 0.7697
vn 0.2320 0.5873 0.7754
vn 0.2565 0.4475 0.8567
vn 0.2583 0.4413 0.8594
vn 0.2597 0.4239 0.8677
vn 0.2722 0.3157 0.9090
vn 0.2766 0.2913 0.9158
vn 0.2758 0.2754 0.9209
vn -0.8758 -0.0000 0.4827
vn 0.2852 0.1584 0.9453
vn 0.2830 0.1671 0.9445
vn 0.2758 -0.2754 0.9209
vn 0.2766 -0.2913 0.9158
vn 0.2722 -0.3157 0.9090
vn 0.2597 -0.4238 0.8677
vn 0.2583 -0.4413 0.8594
vn 0.2565 -0.4475 0.8567
vn 0.2320 -0.5872 0.7754
vn 0.2312 -0.5951 0.7697
vn 0.2291 -0.6022 0.7648
vn -0.2457 -0.5848 -0.7731
vn -0.2430 -0.5965 -0.7649
vn 0.0791 -0.9621 0.2610
vn 0.0688 -0.9705 0.2309
vn 0.0647 -0.9726 0.2233
vn 0.0612 -0.9743 0.2168
vn 0.0798 -0.9552 0.2850
vn 0.0806 -0.9535 0.2904
vn 0.0107 -0.9997 0.0236
vn 0.0124 -0.9995 0.0303
vn 0.0125 -0.9995 0.0303
vn -0.2974 -0.0000 -0.9547
vn -0.8008 -0.0000 0.5989
vn 0.2847 0.1285 0.9500
vn 0.2864 0.0719 0.9554
vn -0.2658 0.4744 -0.8392
vn -0.2690 0.4527 -0.8501
vn 0.2863 0.0277 0.9577
vn 0.2898 0.0473 0.9559
vn 0.2864 -0.0719 0.9554
vn 0.2847 -0.1285 0.9500
vn 0.1943 -0.7326 0.6523
vn 0.1989 -0.6865 0.6994
vn -0.5966 -0.0001 0.8026
vn -0.5803 0.0001 0.8144
vn -0.5436 0.0007 0.8394
vn -0.5337 -0.0000 0.8457
vn -0.5347 -0.0000 0.8450
vn -0.5272 -0.0000 0.8497
vn -0.5271 -0.0000 0.8498
vn -0.5034 -0.0000 0.8641
vn -0.4939 0.0010 0.8695
vn -0.5141 -0.0000 0.8577
vn -0.4696 0.0001 0.8829
vn -0.4719 -0.0000 0.8817
vn -0.4648 -0.0000 0.8854
vn -0.4684 -0.0003 0.8835
vn -0.4775 0.0002 0.8786
vn -0.4683 0.0003 0.8835
vn -0.4776 -0.0002 0.8786
vn 0.2782 -0.1692 0.9455
vn 0.2617 -0.2576 0.9301
vn -0.4960 -0.0001 0.8683
vn -0.5140 -0.0000 0.8578
vn 0.2538 -0.3860 0.8869
vn -0.5429 -0.0012 0.8398
vn 0.2272 -0.5597 0.7970
vn -0.5911 0.0001 0.8066
vn -0.5965 -0.0000 0.8026
vn -0.2605 -0.0139 -0.9654
vn -0.2614 -0.0136 -0.9651
vn -0.2961 -0.0537 -0.9536
vn -0.2942 -0.0508 -0.9544
vn 0.0890 -0.9460 0.3116
vn -0.7871 -0.0000 0.6168
vn -0.7581 -0.0000 0.6522
vn -0.7321 -0.0000 0.6812
vn -0.7134 -0.0000 0.7007
vn 0.4350 0.0439 0.8994
vn 0.4380 0.0760 0.8958
vn -0.6712 -0.0000 0.7413
vn -0.6652 0.0001 0.7467
vn -0.6467 -0.0000 0.7627
vn -0.6289 -0.0000 0.7775
vn -0.6290 -0.0000 0.7774
vn -0.6102 -0.0000 0.7923
vn -0.6100 0.0001 0.7924
vn -0.6099 -0.0000 0.7925
vn -0.5771 -0.0000 0.8166
vn -0.5616 -0.0000 0.8274
vn -0.5465 -0.0000 0.8374
vn -0.5454 -0.0000 0.8382
vn -0.4934 -0.0000 0.8698
vn -0.4798 -0.0000 0.8774
vn -0.6101 0.0001 0.7923
vn -0.6529 -0.0002 0.7575
s 0
f 1//1 2//1 3//1
f 4//2 5//2 6//2
f 4//3 7//3 8//3
f 5//4 4//4 9//4
f 9//5 4//5 10//5
f 9//6 10//6 11//6
f 12//7 13//7 14//7
f 15//8 16//8 14//8
f 14//9 16//9 17//9
f 14//10 17//10 12//10
f 18//11 19//11 20//11
f 20//12 19//12 21//12
f 20//13 21//13 22//13
f 22//14 21//14 23//14
f 22//15 23//15 24//15
f 24//16 23//16 25//16
f 26//17 27//17 28//17
f 28//18 27//18 29//18
f 28//19 29//19 30//19
f 30//20 29//20 31//20
f 30//21 31//21 32//21
f 32//22 31//22 33//22
f 32//23 33//23 34//23
f 34//24 33//24 35//24
f 34//25 35//25 36//25
f 36//26 35//26 37//26
f 36//27 37//27 38//27
f 39//28 40//28 41//28
f 39//29 41//29 42//29
f 42//30 41//30 43//30
f 42//31 43//31 44//31
f 44//32 43//32 45//32
f 44//33 45//33 46//33
f 46//34 45//34 47//34
f 18//35 48//35 19//35
f 49//36 50//36 10//36
f 51//37 52//37 3//37
f 3//38 52//38 53//38
f 3//39 53//39 4//39
f 53//40 54//40 4//40
f 10//41 55//41 56//41
f 10//42 56//42 49//42
f 3//43 57//43 58//43
f 3//44 58//44 51//44
f 59//45 60//45 61//45
f 3//46 62//46 1//46
f 63//47 64//47 65//47
f 65//48 64//48 66//48
f 66//49 64//49 67//49
f 66//50 67//50 68//50
f 69//51 70//51 67//51
f 67//52 70//52 71//52
f 67//53 71//53 68//53
f 69//54 72//54 73//54
f 69//55 73//55 70//55
f 74//56 75//56 76//56
f 77//57 78//57 79//57
f 80//58 81//58 82//58
f 83//59 84//59 85//59
f 86//60 87//60 88//60
f 89//61 90//61 91//61
f 90//62 92//62 93//62
f 94//63 95//63 96//63
f 97//64 98//64 99//64
f 100//65 101//65 102//65
f 103//66 104//66 105//66
f 105//67 104//67 106//67
f 105//68 106//68 107//68
f 107//69 106//69 108//69
f 107//70 108//70 109//70
f 103//71 105//71 110//71
f 110//72 105//72 111//72
f 110//73 111//73 112//73
f 111//74 113//74 112//74
f 114//75 115//75 116//75
f 117//76 118//76 119//76
f 119//77 120//77 117//77
f 121//78 122//78 123//78
f 123//79 122//79 124//79
f 123//80 124//80 125//80
f 126//81 127//81 128//81
f 127//82 129//82 128//82
f 128//83 129//83 130//83
f 128//84 130//84 131//84
f 132//85 133//85 134//85
f 134//86 133//86 135//86
f 136//87 137//87 138//87
f 138//88 137//88 139//88
f 139//89 140//89 141//89
f 139//90 141//90 138//90
f 142//91 143//91 144//91
f 145//92 146//92 147//92
f 145//93 147//93 148//93
f 148//94 147//94 149//94
f 148//95 149//95 150//95
f 150//96 149//96 151//96
f 150//97 151//97 152//97
f 153//98 154//98 155//98
f 153//99 155//99 156//99
f 156//100 155//100 157//100
f 118//101 158//101 119//101
f 119//102 159//102 160//102
f 160//103 159//103 161//103
f 159//104 162//104 163//104
f 163//105 164//105 159//105
f 159//106 164//106 165//106
f 159//107 165//107 161//107
f 166//108 167//108 114//108
f 114//109 167//109 168//109
f 114//110 168//110 159//110
f 159//111 168//111 169//111
f 170//112 171//112 172//112
f 173//113 174//113 175//113
f 175//114 174//114 176//114
f 176//115 174//115 177//115
f 176//116 177//116 178//116
f 178//117 177//117 179//117
f 179//118 177//118 180//118
f 179//119 180//119 181//119
f 182//120 183//120 184//120
f 184//121 183//121 185//121
f 182//122 186//122 187//122
f 182//123 187//123 183//123
f 188//124 189//124 190//124
f 191//125 192//125 193//125
f 193//126 192//126 194//126
f 193//127 194//127 195//127
f 195//128 194//128 196//128
f 196//129 194//129 197//129
f 196//130 197//130 198//130
f 198//131 197//131 199//131
f 199//132 197//132 200//132
f 199//133 200//133 201//133
f 201//134 200//134 202//134
f 202//135 200//135 203//135
f 202//136 203//136 204//136
f 205//137 206//137 207//137
f 208//138 207//138 209//138
f 203//139 210//139 204//139
f 211//140 212//140 213//140
f 175//141 214//141 173//141
f 215//142 216//142 217//142
f 218//143 219//143 220//143
f 221//144 222//144 223//144
f 223//145 222//145 224//145
f 223//146 224//146 225//146
f 225//147 224//147 226//147
f 225//148 226//148 227//148
f 228//149 229//149 230//149
f 231//150 232//150 233//150
f 233//151 232//151 234//151
f 226//152 235//152 227//152
f 236//153 237//153 238//153
f 229//154 239//154 230//154
f 240//155 241//155 242//155
f 243//156 244//156 245//156
f 246//157 247//157 248//157
f 248//158 247//158 249//158
f 248//159 249//159 250//159
f 250//160 249//160 251//160
f 250//161 251//161 252//161
f 252//162 251//162 253//162
f 252//163 253//163 180//163
f 180//164 253//164 254//164
f 180//165 254//165 181//165
f 181//166 254//166 255//166
f 192//167 256//167 194//167
f 194//168 256//168 257//168
f 194//169 257//169 197//169
f 197//170 257//170 258//170
f 197//171 258//171 200//171
f 200//172 258//172 259//172
f 200//173 259//173 203//173
f 203//174 259//174 260//174
f 208//175 260//175 261//175
f 256//176 246//176 257//176
f 257//177 246//177 248//177
f 257//178 248//178 258//178
f 258//179 248//179 250//179
f 258//180 250//180 259//180
f 259//181 250//181 252//181
f 259//182 252//182 260//182
f 260//183 252//183 180//183
f 260//184 180//184 261//184
f 261//185 180//185 177//185
f 261//186 177//186 262//186
f 262//187 177//187 174//187
f 262//188 174//188 211//188
f 211//189 174//189 173//189
f 211//190 173//190 263//190
f 264//191 265//191 266//191
f 247//192 267//192 249//192
f 249//193 267//193 268//193
f 249//194 268//194 251//194
f 251//195 268//195 269//195
f 251//196 269//196 253//196
f 253//197 269//197 270//197
f 253//198 270//198 254//198
f 254//199 270//199 271//199
f 254//200 271//200 255//200
f 272//201 233//201 273//201
f 273//202 233//202 226//202
f 243//203 222//203 244//203
f 245//204 217//204 243//204
f 243//205 217//205 216//205
f 243//206 216//206 274//206
f 274//207 216//207 182//207
f 274//208 182//208 273//208
f 273//209 182//209 184//209
f 273//210 184//210 272//210
f 272//211 184//211 271//211
f 272//212 271//212 275//212
f 275//213 271//213 270//213
f 275//214 270//214 276//214
f 276//215 270//215 269//215
f 276//216 269//216 277//216
f 277//217 269//217 268//217
f 277//218 268//218 265//218
f 265//219 268//219 267//219
f 265//220 267//220 266//220
f 278//221 279//221 280//221
f 281//222 282//222 283//222
f 283//223 282//223 284//223
f 284//224 282//224 285//224
f 286//225 287//225 288//225
f 288//226 287//226 289//226
f 288//227 289//227 290//227
f 290//228 289//228 291//228
f 292//229 293//229 294//229
f 294//230 293//230 295//230
f 294//231 295//231 296//231
f 296//232 295//232 297//232
f 296//233 297//233 298//233
f 298//234 297//234 299//234
f 298//235 299//235 300//235
f 301//236 302//236 303//236
f 304//237 305//237 306//237
f 306//238 305//238 307//238
f 308//239 309//239 304//239
f 310//240 311//240 312//240
f 313//241 314//241 315//241
f 316//242 317//242 318//242
f 318//243 317//243 319//243
f 278//244 320//244 321//244
f 321//245 320//245 322//245
f 323//246 324//246 325//246
f 325//247 324//247 326//247
f 325//248 326//248 327//248
f 328//249 329//249 330//249
f 331//250 332//250 333//250
f 334//251 307//251 335//251
f 335//252 303//252 334//252
f 336//253 337//253 338//253
f 338//254 337//254 339//254
f 338//255 339//255 340//255
f 340//256 339//256 341//256
f 189//257 342//257 190//257
f 343//258 313//258 344//258
f 343//259 344//259 345//259
f 345//260 344//260 333//260
f 345//261 333//261 346//261
f 346//262 333//262 332//262
f 347//263 328//263 348//263
f 348//264 328//264 330//264
f 348//265 330//265 349//265
f 350//266 347//266 348//266
f 350//267 348//267 351//267
f 351//268 352//268 323//268
f 353//269 319//269 354//269
f 323//270 325//270 351//270
f 351//271 325//271 355//271
f 351//272 355//272 350//272
f 356//273 281//273 283//273
f 356//274 283//274 357//274
f 358//275 359//275 360//275
f 361//276 329//276 328//276
f 361//277 328//277 362//277
f 362//278 328//278 347//278
f 288//279 356//279 286//279
f 286//280 356//280 357//280
f 308//281 363//281 364//281
f 308//282 364//282 309//282
f 310//283 313//283 315//283
f 310//284 315//284 311//284
f 363//285 310//285 312//285
f 363//286 312//286 364//286
f 304//287 306//287 308//287
f 320//288 327//288 322//288
f 365//289 264//289 266//289
f 279//290 316//290 280//290
f 366//291 365//291 266//291
f 323//292 352//292 367//292
f 368//293 352//293 349//293
f 369//294 349//294 330//294
f 330//295 329//295 370//295
f 371//296 372//296 373//296
f 374//297 375//297 376//297
f 326//298 377//298 327//298
f 227//299 235//299 378//299
f 379//300 232//300 231//300
f 380//301 231//301 228//301
f 227//302 381//302 225//302
f 225//303 382//303 223//303
f 223//304 383//304 221//304
f 384//305 385//305 386//305
f 387//306 386//306 388//306
f 389//307 390//307 391//307
f 392//308 393//308 394//308
f 392//308 394//308 395//308
f 396//309 397//309 398//309
f 263//310 399//310 212//310
f 263//311 212//311 211//311
f 400//312 401//312 398//312
f 401//313 27//313 398//313
f 224//314 222//314 243//314
f 224//315 243//315 274//315
f 142//316 144//316 402//316
f 142//317 402//317 403//317
f 156//318 157//318 396//318
f 157//319 397//319 396//319
f 404//320 137//320 397//320
f 137//321 405//321 397//321
f 405//322 406//322 397//322
f 157//323 404//323 397//323
f 331//324 333//324 407//324
f 331//325 407//325 408//325
f 405//326 409//326 406//326
f 409//327 393//327 406//327
f 392//328 410//328 400//328
f 410//329 411//329 400//329
f 411//330 401//330 400//330
f 411//331 45//331 401//331
f 45//332 43//332 401//332
f 43//333 412//333 401//333
f 412//334 27//334 401//334
f 412//335 29//335 27//335
f 28//336 413//336 26//336
f 413//337 414//337 26//337
f 414//338 415//338 26//338
f 415//339 416//339 26//339
f 416//340 417//340 26//340
f 416//341 418//341 417//341
f 418//342 419//342 417//342
f 419//343 420//343 417//343
f 420//344 421//344 417//344
f 284//345 285//345 298//345
f 284//346 298//346 300//346
f 422//347 423//347 156//347
f 423//348 424//348 156//348
f 424//349 425//349 156//349
f 425//350 426//350 156//350
f 426//351 427//351 156//351
f 427//352 428//352 156//352
f 428//353 153//353 156//353
f 155//354 404//354 157//354
f 429//355 137//355 404//355
f 155//356 154//356 404//356
f 154//357 429//357 404//357
f 135//358 409//358 137//358
f 409//359 405//359 137//359
f 429//360 139//360 137//360
f 133//361 132//361 430//361
f 133//362 430//362 431//362
f 400//363 406//363 393//363
f 400//363 393//363 392//363
f 409//364 432//364 393//364
f 432//365 431//365 393//365
f 431//366 430//366 393//366
f 430//367 394//367 393//367
f 135//368 432//368 409//368
f 395//369 433//369 392//369
f 433//370 434//370 392//370
f 434//371 435//371 392//371
f 435//372 436//372 392//372
f 436//373 410//373 392//373
f 436//374 47//374 410//374
f 47//375 45//375 410//375
f 45//376 411//376 410//376
f 41//377 437//377 43//377
f 437//378 412//378 43//378
f 437//379 29//379 412//379
f 437//380 31//380 29//380
f 438//381 439//381 440//381
f 438//381 440//381 441//381
f 442//382 413//382 28//382
f 442//382 443//382 413//382
f 443//383 444//383 413//383
f 444//384 414//384 413//384
f 444//385 98//385 414//385
f 98//386 445//386 414//386
f 445//387 415//387 414//387
f 82//388 446//388 447//388
f 82//389 447//389 80//389
f 97//390 448//390 415//390
f 448//391 416//391 415//391
f 448//392 418//392 416//392
f 97//393 99//393 418//393
f 99//393 449//393 418//393
f 185//394 183//394 176//394
f 185//395 176//395 178//395
f 448//396 97//396 418//396
f 450//397 420//397 419//397
f 450//398 81//398 420//398
f 81//398 80//398 420//398
f 80//399 451//399 420//399
f 451//400 421//400 420//400
f 451//401 447//401 421//401
f 447//402 422//402 421//402
f 101//403 452//403 453//403
f 101//404 453//404 96//404
f 428//353 454//353 153//353
f 454//405 455//405 153//405
f 455//406 403//406 153//406
f 357//407 299//407 297//407
f 357//408 297//408 286//408
f 424//409 423//409 422//409
f 446//410 82//410 424//410
f 82//411 456//411 424//411
f 456//412 425//412 424//412
f 456//413 457//413 425//413
f 457//414 426//414 425//414
f 458//415 427//415 426//415
f 457//416 459//416 426//416
f 459//417 460//417 426//417
f 460//418 458//418 426//418
f 454//419 428//419 427//419
f 458//420 460//420 427//420
f 460//421 455//421 427//421
f 455//422 454//422 427//422
f 461//423 139//423 429//423
f 154//424 402//424 429//424
f 402//425 144//425 429//425
f 144//426 145//426 429//426
f 145//427 461//427 429//427
f 329//428 360//428 219//428
f 329//428 219//428 221//428
f 461//429 152//429 139//429
f 376//430 462//430 463//430
f 376//430 463//430 385//430
f 67//431 64//431 134//431
f 67//432 134//432 136//432
f 67//433 136//433 138//433
f 21//434 464//434 465//434
f 21//435 465//435 23//435
f 120//436 466//436 122//436
f 120//437 122//437 121//437
f 64//438 131//438 134//438
f 467//439 315//439 394//439
f 315//440 314//440 394//440
f 314//441 342//441 394//441
f 186//442 214//442 175//442
f 186//443 175//443 187//443
f 430//444 468//444 394//444
f 468//445 469//445 394//445
f 469//446 470//446 394//446
f 470//447 471//447 394//447
f 472//448 473//448 395//448
f 472//449 395//449 206//449
f 301//450 303//450 394//450
f 303//451 335//451 394//451
f 335//452 467//452 394//452
f 242//453 474//453 277//453
f 242//454 277//454 265//454
f 469//455 468//455 430//455
f 107//456 39//456 42//456
f 107//457 42//457 105//457
f 189//458 188//458 395//458
f 188//459 191//459 395//459
f 191//460 193//460 395//460
f 193//461 475//461 395//461
f 475//462 209//462 395//462
f 209//463 207//463 395//463
f 207//464 206//464 395//464
f 403//465 402//465 154//465
f 403//466 154//466 153//466
f 473//467 465//467 395//467
f 465//468 464//468 395//468
f 464//469 433//469 395//469
f 130//470 469//470 430//470
f 130//471 430//471 132//471
f 48//472 18//472 46//472
f 48//473 46//473 47//473
f 436//474 435//474 434//474
f 266//475 267//475 247//475
f 266//476 247//476 476//476
f 477//477 478//477 479//477
f 477//478 479//478 480//478
f 69//479 67//479 138//479
f 69//480 138//480 141//480
f 105//481 44//481 46//481
f 105//482 42//482 44//482
f 40//483 481//483 41//483
f 481//484 437//484 41//484
f 481//485 35//485 437//485
f 35//486 33//486 437//486
f 33//487 31//487 437//487
f 111//488 105//488 46//488
f 111//489 46//489 18//489
f 32//490 482//490 30//490
f 482//491 483//491 30//491
f 483//492 484//492 30//492
f 485//493 442//493 484//493
f 483//494 482//494 484//494
f 482//495 486//495 484//495
f 486//496 485//496 484//496
f 485//497 486//497 442//497
f 486//498 487//498 442//498
f 487//499 443//499 442//499
f 487//500 444//500 443//500
f 488//501 98//501 444//501
f 487//502 489//502 444//502
f 489//503 490//503 444//503
f 490//504 491//504 444//504
f 491//505 488//505 444//505
f 488//506 99//506 98//506
f 488//507 492//507 99//507
f 492//508 449//508 99//508
f 492//509 493//509 449//509
f 493//510 450//510 449//510
f 493//511 494//511 450//511
f 494//512 81//512 450//512
f 495//513 82//513 81//513
f 494//514 495//514 81//514
f 134//515 135//515 137//515
f 134//516 137//516 136//516
f 447//517 451//517 80//517
f 496//518 497//518 498//518
f 496//519 498//519 499//519
f 455//520 500//520 403//520
f 500//521 501//521 403//521
f 501//522 142//522 403//522
f 502//523 503//523 486//523
f 502//524 486//524 482//524
f 504//525 505//525 455//525
f 505//526 500//526 455//526
f 495//527 456//527 82//527
f 495//528 506//528 456//528
f 506//529 83//529 456//529
f 83//530 507//530 456//530
f 507//531 459//531 456//531
f 459//532 457//532 456//532
f 507//533 83//533 459//533
f 83//534 508//534 459//534
f 508//535 460//535 459//535
f 509//536 150//536 461//536
f 150//537 152//537 461//537
f 145//538 148//538 461//538
f 148//539 509//539 461//539
f 216//540 215//540 186//540
f 216//541 186//541 182//541
f 151//542 69//542 140//542
f 69//543 141//543 140//543
f 64//544 510//544 131//544
f 510//545 128//545 131//545
f 63//546 510//546 64//546
f 364//547 312//547 467//547
f 312//548 311//548 467//548
f 311//549 315//549 467//549
f 335//550 307//550 467//550
f 307//551 305//551 467//551
f 305//552 304//552 467//552
f 304//553 309//553 467//553
f 309//554 364//554 467//554
f 19//555 48//555 434//555
f 19//556 434//556 433//556
f 343//557 190//557 342//557
f 471//558 470//558 469//558
f 151//559 140//559 139//559
f 151//560 139//560 152//560
f 511//561 512//561 471//561
f 512//562 341//562 471//562
f 341//563 339//563 471//563
f 339//564 337//564 471//564
f 129//565 513//565 471//565
f 513//566 514//566 471//566
f 514//567 515//567 471//567
f 515//568 516//568 471//568
f 516//569 125//569 471//569
f 125//570 511//570 471//570
f 337//571 336//571 301//571
f 336//572 302//572 301//572
f 302//573 336//573 303//573
f 227//574 352//574 368//574
f 227//574 368//574 381//574
f 190//575 343//575 188//575
f 517//576 241//576 265//576
f 517//577 265//577 264//577
f 195//578 475//578 193//578
f 195//579 196//579 475//579
f 196//580 198//580 475//580
f 198//581 199//581 475//581
f 199//582 201//582 475//582
f 201//583 202//583 475//583
f 202//584 204//584 475//584
f 204//585 210//585 475//585
f 210//586 209//586 475//586
f 210//587 208//587 209//587
f 518//588 334//588 303//588
f 518//589 303//589 336//589
f 262//590 205//590 207//590
f 205//591 262//591 206//591
f 262//592 472//592 206//592
f 472//593 213//593 473//593
f 213//594 212//594 473//594
f 212//595 399//595 473//595
f 399//596 519//596 473//596
f 519//597 520//597 473//597
f 520//598 521//598 473//598
f 521//599 12//599 473//599
f 12//600 17//600 473//600
f 17//601 16//601 473//601
f 16//602 522//602 473//602
f 522//603 523//603 473//603
f 523//604 524//604 473//604
f 524//605 465//605 473//605
f 524//606 23//606 465//606
f 130//607 129//607 471//607
f 130//608 471//608 469//608
f 20//609 111//609 18//609
f 525//610 113//610 111//610
f 20//611 525//611 111//611
f 98//612 97//612 415//612
f 98//613 415//613 445//613
f 526//614 481//614 40//614
f 527//615 37//615 481//615
f 37//616 35//616 481//616
f 526//617 528//617 481//617
f 528//618 527//618 481//618
f 107//619 529//619 39//619
f 34//620 86//620 32//620
f 86//621 88//621 32//621
f 88//622 530//622 32//622
f 530//623 531//623 32//623
f 531//624 482//624 32//624
f 531//625 532//625 482//625
f 532//626 502//626 482//626
f 48//627 47//627 436//627
f 48//628 436//628 434//628
f 503//629 487//629 486//629
f 503//630 490//630 487//630
f 490//631 489//631 487//631
f 491//632 533//632 488//632
f 533//633 534//633 488//633
f 534//634 492//634 488//634
f 535//635 536//635 537//635
f 535//636 537//636 538//636
f 533//637 491//637 490//637
f 503//638 480//638 490//638
f 480//639 539//639 490//639
f 539//640 540//640 490//640
f 540//641 541//641 490//641
f 534//642 542//642 492//642
f 542//643 543//643 492//643
f 543//644 544//644 492//644
f 544//645 545//645 492//645
f 546//646 547//646 151//646
f 546//647 151//647 149//647
f 545//648 548//648 494//648
f 548//649 549//649 494//649
f 549//650 550//650 494//650
f 550//651 551//651 494//651
f 551//652 495//652 494//652
f 551//653 84//653 495//653
f 84//654 506//654 495//654
f 501//655 552//655 142//655
f 552//656 553//656 142//656
f 553//657 554//657 142//657
f 555//658 556//658 149//658
f 555//659 149//659 147//659
f 505//660 557//660 500//660
f 557//661 558//661 500//661
f 558//662 559//662 500//662
f 559//663 501//663 500//663
f 559//664 558//664 501//664
f 558//665 560//665 501//665
f 560//666 552//666 501//666
f 211//667 213//667 472//667
f 211//668 472//668 262//668
f 561//669 562//669 504//669
f 562//670 505//670 504//670
f 562//671 557//671 505//671
f 84//672 83//672 506//672
f 85//673 563//673 83//673
f 563//674 564//674 83//674
f 564//675 565//675 83//675
f 565//676 508//676 83//676
f 148//677 150//677 509//677
f 462//678 566//678 143//678
f 567//679 463//679 34//679
f 567//680 34//680 36//680
f 246//681 256//681 345//681
f 246//682 345//682 346//682
f 484//683 442//683 28//683
f 484//684 28//684 30//684
f 21//685 19//685 433//685
f 21//686 433//686 464//686
f 547//687 72//687 151//687
f 72//688 69//688 151//688
f 73//689 568//689 70//689
f 568//690 71//690 70//690
f 568//691 68//691 71//691
f 568//692 66//692 68//692
f 568//693 569//693 66//693
f 569//694 65//694 66//694
f 510//695 126//695 128//695
f 63//696 65//696 510//696
f 65//697 570//697 510//697
f 570//698 571//698 510//698
f 571//699 572//699 510//699
f 572//700 123//700 510//700
f 123//701 573//701 510//701
f 573//702 574//702 510//702
f 574//703 575//703 510//703
f 575//704 576//704 510//704
f 576//705 577//705 510//705
f 577//706 126//706 510//706
f 569//707 571//707 65//707
f 571//708 570//708 65//708
f 334//709 578//709 307//709
f 578//710 306//710 307//710
f 579//711 408//711 580//711
f 579//712 580//712 581//712
f 365//713 366//713 579//713
f 365//714 579//714 582//714
f 583//715 584//715 36//715
f 583//716 36//716 38//716
f 585//717 512//717 511//717
f 125//718 124//718 511//718
f 124//719 122//719 511//719
f 122//720 585//720 511//720
f 585//721 164//721 512//721
f 164//722 163//722 512//722
f 163//723 341//723 512//723
f 163//724 162//724 341//724
f 162//725 586//725 341//725
f 586//726 340//726 341//726
f 127//727 513//727 129//727
f 127//728 515//728 513//728
f 515//729 514//729 513//729
f 127//730 126//730 515//730
f 126//731 577//731 515//731
f 577//732 576//732 515//732
f 576//733 516//733 515//733
f 576//734 575//734 516//734
f 575//735 574//735 516//735
f 529//736 587//736 528//736
f 529//737 528//737 526//737
f 573//738 123//738 125//738
f 298//739 518//739 336//739
f 298//740 336//740 296//740
f 588//741 589//741 282//741
f 588//742 282//742 281//742
f 518//743 578//743 334//743
f 590//744 581//744 588//744
f 590//745 588//745 591//745
f 203//746 260//746 210//746
f 260//747 208//747 210//747
f 337//748 301//748 394//748
f 337//749 394//749 471//749
f 349//750 352//750 351//750
f 349//751 351//751 348//751
f 263//752 592//752 399//752
f 592//753 8//753 399//753
f 8//754 7//754 399//754
f 7//755 593//755 399//755
f 593//756 519//756 399//756
f 593//757 6//757 519//757
f 6//758 520//758 519//758
f 6//759 5//759 520//759
f 5//760 9//760 520//760
f 9//761 11//761 520//761
f 11//762 521//762 520//762
f 11//763 12//763 521//763
f 508//764 504//764 455//764
f 508//765 455//765 460//765
f 594//766 564//766 563//766
f 594//767 563//767 595//767
f 596//768 597//768 522//768
f 597//769 24//769 522//769
f 24//770 523//770 522//770
f 24//771 524//771 523//771
f 24//772 25//772 524//772
f 25//773 23//773 524//773
f 22//774 525//774 20//774
f 598//775 599//775 525//775
f 599//776 600//776 525//776
f 600//777 112//777 525//777
f 112//778 113//778 525//778
f 22//779 24//779 525//779
f 24//780 597//780 525//780
f 597//781 596//781 525//781
f 596//782 15//782 525//782
f 15//783 14//783 525//783
f 14//784 13//784 525//784
f 13//785 601//785 525//785
f 601//786 598//786 525//786
f 600//787 599//787 112//787
f 599//788 602//788 112//788
f 602//789 110//789 112//789
f 602//790 603//790 110//790
f 603//791 103//791 110//791
f 603//792 104//792 103//792
f 603//793 106//793 104//793
f 603//794 108//794 106//794
f 109//795 529//795 107//795
f 587//796 38//796 37//796
f 587//797 37//797 528//797
f 528//798 37//798 527//798
f 214//799 604//799 605//799
f 214//800 605//800 173//800
f 109//801 606//801 529//801
f 566//802 607//802 146//802
f 566//803 146//803 143//803
f 608//804 371//804 388//804
f 608//804 388//804 390//804
f 584//805 567//805 36//805
f 494//806 493//806 492//806
f 494//807 492//807 545//807
f 463//808 609//808 34//808
f 609//809 86//809 34//809
f 609//810 87//810 86//810
f 87//811 609//811 88//811
f 609//812 172//812 88//812
f 172//813 610//813 88//813
f 610//814 611//814 88//814
f 611//815 530//815 88//815
f 611//816 612//816 530//816
f 612//817 613//817 530//817
f 613//818 531//818 530//818
f 613//819 612//819 531//819
f 612//820 478//820 531//820
f 478//821 532//821 531//821
f 478//822 614//822 532//822
f 614//823 502//823 532//823
f 614//824 477//824 502//824
f 565//825 561//825 504//825
f 565//826 504//826 508//826
f 542//827 534//827 533//827
f 540//828 542//828 541//828
f 479//829 100//829 480//829
f 100//830 102//830 480//830
f 102//831 615//831 480//831
f 615//832 539//832 480//832
f 565//833 616//833 557//833
f 565//834 557//834 561//834
f 617//835 91//835 539//835
f 91//836 618//836 539//836
f 421//837 422//837 156//837
f 421//838 156//838 417//838
f 615//839 102//839 539//839
f 102//840 617//840 539//840
f 619//841 620//841 540//841
f 620//842 542//842 540//842
f 620//843 621//843 542//843
f 621//844 543//844 542//844
f 621//845 622//845 543//845
f 622//846 623//846 543//846
f 623//847 544//847 543//847
f 623//848 548//848 544//848
f 548//849 545//849 544//849
f 623//850 549//850 548//850
f 623//851 624//851 549//851
f 624//852 625//852 549//852
f 625//650 550//650 549//650
f 625//853 626//853 550//853
f 626//854 563//854 550//854
f 563//855 85//855 550//855
f 85//856 84//856 550//856
f 84//857 551//857 550//857
f 560//858 627//858 552//858
f 627//859 628//859 552//859
f 628//860 554//860 552//860
f 554//861 553//861 552//861
f 628//862 462//862 554//862
f 628//863 629//863 462//863
f 629//864 170//864 463//864
f 629//864 463//864 462//864
f 441//865 440//865 630//865
f 441//865 630//865 631//865
f 376//866 566//866 462//866
f 562//867 561//867 557//867
f 529//868 526//868 40//868
f 529//869 40//869 39//869
f 479//870 478//870 612//870
f 479//871 612//871 632//871
f 438//872 633//872 622//872
f 438//873 622//873 439//873
f 634//874 635//874 558//874
f 635//875 560//875 558//875
f 635//876 627//876 560//876
f 626//877 595//877 563//877
f 618//878 619//878 540//878
f 618//879 540//879 539//879
f 594//880 537//880 564//880
f 537//881 636//881 564//881
f 636//882 637//882 564//882
f 637//883 638//883 564//883
f 638//884 565//884 564//884
f 638//885 637//885 565//885
f 637//886 639//886 565//886
f 639//887 616//887 565//887
f 556//888 546//888 149//888
f 376//889 607//889 566//889
f 376//890 555//890 607//890
f 376//891 556//891 555//891
f 546//892 376//892 547//892
f 376//893 72//893 547//893
f 376//894 73//894 72//894
f 376//895 640//895 73//895
f 640//896 568//896 73//896
f 640//897 375//897 568//897
f 375//898 372//898 568//898
f 372//899 371//899 568//899
f 371//900 608//900 568//900
f 608//901 641//901 568//901
f 641//902 642//902 568//902
f 642//903 643//903 568//903
f 643//904 572//904 568//904
f 572//905 569//905 568//905
f 572//906 571//906 569//906
f 643//907 120//907 572//907
f 120//908 121//908 572//908
f 121//909 123//909 572//909
f 589//910 644//910 285//910
f 589//911 285//911 282//911
f 582//912 579//912 581//912
f 582//913 581//913 590//913
f 581//914 580//914 589//914
f 581//915 589//915 588//915
f 645//916 646//916 310//916
f 645//917 310//917 363//917
f 366//918 331//918 408//918
f 366//919 408//919 579//919
f 256//920 192//920 343//920
f 256//921 343//921 345//921
f 122//922 466//922 585//922
f 466//923 160//923 585//923
f 160//924 161//924 585//924
f 161//925 165//925 585//925
f 165//926 164//926 585//926
f 143//927 146//927 145//927
f 143//928 145//928 144//928
f 159//929 169//929 162//929
f 169//930 647//930 162//930
f 647//931 586//931 162//931
f 647//932 340//932 586//932
f 538//933 537//933 594//933
f 538//934 594//934 595//934
f 616//935 648//935 558//935
f 616//936 558//936 557//936
f 285//937 578//937 518//937
f 285//938 518//938 298//938
f 173//939 605//939 263//939
f 605//940 592//940 263//940
f 605//941 8//941 592//941
f 605//942 604//942 8//942
f 604//943 4//943 8//943
f 4//944 593//944 7//944
f 4//945 6//945 593//945
f 10//946 50//946 11//946
f 50//947 649//947 11//947
f 649//948 601//948 11//948
f 649//949 60//949 601//949
f 60//950 598//950 601//950
f 60//951 603//951 598//951
f 603//952 602//952 598//952
f 602//953 599//953 598//953
f 391//954 390//954 603//954
f 390//955 388//955 603//955
f 388//956 386//956 603//956
f 386//957 650//957 603//957
f 650//958 108//958 603//958
f 60//951 59//951 603//951
f 59//959 391//959 603//959
f 650//960 385//960 108//960
f 385//961 109//961 108//961
f 385//962 606//962 109//962
f 651//963 652//963 587//963
f 462//964 143//964 142//964
f 462//965 142//965 554//965
f 385//966 651//966 606//966
f 652//967 385//967 583//967
f 385//968 584//968 583//968
f 385//969 567//969 584//969
f 385//970 463//970 567//970
f 170//971 172//971 463//971
f 172//972 609//972 463//972
f 170//973 629//973 628//973
f 170//974 628//974 653//974
f 170//975 653//975 171//975
f 171//976 95//976 172//976
f 95//977 610//977 172//977
f 95//978 453//978 610//978
f 453//979 611//979 610//979
f 453//980 612//980 611//980
f 453//981 452//981 612//981
f 654//982 634//982 558//982
f 654//983 558//983 648//983
f 406//984 400//984 398//984
f 406//985 398//985 397//985
f 477//986 614//986 478//986
f 632//987 100//987 479//987
f 632//988 101//988 100//988
f 101//989 655//989 102//989
f 655//990 96//990 102//990
f 96//991 89//991 102//991
f 89//992 617//992 102//992
f 89//993 91//993 617//993
f 90//994 93//994 91//994
f 596//995 522//995 16//995
f 596//996 16//996 15//996
f 93//997 92//997 619//997
f 92//998 620//998 619//998
f 92//999 622//999 620//999
f 622//1000 621//1000 620//1000
f 92//1001 656//1001 622//1001
f 656//1002 657//1002 622//1002
f 657//1003 439//1003 622//1003
f 601//1004 13//1004 12//1004
f 601//1005 12//1005 11//1005
f 633//1006 623//1006 622//1006
f 633//1007 624//1007 623//1007
f 633//1008 438//1008 624//1008
f 438//1009 658//1009 624//1009
f 658//1010 659//1010 624//1010
f 659//1011 660//1011 624//1011
f 660//1012 626//1012 624//1012
f 626//1013 625//1013 624//1013
f 660//1014 595//1014 626//1014
f 635//1015 75//1015 627//1015
f 75//1016 628//1016 627//1016
f 75//1017 653//1017 628//1017
f 385//1018 384//1018 374//1018
f 385//1018 374//1018 376//1018
f 375//1019 640//1019 376//1019
f 546//1020 556//1020 376//1020
f 639//1021 648//1021 616//1021
f 639//1022 654//1022 648//1022
f 497//1023 661//1023 662//1023
f 497//1024 662//1024 498//1024
f 74//1025 76//1025 635//1025
f 76//1026 75//1026 635//1026
f 660//1027 538//1027 595//1027
f 93//1028 619//1028 618//1028
f 93//1029 618//1029 91//1029
f 286//1030 297//1030 295//1030
f 286//1031 295//1031 287//1031
f 536//1032 636//1032 537//1032
f 536//1033 637//1033 636//1033
f 536//1034 74//1034 637//1034
f 74//1035 663//1035 637//1035
f 663//1036 654//1036 637//1036
f 654//1037 639//1037 637//1037
f 374//1038 384//1038 386//1038
f 374//1038 386//1038 375//1038
f 386//1039 372//1039 375//1039
f 386//1040 387//1040 372//1040
f 387//1041 373//1041 372//1041
f 373//1042 387//1042 388//1042
f 373//1042 388//1042 371//1042
f 606//1043 651//1043 587//1043
f 606//1044 587//1044 529//1044
f 390//1045 389//1045 664//1045
f 390//1045 664//1045 608//1045
f 664//1046 641//1046 608//1046
f 664//1047 389//1047 391//1047
f 664//1048 391//1048 641//1048
f 261//1049 262//1049 207//1049
f 261//1050 207//1050 208//1050
f 359//1051 665//1051 641//1051
f 665//1052 666//1052 641//1052
f 666//1053 642//1053 641//1053
f 666//1054 643//1054 642//1054
f 666//1055 667//1055 643//1055
f 667//1056 117//1056 643//1056
f 117//1057 120//1057 643//1057
f 119//1058 466//1058 120//1058
f 580//1059 668//1059 644//1059
f 580//1060 644//1060 589//1060
f 645//1061 363//1061 308//1061
f 645//1062 308//1062 669//1062
f 668//1063 407//1063 646//1063
f 668//1064 646//1064 645//1064
f 333//1065 344//1065 646//1065
f 333//1066 646//1066 407//1066
f 332//1067 246//1067 346//1067
f 332//1068 247//1068 246//1068
f 119//1069 160//1069 466//1069
f 119//1070 670//1070 159//1070
f 670//1071 115//1071 159//1071
f 115//1072 114//1072 159//1072
f 671//1073 672//1073 653//1073
f 671//1074 653//1074 75//1074
f 168//1075 673//1075 169//1075
f 673//1076 291//1076 169//1076
f 291//1077 293//1077 169//1077
f 292//1078 294//1078 647//1078
f 130//1079 132//1079 134//1079
f 130//1080 134//1080 131//1080
f 674//1081 656//1081 92//1081
f 674//1082 92//1082 90//1082
f 187//1083 175//1083 176//1083
f 187//1084 176//1084 183//1084
f 357//1085 300//1085 299//1085
f 449//1086 450//1086 419//1086
f 449//1087 419//1087 418//1087
f 591//1088 588//1088 281//1088
f 591//1089 281//1089 355//1089
f 306//1090 578//1090 669//1090
f 306//1091 669//1091 308//1091
f 283//1092 284//1092 300//1092
f 283//1093 300//1093 357//1093
f 185//1094 178//1094 179//1094
f 675//1095 676//1095 536//1095
f 675//1096 536//1096 535//1096
f 541//1097 542//1097 533//1097
f 541//1098 533//1098 490//1098
f 184//1099 185//1099 255//1099
f 184//1100 255//1100 271//1100
f 289//1101 287//1101 295//1101
f 289//1102 295//1102 293//1102
f 214//1103 215//1103 604//1103
f 215//1104 217//1104 604//1104
f 217//1105 62//1105 604//1105
f 62//1106 4//1106 604//1106
f 62//1107 3//1107 4//1107
f 54//1108 10//1108 4//1108
f 54//1109 55//1109 10//1109
f 49//1110 56//1110 50//1110
f 56//1111 677//1111 50//1111
f 677//1112 678//1112 50//1112
f 678//1113 61//1113 50//1113
f 61//1114 60//1114 50//1114
f 60//1115 649//1115 50//1115
f 59//1116 679//1116 391//1116
f 679//1117 680//1117 391//1117
f 680//1118 220//1118 391//1118
f 385//1119 650//1119 386//1119
f 61//1120 679//1120 59//1120
f 652//1121 651//1121 385//1121
f 653//1122 681//1122 498//1122
f 653//1122 498//1122 171//1122
f 498//1123 662//1123 171//1123
f 255//1124 185//1124 179//1124
f 255//1125 179//1125 181//1125
f 682//1126 683//1126 95//1126
f 683//1127 96//1127 95//1127
f 94//1128 453//1128 95//1128
f 661//1129 497//1129 95//1129
f 497//1130 682//1130 95//1130
f 94//1131 96//1131 453//1131
f 654//1132 74//1132 635//1132
f 654//1133 635//1133 634//1133
f 96//1134 655//1134 101//1134
f 683//1135 684//1135 96//1135
f 684//1136 89//1136 96//1136
f 684//1137 685//1137 89//1137
f 447//1138 446//1138 424//1138
f 447//1139 424//1139 422//1139
f 675//1140 535//1140 660//1140
f 675//1141 660//1141 659//1141
f 674//1142 686//1142 656//1142
f 686//1143 657//1143 656//1143
f 686//1144 439//1144 657//1144
f 686//1145 440//1145 439//1145
f 192//1146 191//1146 188//1146
f 192//1147 188//1147 343//1147
f 441//1148 687//1148 438//1148
f 687//1149 658//1149 438//1149
f 687//1150 659//1150 658//1150
f 687//1151 675//1151 659//1151
f 535//1152 538//1152 660//1152
f 74//1153 77//1153 75//1153
f 77//1154 79//1154 75//1154
f 79//1155 688//1155 75//1155
f 688//1156 671//1156 75//1156
f 661//1157 95//1157 171//1157
f 661//1158 171//1158 662//1158
f 672//1159 681//1159 653//1159
f 663//1160 74//1160 654//1160
f 536//1161 78//1161 74//1161
f 78//1162 77//1162 74//1162
f 685//1163 674//1163 90//1163
f 685//1164 90//1164 89//1164
f 676//1165 78//1165 536//1165
f 574//1166 573//1166 125//1166
f 574//1167 125//1167 516//1167
f 358//1168 167//1168 359//1168
f 167//1169 166//1169 359//1169
f 166//1170 665//1170 359//1170
f 689//1171 666//1171 665//1171
f 166//1172 114//1172 665//1172
f 114//1173 690//1173 665//1173
f 690//1174 691//1174 665//1174
f 691//1175 689//1175 665//1175
f 689//1176 667//1176 666//1176
f 689//1177 118//1177 667//1177
f 118//1178 117//1178 667//1178
f 158//1179 670//1179 119//1179
f 668//1180 645//1180 669//1180
f 668//1181 669//1181 644//1181
f 344//1182 313//1182 310//1182
f 344//1183 310//1183 646//1183
f 476//1184 332//1184 331//1184
f 417//1185 156//1185 396//1185
f 417//1186 396//1186 398//1186
f 476//1187 247//1187 332//1187
f 133//1188 431//1188 432//1188
f 133//1189 432//1189 135//1189
f 158//1190 691//1190 670//1190
f 691//1191 690//1191 670//1191
f 690//1192 116//1192 670//1192
f 116//1193 115//1193 670//1193
f 116//1194 690//1194 114//1194
f 167//1195 360//1195 168//1195
f 360//1196 692//1196 168//1196
f 692//1197 693//1197 168//1197
f 693//1198 673//1198 168//1198
f 291//1199 289//1199 293//1199
f 290//1200 291//1200 673//1200
f 224//1201 274//1201 273//1201
f 224//1202 273//1202 226//1202
f 350//1203 356//1203 288//1203
f 350//1204 288//1204 347//1204
f 350//1205 355//1205 281//1205
f 350//1206 281//1206 356//1206
f 294//1207 296//1207 336//1207
f 294//1208 336//1208 338//1208
f 644//1209 669//1209 578//1209
f 644//1210 578//1210 285//1210
f 294//1211 338//1211 340//1211
f 294//1212 340//1212 647//1212
f 186//1213 215//1213 214//1213
f 293//1214 292//1214 647//1214
f 293//1215 647//1215 169//1215
f 245//1216 62//1216 217//1216
f 245//1217 694//1217 62//1217
f 694//1218 219//1218 62//1218
f 219//1219 1//1219 62//1219
f 2//1220 680//1220 3//1220
f 680//1221 695//1221 3//1221
f 695//1222 57//1222 3//1222
f 52//1223 51//1223 53//1223
f 51//1224 54//1224 53//1224
f 51//1225 696//1225 54//1225
f 696//1226 55//1226 54//1226
f 696//1227 56//1227 55//1227
f 696//1228 697//1228 56//1228
f 697//1229 677//1229 56//1229
f 697//1230 679//1230 677//1230
f 679//1231 678//1231 677//1231
f 679//1232 61//1232 678//1232
f 680//1233 2//1233 220//1233
f 2//1234 1//1234 220//1234
f 1//1235 218//1235 220//1235
f 697//1236 680//1236 679//1236
f 697//1237 696//1237 680//1237
f 696//1238 695//1238 680//1238
f 681//1239 698//1239 498//1239
f 698//1240 499//1240 498//1240
f 496//1241 499//1241 681//1241
f 496//1242 681//1242 688//1242
f 672//1243 671//1243 688//1243
f 672//1244 688//1244 681//1244
f 684//1245 683//1245 682//1245
f 497//1246 630//1246 682//1246
f 630//1247 684//1247 682//1247
f 496//1248 630//1248 497//1248
f 630//1249 699//1249 684//1249
f 699//1250 686//1250 684//1250
f 686//1251 674//1251 684//1251
f 674//1252 685//1252 684//1252
f 699//1253 630//1253 686//1253
f 630//1254 440//1254 686//1254
f 359//1255 641//1255 391//1255
f 359//1255 391//1255 220//1255
f 631//1256 687//1256 441//1256
f 631//1257 700//1257 687//1257
f 700//1258 78//1258 687//1258
f 78//1259 675//1259 687//1259
f 78//1260 676//1260 675//1260
f 78//1261 631//1261 79//1261
f 631//1262 688//1262 79//1262
f 631//1263 496//1263 688//1263
f 477//1264 480//1264 503//1264
f 477//1265 503//1265 502//1265
f 189//1266 395//1266 394//1266
f 189//1267 394//1267 342//1267
f 499//1268 698//1268 681//1268
f 700//1269 631//1269 78//1269
f 266//1270 476//1270 331//1270
f 266//1271 331//1271 366//1271
f 329//1272 361//1272 360//1272
f 361//1273 701//1273 360//1273
f 701//1274 692//1274 360//1274
f 167//1275 358//1275 360//1275
f 691//1276 158//1276 689//1276
f 158//1277 118//1277 689//1277
f 580//1278 408//1278 407//1278
f 580//1279 407//1279 668//1279
f 701//1280 693//1280 692//1280
f 701//1281 361//1281 693//1281
f 361//1282 362//1282 693//1282
f 362//1283 290//1283 673//1283
f 362//1284 673//1284 693//1284
f 347//1285 288//1285 290//1285
f 347//1286 290//1286 362//1286
f 325//1287 327//1287 355//1287
f 327//1288 591//1288 355//1288
f 327//1289 320//1289 591//1289
f 320//1290 278//1290 591//1290
f 278//1291 590//1291 591//1291
f 278//1292 280//1292 590//1292
f 280//1293 316//1293 590//1293
f 316//1294 582//1294 590//1294
f 316//1295 318//1295 582//1295
f 360//1296 359//1296 220//1296
f 360//1296 220//1296 219//1296
f 319//1297 365//1297 582//1297
f 319//1298 582//1298 318//1298
f 474//1299 237//1299 277//1299
f 237//1300 276//1300 277//1300
f 237//1301 236//1301 276//1301
f 236//1302 239//1302 276//1302
f 239//1303 275//1303 276//1303
f 239//1304 229//1304 275//1304
f 229//1305 231//1305 275//1305
f 231//1306 272//1306 275//1306
f 231//1307 233//1307 272//1307
f 652//1308 583//1308 38//1308
f 652//1309 38//1309 587//1309
f 244//1310 702//1310 245//1310
f 702//1311 694//1311 245//1311
f 702//1312 219//1312 694//1312
f 218//1313 1//1313 219//1313
f 702//1314 244//1314 219//1314
f 244//1315 221//1315 219//1315
f 696//1316 57//1316 695//1316
f 51//1317 58//1317 57//1317
f 696//1318 51//1318 57//1318
f 631//1319 630//1319 496//1319
f 221//1320 383//1320 370//1320
f 221//1320 370//1320 329//1320
f 319//1321 353//1321 365//1321
f 353//1322 354//1322 365//1322
f 607//1323 555//1323 147//1323
f 607//1324 147//1324 146//1324
f 354//1325 517//1325 264//1325
f 354//1326 264//1326 365//1326
f 241//1327 240//1327 265//1327
f 240//1328 242//1328 265//1328
f 235//1329 226//1329 233//1329
f 235//1330 233//1330 234//1330
f 377//1331 380//1331 327//1331
f 380//1332 322//1332 327//1332
f 321//1333 703//1333 278//1333
f 703//1334 704//1334 278//1334
f 704//1335 239//1335 278//1335
f 239//1336 705//1336 278//1336
f 705//1337 279//1337 278//1337
f 237//1338 706//1338 316//1338
f 706//1339 317//1339 316//1339
f 279//1340 705//1340 316//1340
f 705//1340 237//1340 316//1340
f 707//1341 708//1341 242//1341
f 707//1342 242//1342 319//1342
f 242//1343 517//1343 319//1343
f 517//1344 354//1344 319//1344
f 317//1345 707//1345 319//1345
f 241//1346 517//1346 242//1346
f 708//1347 709//1347 242//1347
f 709//1348 474//1348 242//1348
f 709//1349 237//1349 474//1349
f 709//1350 706//1350 237//1350
f 705//1351 238//1351 237//1351
f 238//1352 239//1352 236//1352
f 238//1336 705//1336 239//1336
f 704//1353 230//1353 239//1353
f 228//1354 231//1354 229//1354
f 380//1355 377//1355 231//1355
f 377//1356 379//1356 231//1356
f 26//1357 417//1357 398//1357
f 26//1358 398//1358 27//1358
f 101//1359 632//1359 612//1359
f 101//1360 612//1360 452//1360
f 221//1361 244//1361 222//1361
f 383//1362 223//1362 330//1362
f 383//1362 330//1362 370//1362
f 223//1363 382//1363 369//1363
f 223//1363 369//1363 330//1363
f 369//1364 382//1364 225//1364
f 369//1364 225//1364 349//1364
f 225//1365 381//1365 368//1365
f 225//1365 368//1365 349//1365
f 313//1366 343//1366 342//1366
f 313//1367 342//1367 314//1367
f 227//1368 378//1368 352//1368
f 378//1369 367//1369 352//1369
f 367//1370 235//1370 323//1370
f 235//1371 234//1371 324//1371
f 235//1372 324//1372 323//1372
f 234//1373 377//1373 324//1373
f 377//1374 326//1374 324//1374
f 234//1375 379//1375 377//1375
f 228//1376 322//1376 380//1376
f 228//1377 230//1377 321//1377
f 228//1377 321//1377 322//1377
f 230//1378 704//1378 321//1378
f 704//1379 703//1379 321//1379
f 709//1380 317//1380 706//1380
f 709//1381 708//1381 707//1381
f 709//1381 707//1381 317//1381
f 234//1382 232//1382 379//1382
f 367//1383 378//1383 235//1383
