# Blender 4.3.2
# www.blender.org
mtllib right_thumb_1_collision.mtl
o right_thumb_1_collision
v -0.005887 -0.000000 0.002768
v 0.000954 -0.000000 0.009074
v -0.006645 -0.000000 0.002953
v 0.001454 -0.000000 -0.000367
v 0.001151 -0.000000 -0.000961
v 0.006563 -0.000000 -0.006337
v 0.000365 0.014786 0.005666
v 0.000101 0.014964 0.005570
v -0.000925 0.014964 0.008390
v -0.000806 0.015364 0.005240
v -0.001832 0.015364 0.008060
v -0.003777 0.015364 0.007351
v -0.003658 0.014964 0.004202
v -0.004684 0.014964 0.007021
v 0.006563 0.011500 -0.006337
v 0.006263 0.011500 -0.005513
v 0.006263 0.003500 -0.005513
v 0.006217 0.012022 -0.005485
v 0.006435 0.012535 -0.006384
v 0.005849 0.013031 -0.005264
v 0.006060 0.013500 -0.006521
v 0.005534 0.013500 -0.005075
v 0.005138 0.013935 -0.004837
v 0.005462 0.014328 -0.006738
v 0.004668 0.014328 -0.004555
v 0.003922 0.014786 -0.004106
v 0.004684 0.014964 -0.007021
v -0.000101 0.014964 -0.005570
v 0.000925 0.014964 -0.008390
v 0.000147 0.014328 -0.008673
v -0.011175 -0.000000 0.001466
v -0.012201 -0.000000 0.004285
v -0.013073 0.000147 0.003968
v -0.012832 0.000573 0.000863
v -0.013859 0.000573 0.003682
v -0.014482 0.001237 0.003455
v -0.013857 0.002073 0.000490
v -0.014883 0.002073 0.003309
v -0.015021 0.003000 0.003259
v -0.014482 0.004763 0.003455
v -0.013857 0.003927 0.000490
v -0.014883 0.003927 0.003309
v -0.004436 0.014328 0.003919
v -0.008249 0.005427 -0.011729
v -0.012832 0.005427 0.000863
v -0.009273 0.003927 -0.012102
v -0.008873 0.004763 -0.011956
v -0.009411 0.003000 -0.012152
v -0.006592 0.006000 -0.011126
v -0.006592 -0.000000 -0.011126
v -0.008249 0.000573 -0.011729
v -0.008873 0.001237 -0.011956
v -0.009273 0.002073 -0.012102
v 0.003777 0.015364 -0.007351
v -0.000451 0.013500 -0.008890
v 0.003118 0.012462 -0.007591
v 0.004214 0.011000 -0.007192
v -0.007618 -0.000000 -0.008307
v -0.007464 0.000147 -0.011443
v -0.001151 -0.000000 0.000961
v -0.012813 0.001649 0.004063
v -0.012813 0.004351 0.004063
v -0.013859 0.005427 0.003682
v -0.005462 0.014328 0.006738
v 0.001832 0.015364 -0.008060
v 0.000954 0.011500 0.009074
v -0.000147 0.014328 0.008673
v -0.004075 0.011651 0.007243
v -0.004075 0.010349 0.007243
v 0.000806 0.015364 -0.005240
v 0.002805 0.015500 -0.007705
v 0.001779 0.015500 -0.004886
v -0.002805 0.015500 0.007705
v -0.001779 0.015500 0.004886
v 0.000826 0.013935 0.007008
v 0.000451 0.013500 0.008890
v 0.001097 0.013031 0.007792
v 0.000826 0.012535 0.009027
v 0.001236 0.012022 0.008198
vn -0.0000 -1.0000 -0.0000
vn 0.5033 0.8445 0.1832
vn 0.3596 0.9239 0.1309
vn -0.3596 0.9239 -0.1309
vn 0.9397 -0.0000 0.3420
vn 0.9377 0.0654 0.3413
vn 0.9437 0.1304 0.3039
vn 0.8772 0.3825 0.2902
vn 0.8428 0.4423 0.3067
vn 0.7813 0.5556 0.2844
vn 0.7516 0.6087 0.2544
vn 0.7065 0.6593 0.2571
vn 0.6025 0.7674 0.2193
vn 0.5754 0.7933 0.1989
vn -0.5720 0.7934 -0.2082
vn -0.1470 -0.9877 -0.0535
vn -0.6645 -0.7071 -0.2418
vn -0.9281 -0.1564 -0.3378
vn -0.8373 0.4540 -0.3047
vn -0.6632 0.7084 -0.2414
vn 0.3420 -0.0000 -0.9397
vn -0.9281 0.1564 -0.3378
vn -0.6645 0.7071 -0.2418
vn -0.4266 -0.8910 -0.1553
vn -0.8373 -0.4540 -0.3047
vn -0.3420 -0.0000 0.9397
vn 0.3425 -0.0003 -0.9395
vn -0.5721 0.7934 -0.2082
vn -0.1227 0.9914 -0.0446
vn 0.1227 0.9914 0.0446
vn -0.6635 0.7083 -0.2409
vn -0.0000 1.0000 -0.0000
vn 0.1789 0.9839 -0.0000
vn 0.8898 0.3214 0.3239
vn 0.9216 0.1951 0.3354
vn 0.9183 0.1304 0.3738
vn 0.7392 0.6087 0.2882
vn 0.5686 0.7933 0.2175
vn 0.8428 0.4423 0.3068
vn 0.8585 0.3825 0.3415
s 0
f 1//1 2//1 3//1
f 4//1 5//1 6//1
f 7//2 8//2 9//2
f 9//3 8//3 10//3
f 9//3 10//3 11//3
f 12//4 13//4 14//4
f 15//5 16//5 17//5
f 17//5 2//5 6//5
f 17//5 6//5 15//5
f 16//6 15//6 18//6
f 18//7 15//7 19//7
f 20//8 19//8 21//8
f 20//9 21//9 22//9
f 22//10 21//10 23//10
f 23//11 21//11 24//11
f 23//12 24//12 25//12
f 25//13 24//13 26//13
f 26//14 24//14 27//14
f 28//15 29//15 30//15
f 31//16 32//16 33//16
f 34//17 35//17 36//17
f 37//18 38//18 39//18
f 40//19 41//19 42//19
f 43//20 30//20 44//20
f 43//20 44//20 45//20
f 46//21 47//21 48//21
f 47//21 44//21 48//21
f 44//21 49//21 48//21
f 49//21 50//21 48//21
f 50//21 51//21 48//21
f 51//21 52//21 48//21
f 52//21 53//21 48//21
f 53//18 37//18 48//18
f 37//18 39//18 48//18
f 39//22 41//22 48//22
f 41//22 46//22 48//22
f 41//19 47//19 46//19
f 41//19 40//19 47//19
f 40//23 44//23 47//23
f 40//23 45//23 44//23
f 10//3 8//3 27//3
f 10//3 27//3 54//3
f 30//21 29//21 44//21
f 29//21 55//21 44//21
f 55//21 49//21 44//21
f 55//21 29//21 49//21
f 29//21 56//21 49//21
f 56//21 57//21 49//21
f 5//1 58//1 50//1
f 5//1 50//1 6//1
f 58//16 59//16 50//16
f 59//21 51//21 50//21
f 24//21 15//21 57//21
f 24//21 57//21 56//21
f 5//1 4//1 60//1
f 5//1 60//1 1//1
f 5//1 1//1 3//1
f 5//1 3//1 32//1
f 5//1 32//1 31//1
f 5//1 31//1 58//1
f 33//24 34//24 51//24
f 34//17 36//17 51//17
f 36//17 52//17 51//17
f 59//24 33//24 51//24
f 36//25 37//25 52//25
f 37//25 53//25 52//25
f 36//25 38//25 37//25
f 38//26 36//26 39//26
f 36//26 35//26 39//26
f 35//26 61//26 39//26
f 61//26 62//26 39//26
f 62//26 63//26 39//26
f 63//26 40//26 39//26
f 40//26 42//26 39//26
f 42//22 41//22 39//22
f 63//27 64//27 40//27
f 57//21 6//21 50//21
f 57//21 50//21 49//21
f 43//15 13//15 30//15
f 13//28 28//28 30//28
f 65//21 54//21 29//21
f 54//21 56//21 29//21
f 13//15 43//15 64//15
f 13//15 64//15 14//15
f 54//21 24//21 56//21
f 66//26 67//26 12//26
f 66//26 12//26 68//26
f 15//21 6//21 57//21
f 31//16 59//16 58//16
f 31//16 33//16 59//16
f 2//1 4//1 6//1
f 32//26 35//26 33//26
f 35//24 34//24 33//24
f 32//26 2//26 35//26
f 2//26 61//26 35//26
f 68//26 63//26 62//26
f 68//26 62//26 69//26
f 68//26 12//26 63//26
f 12//26 14//26 63//26
f 14//26 64//26 63//26
f 2//5 17//5 16//5
f 2//5 16//5 66//5
f 13//4 12//4 28//4
f 12//4 70//4 28//4
f 70//29 71//29 65//29
f 71//21 54//21 65//21
f 27//21 24//21 54//21
f 71//30 72//30 54//30
f 72//30 73//30 10//30
f 72//30 10//30 54//30
f 65//4 29//4 28//4
f 65//4 28//4 70//4
f 21//21 15//21 24//21
f 21//21 19//21 15//21
f 64//20 43//20 45//20
f 64//31 45//31 40//31
f 60//1 4//1 2//1
f 66//26 68//26 69//26
f 66//26 69//26 2//26
f 32//1 3//1 2//1
f 1//1 60//1 2//1
f 2//26 69//26 62//26
f 2//26 62//26 61//26
f 67//26 9//26 12//26
f 9//26 73//26 12//26
f 73//29 74//29 12//29
f 74//29 70//29 12//29
f 74//29 71//29 70//29
f 74//32 73//32 72//32
f 74//33 72//33 71//33
f 8//2 7//2 27//2
f 7//2 26//2 27//2
f 73//30 11//30 10//30
f 7//13 67//13 26//13
f 67//13 25//13 26//13
f 67//12 23//12 25//12
f 67//12 75//12 23//12
f 75//10 76//10 23//10
f 76//10 22//10 23//10
f 20//34 77//34 19//34
f 77//34 78//34 19//34
f 78//35 79//35 19//35
f 79//35 18//35 19//35
f 79//6 16//6 18//6
f 79//6 66//6 16//6
f 79//36 78//36 66//36
f 78//26 67//26 66//26
f 78//26 76//26 67//26
f 76//37 75//37 67//37
f 7//38 9//38 67//38
f 11//26 73//26 9//26
f 77//39 20//39 22//39
f 76//9 77//9 22//9
f 78//40 77//40 76//40
