# Blender 4.3.2
# www.blender.org
mtllib right_thumb_3_collision.mtl
o right_thumb_3_collision
v 0.021744 -0.000188 -0.015619
v 0.021744 0.002080 -0.015619
v 0.021936 -0.000161 -0.015479
v 0.022129 0.002134 -0.015323
v 0.021936 -0.014938 -0.015479
v 0.022132 -0.017233 -0.015321
v 0.021744 -0.017179 -0.015619
v 0.021115 -0.014830 -0.015991
v 0.021114 -0.017100 -0.015991
v 0.020863 -0.014801 -0.016107
v 0.020441 -0.017027 -0.016266
v 0.016366 0.000080 -0.017278
v 0.016205 0.000428 -0.017042
v 0.016556 0.000624 -0.017037
v 0.015018 -0.003155 -0.017694
v 0.015160 -0.003178 -0.017730
v 0.015154 -0.003300 -0.017750
v 0.015216 -0.011599 -0.017780
v 0.015292 -0.011568 -0.017793
v 0.015257 -0.011759 -0.017772
v 0.015154 -0.011800 -0.017749
v 0.024697 -0.017431 -0.007718
v 0.024702 -0.016427 -0.007684
v 0.024842 -0.017325 -0.006508
v 0.025056 0.001821 -0.004660
v 0.025062 0.000726 -0.004613
v 0.024942 0.002082 -0.005654
v 0.013216 -0.007548 0.009168
v 0.017086 -0.007548 0.006609
v 0.017191 -0.006231 0.006495
v 0.020407 -0.007548 0.004329
v 0.025631 -0.007548 0.000588
v 0.022968 -0.006327 0.002481
v 0.025625 -0.005951 0.000531
v 0.023005 -0.005185 0.002346
v 0.025608 -0.004535 0.000364
v 0.023011 -0.004122 0.002158
v 0.025583 -0.003421 0.000128
v 0.022985 -0.003138 0.001916
v 0.025547 -0.002373 -0.000208
v 0.022924 -0.002233 0.001617
v 0.025504 -0.001478 -0.000616
v 0.022829 -0.001408 0.001260
v 0.025452 -0.000697 -0.001098
v 0.022697 -0.000663 0.000843
v 0.025392 -0.000020 -0.001652
v 0.022528 0.000001 0.000364
v 0.025324 0.000562 -0.002278
v 0.022319 0.000584 -0.000179
v 0.025248 0.001050 -0.002964
v 0.022070 0.001086 -0.000788
v 0.025157 0.001481 -0.003774
v 0.021779 0.001506 -0.001463
v 0.021445 0.001843 -0.002207
v 0.021067 0.002099 -0.003022
v 0.024826 0.002244 -0.006642
v 0.020643 0.002273 -0.003909
v 0.005867 -0.007548 0.013715
v 0.011378 -0.007548 0.010344
v 0.005852 -0.006330 0.013687
v 0.011445 -0.006131 0.010250
v 0.011471 -0.004847 0.010082
v 0.005795 -0.004992 0.013580
v 0.005843 -0.006032 0.013671
v 0.011322 -0.001721 0.009156
v 0.005512 -0.002414 0.013044
v 0.011409 -0.002647 0.009533
v 0.005601 -0.002983 0.013211
v 0.011459 -0.003687 0.009842
v 0.005736 -0.004189 0.013467
v 0.005774 -0.004673 0.013540
v 0.005295 -0.001366 0.012633
v 0.011199 -0.000902 0.008714
v 0.005087 -0.000632 0.012238
v 0.005190 -0.000972 0.012434
v 0.007315 0.001070 0.008878
v 0.004286 0.001056 0.010722
v 0.004423 0.000848 0.010981
v 0.007593 0.000556 0.009498
v 0.004779 0.000173 0.011655
v 0.011041 -0.000186 0.008209
v 0.004823 0.000073 0.011738
v 0.004901 -0.000116 0.011886
v 0.005074 -0.016608 0.009345
v 0.007007 -0.016594 0.008204
v 0.007315 -0.016167 0.008879
v 0.004287 -0.016152 0.010723
v 0.011042 -0.014910 0.008210
v 0.004901 -0.014981 0.011887
v 0.004823 -0.015169 0.011740
v 0.007594 -0.015652 0.009499
v 0.004779 -0.015270 0.011656
v 0.004424 -0.015944 0.010982
v 0.011200 -0.014194 0.008715
v 0.005191 -0.014125 0.012435
v 0.005087 -0.014465 0.012239
v 0.011472 -0.010250 0.010082
v 0.005736 -0.010907 0.013468
v 0.011459 -0.011409 0.009843
v 0.005601 -0.012115 0.013211
v 0.005852 -0.008767 0.013687
v 0.005844 -0.009064 0.013671
v 0.011445 -0.008965 0.010250
v 0.005795 -0.010107 0.013580
v 0.005775 -0.010423 0.013540
v 0.022968 -0.008769 0.002482
v 0.025626 -0.009125 0.000533
v 0.023005 -0.009912 0.002347
v 0.025612 -0.010336 0.000400
v 0.023011 -0.010975 0.002159
v 0.006306 -0.017214 0.006702
v 0.009761 -0.017140 0.004806
v 0.006670 -0.016940 0.007477
v 0.010079 -0.016856 0.005596
v 0.010367 -0.016496 0.006334
v 0.010625 -0.016056 0.007017
v 0.010850 -0.015529 0.007643
v 0.009414 -0.017356 0.003965
v 0.015692 -0.017255 0.000323
v 0.016015 -0.017020 0.001173
v 0.016302 -0.016711 0.001963
v 0.016552 -0.016323 0.002693
v 0.016766 -0.015853 0.003361
v 0.016944 -0.015300 0.003968
v 0.017086 -0.014660 0.004514
v 0.017191 -0.013931 0.004998
v 0.011322 -0.013375 0.009157
v 0.017261 -0.013111 0.005420
v 0.011409 -0.012449 0.009534
v 0.017296 -0.012197 0.005781
v 0.017296 -0.011186 0.006081
v 0.017260 -0.010077 0.006319
v 0.017191 -0.008865 0.006495
v 0.022985 -0.011959 0.001916
v 0.022925 -0.012864 0.001618
v 0.022829 -0.013689 0.001261
v 0.022698 -0.014434 0.000844
v 0.022528 -0.015098 0.000365
v 0.022320 -0.015681 -0.000178
v 0.022070 -0.016183 -0.000786
v 0.021779 -0.016603 -0.001462
v 0.021446 -0.016941 -0.002206
v 0.021067 -0.017197 -0.003020
v -0.001645 -0.016944 0.012354
v -0.002287 -0.017171 0.011971
v -0.000013 -0.017130 0.010835
v 0.005197 -0.008766 0.014072
v 0.005023 -0.009909 0.014062
v 0.004741 -0.010952 0.014042
v 0.004359 -0.011902 0.014009
v 0.003871 -0.012786 0.013958
v 0.005513 -0.012682 0.013045
v 0.002581 -0.014366 0.013770
v 0.002499 -0.014446 0.013755
v 0.001838 -0.015020 0.013619
v 0.001386 -0.015360 0.013511
v 0.001760 -0.017291 0.009160
v 0.002300 -0.017083 0.009653
v 0.002500 -0.016992 0.009836
v -0.000667 -0.017497 0.009542
v 0.000973 -0.017515 0.008439
v 0.001178 -0.017464 0.008627
v 0.001782 -0.017722 0.005981
v 0.001495 -0.017731 0.006071
v 0.001547 -0.017761 0.005535
v -0.003051 -0.017404 0.011421
v -0.003186 -0.017441 0.011311
v -0.003582 -0.017544 0.010959
v -0.003857 -0.017609 0.010686
v 0.000990 -0.015630 0.013404
v 0.000230 -0.016083 0.013170
v 0.001114 -0.015830 0.013062
v 0.000857 -0.016237 0.012555
v 0.000119 -0.016143 0.013133
v -0.000786 -0.016589 0.012777
v 0.000583 -0.016587 0.012014
v -0.000847 -0.016617 0.012749
v -0.001631 -0.016939 0.012362
v -0.000667 0.002400 0.009541
v 0.001178 0.002367 0.008627
v 0.000973 0.002418 0.008439
v 0.001760 0.002193 0.009160
v -0.000013 0.002033 0.010834
v 0.002299 0.001986 0.009652
v 0.002500 0.001894 0.009836
v 0.002507 -0.000655 0.013753
v 0.004779 -0.004262 0.014044
v 0.002858 -0.001008 0.013814
v 0.005038 -0.005260 0.014063
v 0.005198 -0.006341 0.014072
v -0.000332 0.001280 0.012963
v 0.000233 0.000985 0.013170
v 0.000858 0.001141 0.012554
v 0.001114 0.000733 0.013060
v 0.000545 0.000807 0.013273
v 0.000650 0.000744 0.013306
v 0.001336 0.000296 0.013500
v -0.001117 0.001637 0.012623
v 0.000584 0.001490 0.012013
v 0.001383 0.000263 0.013512
v -0.003546 0.002438 0.010992
v -0.003050 0.002307 0.011421
v -0.002838 0.002246 0.011586
v -0.002285 0.002074 0.011972
v -0.001991 0.001973 0.012155
v 0.002510 -0.002893 0.013756
v 0.002274 -0.002480 0.013711
v -0.003675 0.001453 0.010868
v -0.004160 0.002580 0.010348
v -0.005996 0.002876 0.005753
v -0.005989 0.001876 0.005845
v -0.005973 0.002875 0.005991
v -0.005834 0.001861 0.006865
v -0.005796 0.002856 0.007051
v 0.000446 -0.014641 0.013241
v -0.001103 -0.015605 0.012630
v -0.001366 -0.015733 0.012501
v -0.001641 -0.015857 0.012357
v -0.001923 -0.015975 0.012198
v -0.002435 -0.017220 0.011874
v -0.002673 -0.016252 0.011711
v -0.003052 -0.016373 0.011423
v -0.003366 -0.016465 0.011158
v -0.003731 -0.016564 0.010813
v -0.003988 -0.016627 0.010542
v -0.004274 -0.017701 0.010210
v -0.004463 -0.017739 0.009964
v -0.004514 -0.016743 0.009893
v -0.004974 -0.017833 0.009178
v -0.005886 -0.017964 0.006602
v -0.005882 -0.016964 0.006635
v -0.005996 -0.017974 0.005752
v -0.006002 -0.016974 0.005699
v -0.006010 -0.017975 0.005564
v -0.005755 -0.016899 0.001802
v -0.005699 -0.017887 0.001490
v -0.005740 -0.017896 0.001723
v -0.006036 -0.016970 0.004569
v -0.006032 -0.017968 0.004417
v -0.004980 -0.017732 -0.001763
v -0.004981 -0.016731 -0.001763
v -0.004782 -0.017698 -0.002341
v 0.024248 0.002260 -0.010902
v 0.024259 0.001261 -0.010843
v 0.024144 0.002229 -0.011423
v 0.024258 -0.016359 -0.010848
v 0.024523 -0.017437 -0.009115
v 0.024259 -0.017361 -0.010845
v 0.023955 -0.016273 -0.012194
v 0.024007 -0.017290 -0.012003
v 0.023849 -0.016205 -0.012552
v 0.023726 -0.017219 -0.012915
v 0.005256 -0.007548 0.014075
v -0.006037 0.002875 0.004914
v -0.006039 0.001874 0.004760
v 0.025514 -0.013448 -0.000527
v 0.025555 -0.012542 -0.000140
v -0.006005 0.001860 0.003829
v 0.004290 0.002849 -0.001250
v 0.003751 0.002848 -0.001289
v -0.006004 0.002860 0.003830
v 0.004440 -0.003371 0.014016
v 0.003287 0.002842 -0.001420
v -0.005950 -0.017944 0.003217
v 0.002733 -0.017924 -0.001721
v 0.003287 -0.017940 -0.001419
v -0.006004 -0.017958 0.003830
v -0.005975 0.001852 0.003450
v -0.005966 -0.016948 0.003366
v 0.003750 -0.017946 -0.001287
v 0.004291 -0.017947 -0.001248
v -0.005706 0.002845 0.007404
v -0.005542 0.002823 0.007928
v 0.001307 0.002693 0.005082
v 0.024692 0.002335 -0.007764
v 0.024523 0.002339 -0.009116
v -0.005834 0.002819 0.002309
v -0.005998 0.002858 0.003736
v 0.002765 0.002827 -0.001700
v 0.015215 -0.003500 -0.017781
v 0.015257 -0.003341 -0.017772
v 0.015292 -0.003532 -0.017794
v 0.001308 -0.017790 0.005084
v -0.005384 -0.017898 0.008340
v -0.005691 -0.017941 0.007459
v -0.005706 -0.017943 0.007404
v -0.005682 -0.016939 0.007491
v -0.005583 0.001828 0.007803
v -0.005380 -0.016896 0.008349
v -0.005244 0.001777 0.008653
v -0.005193 0.002771 0.008761
v -0.005178 0.002769 0.008794
v 0.015388 -0.007550 -0.017903
v -0.000481 -0.006902 -0.013087
v -0.000552 -0.003996 -0.013044
v 0.015168 -0.003747 -0.017774
v 0.001546 0.002663 0.005535
v -0.001641 0.001846 0.012355
v 0.002762 0.001762 0.010076
v 0.002013 -0.017874 -0.002534
v 0.002325 -0.017902 -0.002092
v -0.005377 -0.017817 -0.000102
v 0.001495 0.002634 0.006071
v 0.003808 0.002559 0.005340
v 0.024586 0.001349 -0.008627
v 0.024528 0.001340 -0.009075
v 0.022612 0.002047 -0.014854
v 0.022480 -0.000079 -0.014995
v 0.022480 -0.015020 -0.014995
v -0.000142 -0.017399 -0.008942
v -0.000036 -0.017517 -0.007848
v -0.000048 0.002407 -0.007974
v -0.000065 0.002434 -0.007672
v -0.000105 0.002451 -0.007488
v 0.000122 0.002495 -0.006891
v 0.000858 0.002609 -0.005130
v 0.002029 0.002778 -0.002507
v 0.002350 0.002806 -0.002065
v 0.023975 0.002183 -0.012122
v 0.023671 0.002107 -0.013063
v 0.023320 0.002032 -0.013827
v 0.017085 -0.000437 0.004513
v 0.016944 0.000203 0.003967
v -0.005793 0.001809 0.002028
v 0.024729 0.001315 -0.007450
v -0.001643 0.000761 0.012355
v -0.001525 0.000709 0.012418
v 0.022613 -0.017146 -0.014854
v 0.023376 -0.017142 -0.013720
v 0.023667 -0.017205 -0.013072
v 0.024144 -0.017328 -0.011423
v 0.000333 -0.017630 -0.006365
v -0.000105 -0.017549 -0.007489
v -0.000065 -0.017533 -0.007672
v -0.004273 0.002604 0.010210
v 0.001109 0.002492 0.007821
v 0.001324 0.002582 0.006850
v -0.004724 0.002691 0.009589
v 0.024529 -0.016438 -0.009074
v 0.020644 -0.017371 -0.003907
v 0.003808 -0.017656 0.005340
v 0.025588 -0.011506 0.000172
v -0.005178 -0.017866 0.008794
v -0.004799 0.001700 0.009469
v 0.002164 -0.000345 0.013686
v 0.024859 0.001191 -0.006356
v 0.005506 0.002475 0.005019
v 0.009039 0.002413 0.003075
v 0.017261 -0.001986 0.005420
v 0.017191 -0.001166 0.004997
v -0.000554 -0.008200 -0.013065
v -0.000554 -0.006900 -0.013065
v -0.000481 -0.008198 -0.013087
v 0.016015 0.001923 0.001172
v 0.015691 0.002157 0.000322
v 0.022951 0.001962 -0.014434
v 0.010624 0.000959 0.007016
v 0.010367 0.001399 0.006333
v 0.007006 0.001497 0.008203
v 0.021114 0.002002 -0.015991
v -0.000153 0.002285 -0.009055
v -0.000211 0.002190 -0.009647
v -0.004719 0.002590 -0.002477
v -0.004782 0.002599 -0.002341
v -0.004981 0.002633 -0.001763
v -0.005520 0.002749 0.000558
v 0.001903 0.002762 -0.002757
v -0.000476 0.000176 -0.012290
v -0.000453 0.000679 -0.012066
v 0.005295 -0.013732 0.012633
v 0.023955 0.001175 -0.012194
v 0.003269 -0.013619 0.013880
v 0.016793 0.001078 -0.016736
v -0.000430 0.001028 -0.011836
v -0.000413 0.001227 -0.011665
v 0.023667 0.002106 -0.013072
v 0.023561 0.000125 -0.013331
v 0.023162 -0.015141 -0.014102
v 0.023194 0.000048 -0.014050
v -0.005702 0.001788 0.001489
v -0.005700 0.002789 0.001490
v -0.005472 0.001738 0.000329
v -0.005402 -0.016822 0.000013
v 0.021177 -0.000261 -0.015959
v 0.022951 -0.017061 -0.014434
v 0.022983 -0.017067 -0.014386
v 0.023013 -0.017072 -0.014340
v 0.023561 -0.015248 -0.013330
v 0.023620 -0.015733 -0.013190
v 0.023663 0.000777 -0.013082
v 0.002762 -0.016859 0.010076
v 0.023771 0.001007 -0.012787
v -0.004719 -0.017689 -0.002477
v -0.000211 -0.017290 -0.009646
v 0.024966 -0.017136 -0.005451
v 0.004681 -0.017504 0.006139
v 0.009039 -0.017510 0.003077
v 0.005506 -0.017572 0.005020
v 0.001323 -0.017679 0.006850
v 0.004682 0.002407 0.006140
v 0.009413 0.002259 0.003964
v 0.010078 0.001759 0.005595
v 0.016302 0.001614 0.001962
v 0.009760 0.002043 0.004804
v 0.021122 -0.000334 -0.015987
v 0.020894 -0.000704 -0.016093
v 0.020829 -0.000837 -0.016121
v 0.020441 0.001928 -0.016266
v -0.000251 0.002101 -0.010063
v 0.020211 0.001905 -0.016335
v 0.019497 0.001843 -0.016476
v -0.000296 0.001974 -0.010504
v -0.000357 0.001672 -0.011111
v -0.000393 0.001412 -0.011470
v -0.000485 -0.000092 -0.012376
v -0.000501 -0.000808 -0.012534
v -0.000549 -0.003043 -0.013014
v -0.000550 -0.003094 -0.013022
v 0.001109 -0.017589 0.007821
v 0.025405 -0.014952 -0.001537
v 0.025464 -0.014247 -0.000992
v 0.023829 0.001086 -0.012614
v -0.000552 -0.011104 -0.013043
v -0.000550 -0.012006 -0.013021
v -0.000500 -0.014292 -0.012533
v -0.000484 -0.015008 -0.012375
v -0.000476 -0.015276 -0.012289
v -0.000453 -0.015779 -0.012064
v -0.000430 -0.016128 -0.011835
v -0.000413 -0.016327 -0.011664
v -0.000393 -0.016511 -0.011468
v -0.000357 -0.016772 -0.011109
v -0.000295 -0.017073 -0.010502
v -0.000251 -0.017200 -0.010063
v -0.000235 -0.017239 -0.009896
v 0.019497 -0.016942 -0.016476
v 0.020211 -0.017004 -0.016335
v 0.025053 -0.015856 -0.004696
v 0.025182 -0.016474 -0.003554
v 0.025076 -0.016863 -0.004492
v -0.001367 0.000637 0.012500
v 0.005597 -0.017252 0.006977
v 0.005918 -0.017421 0.005882
v 0.016552 0.001226 0.002691
v 0.005917 0.002324 0.005881
v 0.005597 0.002155 0.006977
v 0.020632 -0.014213 -0.016199
v 0.020682 -0.001203 -0.016180
v 0.020537 -0.001690 -0.016233
v 0.015961 -0.007550 -0.017791
v 0.015970 -0.005192 -0.017779
v 0.016010 -0.003173 -0.017729
v 0.019031 0.001809 -0.016511
v 0.018907 0.001801 -0.016514
v 0.016020 -0.002902 -0.017716
v 0.016072 -0.001929 -0.017650
v 0.016108 -0.001491 -0.017605
v 0.016155 -0.001046 -0.017544
v 0.016238 -0.000491 -0.017439
v 0.018376 0.001675 -0.016530
v 0.016923 0.001268 -0.016571
v 0.016923 -0.016366 -0.016571
v 0.016755 -0.016113 -0.016784
v 0.004003 -0.002527 0.013973
v 0.017260 -0.005019 0.006319
v 0.017295 -0.003910 0.006080
v 0.003476 -0.001741 0.013908
v 0.014836 -0.003091 -0.017628
v -0.000518 -0.003094 -0.013032
v -0.000519 -0.003528 -0.013044
v 0.015168 -0.011353 -0.017773
v 0.016018 -0.012124 -0.017719
v 0.015971 -0.009944 -0.017778
v 0.020527 -0.013833 -0.016237
v -0.000519 -0.011572 -0.013043
v -0.000518 -0.012006 -0.013031
v -0.000548 -0.012069 -0.013009
v -0.000521 -0.012077 -0.013014
v 0.014837 -0.012009 -0.017627
v 0.025263 -0.016064 -0.002832
v 0.025336 -0.015569 -0.002168
v 0.018374 -0.016773 -0.016530
v 0.018912 -0.016900 -0.016514
v 0.019031 -0.016908 -0.016511
v 0.016339 -0.015074 -0.017312
v 0.016219 -0.014490 -0.017464
v 0.016155 -0.014041 -0.017545
v 0.016109 -0.013609 -0.017604
v 0.016070 -0.013131 -0.017652
v 0.001115 -0.014062 0.013440
v 0.016766 0.000756 0.003360
v 0.025282 -0.000526 -0.002660
v 0.010849 0.000432 0.007642
v 0.006306 0.002117 0.006701
v 0.005326 0.001875 0.008202
v 0.006669 0.001843 0.007476
v 0.015462 -0.007550 -0.017914
v 0.015183 -0.003714 -0.017778
v 0.015183 -0.011386 -0.017777
v 0.015018 -0.011945 -0.017693
v 0.016526 -0.015650 -0.017075
v 0.025381 -0.013392 -0.001763
v 0.017296 -0.002900 0.005781
v 0.003775 -0.016756 0.009755
v 0.005326 -0.016972 0.008202
v 0.025387 -0.001817 -0.001701
v 0.003776 0.001659 0.009755
v 0.003847 -0.016685 0.009891
v 0.003847 0.001589 0.009891
v 0.005074 0.001510 0.009345
v 0.025427 -0.002598 -0.001333
v 0.025483 -0.010674 -0.000819
v -0.002583 0.001125 0.011773
v -0.003014 0.001266 0.011452
v 0.025486 -0.004591 -0.000789
v 0.025501 -0.009406 -0.000645
v -0.000826 0.000367 0.012755
v -0.000165 -0.000024 0.013026
v -0.000295 -0.015154 0.012978
v 0.002244 -0.012665 0.013705
v 0.001782 -0.001777 0.013608
v 0.001717 -0.013404 0.013592
v 0.001217 -0.001138 0.013469
v 0.003012 -0.011038 0.013842
v 0.002730 -0.003344 0.013795
v 0.003479 -0.006299 0.013909
v 0.003479 -0.008796 0.013909
v 0.003307 -0.005146 0.013885
v 0.003061 -0.004207 0.013849
vn 0.5893 -0.0000 -0.8079
vn 0.6090 0.0026 -0.7932
vn 0.6093 -0.0026 -0.7930
vn 0.4195 -0.0000 -0.9078
vn 0.3777 -0.0055 -0.9259
vn -0.2446 0.4632 -0.8519
vn -0.2155 0.1647 -0.9625
vn -0.1338 -0.0849 -0.9874
vn -0.1799 -0.0964 -0.9789
vn 0.9930 -0.0000 -0.1184
vn 0.9934 -0.0000 -0.1147
vn 0.5512 0.0285 0.8339
vn 0.5821 0.0089 0.8131
vn 0.5885 0.0310 0.8079
vn 0.5828 0.0769 0.8090
vn 0.5864 0.1022 0.8035
vn 0.5778 0.1391 0.8043
vn 0.5784 0.1814 0.7953
vn 0.5695 0.2111 0.7944
vn 0.5656 0.2695 0.7794
vn 0.5565 0.2938 0.7772
vn 0.5440 0.3694 0.7534
vn 0.5363 0.3866 0.7503
vn 0.5135 0.4751 0.7146
vn 0.5068 0.4877 0.7109
vn 0.4727 0.5828 0.6609
vn 0.4665 0.5926 0.6567
vn 0.4220 0.6862 0.5925
vn 0.4151 0.6950 0.5871
vn 0.3635 0.7781 0.5123
vn 0.3544 0.7875 0.5043
vn 0.2987 0.8561 0.4219
vn 0.2887 0.8639 0.4126
vn 0.2301 0.9168 0.3264
vn 0.2221 0.9215 0.3186
vn 0.1640 0.9586 0.2328
vn 0.1590 0.9606 0.2278
vn 0.1052 0.9833 0.1486
vn 0.1013 0.9843 0.1446
vn 0.5217 0.0262 0.8527
vn 0.5225 0.0317 0.8521
vn 0.5201 0.1002 0.8482
vn 0.5199 0.0983 0.8485
vn 0.5210 0.0617 0.8513
vn 0.4864 0.3677 0.7926
vn 0.4948 0.3144 0.8101
vn 0.5042 0.2683 0.8208
vn 0.5056 0.2334 0.8306
vn 0.5152 0.1789 0.8382
vn 0.5153 0.1669 0.8406
vn 0.5169 0.1395 0.8446
vn 0.4747 0.4048 0.7816
vn 0.4364 0.5459 0.7152
vn 0.2991 0.8143 0.4975
vn 0.3154 0.7952 0.5179
vn 0.3362 0.7484 0.5716
vn 0.3903 0.6628 0.6391
vn 0.5387 0.0303 0.8419
vn 0.5470 0.0453 0.8359
vn 0.5660 0.0265 0.8240
vn 0.5705 0.0439 0.8201
vn 0.2593 -0.8654 0.4288
vn 0.2598 -0.8629 0.4334
vn 0.3903 -0.6628 0.6390
vn 0.3362 -0.7486 0.5715
vn 0.4365 -0.5458 0.7153
vn 0.5153 -0.1787 0.8382
vn 0.5057 -0.2333 0.8306
vn 0.5210 -0.0616 0.8513
vn 0.5199 -0.0982 0.8485
vn 0.5201 -0.1001 0.8482
vn 0.5169 -0.1394 0.8446
vn 0.5153 -0.1667 0.8406
vn 0.5821 -0.0088 0.8131
vn 0.5884 -0.0304 0.8080
vn 0.5829 -0.0767 0.8089
vn 0.5857 -0.0952 0.8050
vn 0.5780 -0.1389 0.8042
vn 0.5217 -0.0261 0.8527
vn 0.5225 -0.0316 0.8521
vn 0.5387 -0.0301 0.8419
vn 0.1626 -0.9520 0.2594
vn 0.1731 -0.9468 0.2712
vn 0.2102 -0.9168 0.3397
vn 0.2237 -0.9078 0.3548
vn 0.2627 -0.8652 0.4271
vn 0.2783 -0.8517 0.4440
vn 0.3175 -0.7950 0.5169
vn 0.3337 -0.7770 0.5338
vn 0.1296 -0.9719 0.1963
vn 0.1420 -0.9668 0.2126
vn 0.1752 -0.9467 0.2703
vn 0.1945 -0.9352 0.2959
vn 0.2274 -0.9075 0.3532
vn 0.2519 -0.8876 0.3856
vn 0.2839 -0.8511 0.4416
vn 0.3112 -0.8218 0.4773
vn 0.3413 -0.7761 0.5303
vn 0.3685 -0.7382 0.5650
vn 0.3954 -0.6841 0.6130
vn 0.4197 -0.6408 0.6428
vn 0.4423 -0.5801 0.6840
vn 0.4620 -0.5360 0.7066
vn 0.4798 -0.4713 0.7400
vn 0.4943 -0.4309 0.7550
vn 0.5075 -0.3647 0.7807
vn 0.5172 -0.3313 0.7891
vn 0.5263 -0.2654 0.8078
vn 0.5323 -0.2405 0.8116
vn 0.5380 -0.1761 0.8243
vn 0.5414 -0.1601 0.8254
vn 0.5445 -0.0976 0.8331
vn 0.5459 -0.0899 0.8330
vn 0.5697 -0.0782 0.8181
vn 0.5683 -0.0864 0.8183
vn 0.5659 -0.1404 0.8125
vn 0.5628 -0.1565 0.8117
vn 0.5582 -0.2126 0.8020
vn 0.5527 -0.2368 0.7990
vn 0.5453 -0.2953 0.7845
vn 0.5365 -0.3275 0.7777
vn 0.5254 -0.3882 0.7572
vn 0.5122 -0.4273 0.7450
vn 0.4964 -0.4892 0.7171
vn 0.4781 -0.5328 0.6982
vn 0.4570 -0.5940 0.6621
vn 0.4336 -0.6382 0.6361
vn 0.4069 -0.6960 0.5915
vn 0.3797 -0.7363 0.5600
vn 0.3480 -0.7882 0.5077
vn 0.3195 -0.8206 0.4738
vn 0.2837 -0.8643 0.4153
vn 0.2572 -0.8870 0.3835
vn 0.2185 -0.9217 0.3205
vn 0.1971 -0.9350 0.2948
vn 0.1566 -0.9607 0.2291
vn 0.1425 -0.9667 0.2124
vn 0.1618 -0.9434 0.2894
vn 0.5058 -0.0616 0.8604
vn 0.4983 -0.1396 0.8557
vn 0.4925 -0.1498 0.8573
vn 0.4981 -0.1669 0.8509
vn 0.4940 -0.2277 0.8391
vn 0.4969 -0.2334 0.8358
vn 0.4758 -0.3095 0.8233
vn 0.4767 -0.3146 0.8209
vn 0.4210 -0.5462 0.7242
vn 0.4136 -0.5656 0.7135
vn 0.3971 -0.6100 0.6858
vn 0.3941 -0.6147 0.6833
vn 0.3747 -0.6633 0.6478
vn 0.3636 -0.6844 0.6320
vn 0.3631 -0.6858 0.6308
vn 0.1449 -0.9586 0.2453
vn 0.1661 -0.9433 0.2874
vn 0.0969 -0.9824 0.1597
vn 0.0495 -0.9970 0.0598
vn 0.1124 -0.9752 0.1909
vn 0.0998 -0.9799 0.1730
vn 0.0877 -0.9851 0.1480
vn 0.2914 -0.7764 0.5587
vn 0.2445 -0.8578 0.4521
vn 0.2442 -0.8665 0.4355
vn 0.2222 -0.8910 0.3960
vn 0.1836 -0.9324 0.3113
vn 0.0969 0.9824 0.1596
vn 0.1449 0.9586 0.2452
vn 0.1661 0.9433 0.2874
vn 0.4204 0.5464 0.7244
vn 0.4997 0.1671 0.8499
vn 0.4206 0.5456 0.7249
vn 0.5099 0.0984 0.8546
vn 0.4980 0.0815 0.8633
vn 0.5057 0.0617 0.8605
vn 0.2622 0.8387 0.4774
vn 0.3024 0.7873 0.5372
vn 0.3240 0.7476 0.5797
vn 0.2237 0.8838 0.4109
vn 0.2499 0.8664 0.4324
vn 0.2519 0.8663 0.4314
vn 0.3505 0.7139 0.6062
vn 0.3632 0.6856 0.6309
vn 0.1031 0.9784 0.1792
vn 0.1355 0.9623 0.2360
vn 0.1540 0.9494 0.2735
vn -0.1729 0.0012 0.9849
vn -0.1854 0.0012 0.9827
vn -0.7234 0.0077 0.6904
vn -0.9953 0.0015 0.0973
vn -0.9863 0.0075 0.1649
vn -0.2919 -0.0033 0.9565
vn -0.4387 -0.0055 0.8986
vn -0.4408 -0.0070 0.8976
vn -0.4916 -0.0003 0.8708
vn -0.5100 -0.0073 0.8602
vn -0.5902 -0.0092 0.8072
vn -0.6048 -0.0018 0.7964
vn -0.6325 -0.0017 0.7746
vn -0.6634 -0.0048 0.7482
vn -0.7053 -0.0014 0.7089
vn -0.7514 -0.0039 0.6598
vn -0.8384 -0.0035 0.5451
vn -0.9918 0.0002 0.1281
vn -0.9970 -0.0023 0.0770
vn -0.9851 -0.0019 -0.1721
vn -0.9998 -0.0063 0.0191
vn -0.9460 -0.0004 -0.3241
vn 0.9806 -0.0010 -0.1962
vn 0.9885 0.0001 -0.1512
vn 0.9584 -0.0054 -0.2854
vn 0.9555 -0.0106 -0.2947
vn 0.5067 0.0262 0.8617
vn 0.5070 0.0261 0.8616
vn -0.9999 -0.0003 0.0154
vn 0.5349 -0.3867 0.7512
vn 0.5497 -0.3492 0.7588
vn -0.9993 0.0002 -0.0364
vn -0.9997 0.0006 -0.0264
vn -0.9997 -0.0005 0.0250
vn -0.9984 0.0005 0.0565
vn -0.9988 0.0002 0.0482
vn 0.0016 1.0000 -0.0016
vn -0.0006 1.0000 -0.0053
vn -0.0060 0.9999 -0.0137
vn 0.4923 0.2144 0.8436
vn 0.5002 0.2335 0.8338
vn -0.0081 0.9998 -0.0178
vn -0.0139 -0.9995 -0.0286
vn -0.0114 -0.9997 -0.0237
vn -0.9988 -0.0001 -0.0486
vn -0.9969 -0.0001 -0.0792
vn -0.9967 -0.0001 -0.0808
vn -0.0075 -0.9998 -0.0167
vn -0.0081 -0.9998 -0.0176
vn -0.0012 -1.0000 -0.0059
vn -0.0005 -1.0000 -0.0049
vn 0.0085 -0.9999 0.0088
vn 0.1545 -0.9880 -0.0088
vn -0.9934 -0.0002 0.1150
vn -0.9941 -0.0001 0.1087
vn -0.9967 0.0001 0.0817
vn 0.0064 1.0000 0.0056
vn 0.0131 0.9998 0.0150
vn 0.0219 0.9994 0.0257
vn 0.0283 0.9990 0.0332
vn 0.0364 0.9985 0.0418
vn 0.0389 0.9983 0.0429
vn 0.0252 0.9997 -0.0000
vn 0.0107 0.9993 -0.0372
vn 0.0024 0.9989 -0.0477
vn 0.0009 0.9988 -0.0496
vn -0.9934 0.0099 -0.1141
vn -0.3092 0.0001 0.9510
vn -0.3205 0.0001 0.9472
vn -0.0009 0.9986 -0.0522
vn -0.9961 -0.0034 -0.0881
vn -0.9908 0.0003 -0.1357
vn -0.9924 -0.0008 -0.1231
vn -0.9938 -0.0000 -0.1108
vn -0.1799 0.0962 -0.9790
vn -0.1340 0.0847 -0.9873
vn -0.0010 -0.9986 -0.0522
vn 0.0010 -0.9988 -0.0495
vn 0.0026 -0.9989 -0.0474
vn -0.9917 -0.0004 0.1287
vn 0.0257 -0.9997 0.0014
vn 0.0389 -0.9983 0.0431
vn 0.0408 -0.9982 0.0438
vn 0.0364 -0.9985 0.0418
vn 0.0322 -0.9988 0.0375
vn 0.0250 -0.9993 0.0293
vn 0.0190 -0.9996 0.0224
vn 0.0108 -0.9993 -0.0371
vn -0.9758 -0.0029 0.2188
vn -0.9876 0.0006 0.1571
vn -0.9790 -0.0000 0.2038
vn -0.9751 -0.0004 0.2218
vn 0.3345 0.7473 0.5741
vn 0.3341 0.7485 0.5728
vn -0.9604 -0.0000 0.2787
vn -0.9553 0.0001 0.2955
vn -0.9540 0.0020 0.2999
vn -0.9473 -0.0009 0.3204
vn -0.9281 0.0003 0.3722
vn -0.9248 0.0005 0.3804
vn -0.9225 0.0051 0.3860
vn 0.2082 0.9777 -0.0259
vn -0.2901 0.0069 -0.9570
vn -0.2883 0.0157 -0.9574
vn 0.0401 0.9982 0.0451
vn 0.1933 0.9204 0.3398
vn 0.1814 0.9312 0.3162
vn -0.0226 -0.9987 -0.0466
vn -0.0238 -0.9985 -0.0489
vn 0.0479 0.9971 0.0587
vn 0.0543 0.9961 0.0696
vn 0.0569 0.9957 0.0737
vn 0.9919 0.0002 -0.1272
vn 0.9894 -0.0006 -0.1450
vn 0.9885 -0.0000 -0.1511
vn 0.9884 0.0017 -0.1521
vn 0.0484 0.9975 -0.0516
vn 0.6971 0.0043 -0.7169
vn 0.6828 -0.0000 -0.7306
vn 0.6829 -0.0000 -0.7305
vn 0.6280 -0.0000 -0.7782
vn 0.6278 -0.0000 -0.7784
vn -0.0318 -0.9901 -0.1369
vn -0.0225 -0.9942 -0.1047
vn -0.0182 0.9956 -0.0920
vn -0.0185 0.9955 -0.0928
vn -0.0106 0.9975 -0.0703
vn -0.0072 0.9981 -0.0616
vn -0.0070 0.9981 -0.0611
vn -0.0054 0.9983 -0.0586
vn -0.0033 0.9984 -0.0556
vn 0.1062 0.9912 -0.0792
vn 0.1513 0.9832 -0.1023
vn 0.2455 0.9568 -0.1561
vn 0.4241 0.8615 -0.2791
vn 0.4317 0.8556 -0.2855
vn 0.4569 0.5941 0.6620
vn 0.4336 0.6383 0.6361
vn -0.9898 -0.0003 -0.1424
vn 0.9923 0.0019 -0.1238
vn 0.9926 -0.0005 -0.1211
vn -0.9902 -0.0046 -0.1393
vn -0.0173 -0.9993 -0.0346
vn -0.4734 0.0005 0.8808
vn -0.4966 0.0006 0.8680
vn -0.0033 -0.9985 -0.0554
vn 0.6973 -0.0043 -0.7167
vn 0.4379 -0.8501 -0.2925
vn 0.4065 -0.8738 -0.2667
vn 0.3043 -0.9321 -0.1963
vn 0.2265 -0.9632 -0.1445
vn 0.1460 -0.9843 -0.0993
vn 0.1046 -0.9914 -0.0782
vn 0.0468 -0.9976 -0.0509
vn -0.0055 -0.9983 -0.0587
vn -0.0067 -0.9981 -0.0607
vn -0.0096 -0.9977 -0.0677
vn -0.0184 -0.9955 -0.0926
vn -0.0189 -0.9954 -0.0940
vn 0.0679 0.9920 0.1068
vn 0.0614 0.9935 0.0959
vn 0.9909 -0.0000 -0.1349
vn -0.9628 -0.0000 0.2703
vn -0.9695 -0.0000 0.2453
vn 0.0603 -0.9950 0.0797
vn 0.0612 -0.9949 0.0807
vn 0.0549 -0.9960 0.0707
vn 0.0487 -0.9970 0.0602
vn 0.1138 -0.9746 0.1931
vn 0.1271 -0.9668 0.2217
vn 0.5556 -0.2937 0.7778
vn 0.5686 -0.2534 0.7826
vn -0.9105 -0.0001 0.4135
vn -0.9438 -0.0005 0.3305
vn -0.9442 -0.0017 0.3293
vn -0.9054 -0.0000 0.4246
vn 0.5693 -0.2110 0.7946
vn 0.5802 -0.1674 0.7971
vn -0.8720 0.0005 0.4896
vn -0.8685 0.0056 0.4957
vn 0.4033 0.5943 0.6959
vn 0.3992 0.6099 0.6846
vn 0.9932 0.0002 -0.1165
vn 0.0662 0.9937 0.0901
vn 0.0730 0.9922 0.1013
vn 0.0708 0.9927 0.0978
vn 0.4942 0.4311 0.7549
vn 0.4798 0.4714 0.7400
vn 0.9926 -0.0000 -0.1211
vn -0.2827 -0.0001 -0.9592
vn -0.2825 -0.0001 -0.9593
vn 0.0533 0.9955 0.0779
vn 0.0572 0.9953 0.0787
vn 0.0671 0.9932 0.0951
vn 0.9808 -0.0001 -0.1949
vn 0.9808 -0.0000 -0.1950
vn 0.9809 -0.0000 -0.1946
vn 0.1565 0.9608 0.2290
vn 0.1425 0.9668 0.2123
vn 0.7303 -0.0000 -0.6832
vn 0.7303 -0.0000 -0.6831
vn 0.7335 0.4615 -0.4990
vn 0.5894 -0.0000 -0.8078
vn 0.2783 0.8517 0.4439
vn 0.2627 0.8653 0.4270
vn -0.0355 0.9882 -0.1493
vn -0.1408 0.9796 -0.1432
vn -0.0772 0.9920 -0.0996
vn -0.0827 0.9912 -0.1034
vn -0.0372 0.9873 -0.1545
vn -0.0774 0.9921 -0.0989
vn -0.0136 0.9957 -0.0917
vn -0.0535 0.9956 -0.0773
vn -0.0345 0.9975 -0.0612
vn -0.0303 0.9979 -0.0570
vn -0.0261 0.9982 -0.0538
vn -0.0253 0.9983 -0.0530
vn -0.0092 0.9982 -0.0601
vn -0.2577 0.4034 -0.8780
vn -0.2475 0.4617 -0.8518
vn 0.4747 -0.4046 0.7816
vn 0.4865 -0.3676 0.7926
vn 0.9646 -0.0001 -0.2638
vn 0.4620 -0.4076 0.7877
vn 0.4640 -0.4049 0.7879
vn -0.2173 0.6156 -0.7575
vn -0.2102 0.6478 -0.7323
vn -0.1207 0.9918 -0.0414
vn 0.9083 0.0058 -0.4183
vn 0.9001 0.0002 -0.4356
vn 0.8721 -0.0002 -0.4894
vn 0.8703 -0.0001 -0.4925
vn 0.8545 0.0039 -0.5195
vn -0.9818 0.0017 -0.1898
vn -0.9858 -0.0000 -0.1681
vn -0.9841 -0.0001 -0.1775
vn -0.9815 -0.0001 -0.1916
vn -0.9792 -0.0007 -0.2030
vn -0.9803 -0.0003 -0.1975
vn -0.9801 -0.0021 -0.1987
vn -0.0240 0.9937 -0.1094
vn -0.0318 0.9900 -0.1371
vn 0.5086 -0.0000 -0.8610
vn 0.5078 -0.0003 -0.8615
vn 0.5146 -0.0000 -0.8574
vn -0.0355 -0.9882 -0.1490
vn 0.7633 -0.3448 -0.5463
vn 0.7606 -0.3573 -0.5420
vn 0.7033 -0.5314 -0.4722
vn 0.9039 -0.0000 -0.4278
vn 0.9123 -0.0046 -0.4096
vn 0.8626 -0.0043 -0.5059
vn 0.9188 -0.0023 -0.3948
vn 0.9289 -0.0000 -0.3704
vn 0.1814 -0.9312 0.3162
vn 0.2005 -0.9137 0.3536
vn 0.9471 -0.0001 -0.3211
vn 0.9660 -0.0000 -0.2584
vn -0.0250 -0.9983 -0.0526
vn -0.0315 -0.9978 -0.0585
vn -0.0319 -0.9977 -0.0590
vn -0.0538 -0.9955 -0.0776
vn -0.0789 -0.9918 -0.1002
vn -0.0790 -0.9918 -0.1004
vn -0.0580 -0.9932 -0.1010
vn -0.0610 -0.9930 -0.1008
vn -0.1355 -0.9809 -0.1398
vn -0.0360 -0.9879 -0.1506
vn 0.1162 -0.9800 0.1618
vn 0.1013 -0.9841 0.1458
vn 0.1000 -0.9845 0.1441
vn 0.0985 -0.9849 0.1423
vn 0.0919 -0.9869 0.1329
vn 0.0913 -0.9871 0.1319
vn 0.0735 -0.9920 0.1023
vn 0.0662 -0.9937 0.0899
vn 0.0672 -0.9932 0.0952
vn 0.0577 -0.9951 0.0796
vn 0.0527 -0.9956 0.0770
vn 0.0592 -0.9941 0.0908
vn -0.8404 -0.0005 0.5419
vn 0.0548 -0.9951 0.0827
vn -0.8455 -0.0008 0.5340
vn -0.8091 0.0004 0.5877
vn 0.0822 0.9871 0.1371
vn 0.0710 0.9910 0.1137
vn 0.9933 -0.0006 -0.1155
vn 0.9933 0.0001 -0.1153
vn 0.0727 0.9915 0.1078
vn 0.0794 0.9898 0.1183
vn 0.0842 0.9890 0.1219
vn 0.0917 0.9869 0.1325
vn 0.0916 0.9869 0.1325
vn 0.0984 0.9849 0.1422
vn 0.1007 0.9843 0.1449
vn 0.1945 0.9353 0.2958
vn 0.1751 0.9467 0.2702
vn 0.8460 0.0001 -0.5332
vn -0.5650 0.6849 0.4601
vn 0.8348 -0.0000 -0.5506
vn 0.4515 -0.0000 -0.8923
vn 0.4235 -0.0001 -0.9059
vn 0.3881 0.0034 -0.9216
vn 0.3778 0.0046 -0.9259
vn -0.0403 0.9855 -0.1647
vn -0.2095 0.9601 -0.1852
vn -0.0439 0.9834 -0.1761
vn -0.0482 0.9808 -0.1890
vn -0.0535 0.9775 -0.2041
vn -0.3009 0.9238 -0.2367
vn -0.5092 0.7901 -0.3413
vn -0.6550 0.6416 -0.3991
vn -0.7376 0.5258 -0.4237
vn -0.7858 0.4410 -0.4337
vn -0.8309 0.3431 -0.4380
vn -0.8705 0.2327 -0.4336
vn -0.8898 0.1652 -0.4254
vn -0.8873 0.1746 -0.4268
vn -0.9022 0.1120 -0.4164
vn -0.9030 0.1087 -0.4157
vn -0.9105 0.0829 -0.4050
vn -0.9275 0.0114 -0.3736
vn -0.9293 0.0034 -0.3694
vn -0.9458 -0.0000 -0.3247
vn -0.9458 -0.0000 -0.3248
vn 0.0755 -0.9894 0.1240
vn 0.0832 -0.9870 0.1374
vn -0.9740 0.0049 -0.2264
vn 0.4648 -0.5928 0.6577
vn 0.4837 -0.5606 0.6722
vn 0.9483 -0.0000 -0.3173
vn 0.9386 -0.0003 -0.3449
vn 0.9247 -0.0000 -0.3807
vn 0.9246 0.0001 -0.3809
vn 0.9216 -0.0000 -0.3881
vn 0.8469 0.0001 -0.5318
vn -0.9763 -0.0000 -0.2165
vn -0.9727 -0.0004 -0.2320
vn -0.0402 -0.9855 -0.1645
vn 0.4195 -0.0001 -0.9078
vn 0.4234 -0.0000 -0.9059
vn -0.9293 -0.0034 -0.3694
vn -0.9275 -0.0114 -0.3737
vn -0.9031 -0.1082 -0.4156
vn -0.9022 -0.1121 -0.4165
vn -0.8874 -0.1744 -0.4269
vn -0.8898 -0.1653 -0.4254
vn -0.8705 -0.2329 -0.4337
vn -0.8308 -0.3433 -0.4380
vn -0.7857 -0.4412 -0.4337
vn -0.7374 -0.5260 -0.4237
vn -0.6548 -0.6418 -0.3991
vn -0.5090 -0.7903 -0.3412
vn -0.3009 -0.9238 -0.2367
vn -0.2322 -0.9523 -0.1981
vn -0.1950 -0.9648 -0.1763
vn -0.0498 -0.9798 -0.1935
vn -0.0482 -0.9808 -0.1889
vn -0.0439 -0.9834 -0.1759
vn 0.9934 -0.0000 -0.1145
vn 0.9936 -0.0008 -0.1132
vn 0.9929 0.0136 -0.1181
vn -0.4534 0.0041 0.8913
vn -0.4595 0.0024 0.8882
vn 0.1287 -0.9720 0.1967
vn 0.1201 -0.9752 0.1858
vn 0.0950 -0.9856 0.1398
vn 0.0843 -0.9890 0.1219
vn 0.0976 -0.9834 0.1527
vn 0.0888 -0.9864 0.1386
vn 0.0794 -0.9898 0.1184
vn 0.0727 -0.9915 0.1079
vn 0.0680 -0.9919 0.1069
vn 0.0662 -0.9924 0.1039
vn 0.9932 -0.0000 -0.1162
vn 0.9930 -0.0000 -0.1180
vn -0.8123 0.0006 0.5832
vn -0.9736 0.0003 -0.2283
vn -0.9728 -0.0000 -0.2317
vn 0.9936 0.0001 -0.1129
vn 0.9936 -0.0000 -0.1129
vn 0.2519 0.8877 0.3855
vn 0.2273 0.9076 0.3531
vn 0.0888 0.9864 0.1385
vn 0.0950 0.9856 0.1397
vn 0.0976 0.9834 0.1527
vn 0.1200 0.9752 0.1858
vn 0.1286 0.9720 0.1965
vn 0.7781 -0.0000 -0.6281
vn 0.7783 -0.0000 -0.6279
vn 0.4619 0.5361 0.7065
vn 0.4423 0.5802 0.6839
vn 0.3939 -0.0000 -0.9191
vn 0.3712 -0.0001 -0.9286
vn 0.3731 -0.0001 -0.9278
vn 0.3668 0.0028 -0.9303
vn 0.3418 0.0007 -0.9398
vn 0.3221 0.0001 -0.9467
vn 0.3158 0.0034 -0.9488
vn 0.2948 0.0180 -0.9554
vn 0.2846 0.0276 -0.9583
vn -0.0553 0.9762 -0.2097
vn -0.0591 0.9735 -0.2208
vn -0.0758 0.9599 -0.2699
vn 0.2764 0.0350 -0.9604
vn 0.2583 0.0520 -0.9647
vn 0.2330 0.0808 -0.9691
vn 0.2104 0.1091 -0.9715
vn 0.1782 0.1535 -0.9720
vn 0.1741 0.1582 -0.9719
vn 0.1065 0.2487 -0.9627
vn 0.0456 0.3455 -0.9373
vn -0.1269 0.8933 -0.4311
vn -0.1647 0.8064 -0.5680
vn -0.1701 0.7893 -0.5899
vn -0.1865 0.7334 -0.6537
vn -0.1899 -0.7224 -0.6649
vn -0.1951 -0.7036 -0.6833
vn 0.4782 0.2897 0.8291
vn 0.4803 0.3146 0.8187
vn -0.2336 0.5450 -0.8053
vn -0.2467 0.4668 -0.8492
vn 0.3351 -0.7486 0.5721
vn 0.3411 -0.7331 0.5883
vn 0.5413 0.1603 0.8254
vn 0.5380 0.1763 0.8243
vn 0.4648 0.3771 0.8011
vn 0.4675 0.4050 0.7858
vn -0.2804 0.2071 -0.9373
vn -0.2808 0.1629 -0.9458
vn -0.2830 0.1614 -0.9454
vn -0.2809 0.0278 -0.9593
vn -0.3274 0.0237 -0.9446
vn -0.2825 0.0071 -0.9593
vn -0.2884 0.0210 -0.9573
vn -0.2883 -0.0159 -0.9574
vn -0.2901 -0.0071 -0.9570
vn 0.0381 -0.9982 0.0453
vn 0.0407 -0.9978 0.0516
vn 0.2846 -0.0273 -0.9583
vn 0.2923 -0.0197 -0.9561
vn 0.3154 -0.0036 -0.9489
vn 0.3220 -0.0001 -0.9467
vn 0.3361 -0.0005 -0.9418
vn 0.3652 -0.0028 -0.9309
vn -0.2823 -0.0073 -0.9593
vn -0.3268 -0.0239 -0.9448
vn 0.9720 0.0001 -0.2349
vn 0.9731 -0.0000 -0.2305
vn -0.2884 -0.0212 -0.9573
vn -0.2806 -0.0280 -0.9594
vn 0.2185 0.9218 0.3204
vn 0.1971 0.9350 0.2947
vn -0.9954 -0.0009 0.0960
vn -0.2350 -0.2083 -0.9494
vn -0.2807 -0.2061 -0.9374
vn 0.3530 -0.7876 0.5051
vn 0.3757 -0.7625 0.5267
vn 0.5459 0.0900 0.8330
vn 0.5445 0.0978 0.8331
vn -0.7713 -0.0000 0.6365
vn -0.7913 -0.0000 0.6114
vn 0.9322 -0.0054 -0.3619
vn 0.9474 0.0065 -0.3200
vn -0.2103 -0.6479 -0.7321
vn 0.4137 -0.6951 0.5880
vn 0.4339 -0.6674 0.6052
vn -0.1866 -0.7331 -0.6540
vn -0.1701 -0.7893 -0.5900
vn -0.1647 -0.8065 -0.5679
vn -0.1268 -0.8934 -0.4309
vn -0.0758 -0.9599 -0.2699
vn -0.0590 -0.9736 -0.2206
vn -0.0588 -0.9737 -0.2199
vn -0.0553 -0.9762 -0.2098
vn 0.0459 -0.3426 -0.9384
vn 0.1219 -0.2265 -0.9663
vn 0.1782 -0.1535 -0.9719
vn 0.1803 -0.1503 -0.9721
vn 0.2105 -0.1087 -0.9715
vn 0.2335 -0.0800 -0.9691
vn 0.2597 -0.0504 -0.9644
vn 0.9936 -0.0000 -0.1128
vn 0.9938 -0.0000 -0.1111
vn 0.9511 0.0121 -0.3086
vn 0.9578 0.0018 -0.2876
vn -0.2853 0.0006 0.9584
vn -0.2598 -0.0016 0.9657
vn 0.1307 -0.9709 0.2005
vn 0.1439 -0.9610 0.2361
vn 0.1174 -0.9749 0.1893
vn 0.1158 -0.9760 0.1847
vn 0.0996 -0.9826 0.1567
vn 0.0863 -0.9858 0.1440
vn -0.4652 -0.0004 0.8852
vn -0.4805 0.0041 0.8770
vn -0.7575 -0.0002 0.6528
vn -0.7373 0.0002 0.6755
vn -0.7313 0.0004 0.6820
vn 0.0826 0.9869 0.1384
vn 0.4069 0.6962 0.5915
vn 0.3797 0.7364 0.5599
vn 0.9938 -0.0002 -0.1115
vn 0.4196 0.6409 0.6427
vn 0.3953 0.6842 0.6129
vn 0.0830 0.9868 0.1391
vn 0.0996 0.9826 0.1567
vn 0.1157 0.9760 0.1846
vn 0.1174 0.9749 0.1892
vn 0.1440 0.9610 0.2363
vn 0.1306 0.9710 0.2003
vn 0.1627 0.9519 0.2595
vn 0.1623 0.9522 0.2590
vn 0.1731 0.9469 0.2711
vn -0.9993 0.0006 -0.0364
vn -0.9995 0.0067 -0.0299
vn 0.3378 -0.0000 -0.9412
vn 0.3436 -0.0000 -0.9391
vn 0.3221 -0.0000 -0.9467
vn 0.2403 -0.0040 -0.9707
vn 0.2403 0.0038 -0.9707
vn 0.1630 0.0213 -0.9864
vn 0.0733 0.0330 -0.9968
vn 0.0675 0.0445 -0.9967
vn 0.0001 0.4052 -0.9142
vn -0.0023 0.4095 -0.9123
vn -0.1161 0.5873 -0.8010
vn 0.0494 0.0654 -0.9966
vn -0.0321 0.1049 -0.9940
vn -0.0309 0.1044 -0.9941
vn -0.1241 0.1461 -0.9814
vn -0.1546 0.1575 -0.9753
vn -0.1702 0.1641 -0.9717
vn -0.2119 0.1825 -0.9601
vn -0.2704 0.2126 -0.9390
vn -0.2807 0.2191 -0.9344
vn -0.1191 0.5910 -0.7978
vn -0.1792 0.7101 -0.6809
vn -0.2820 0.1827 -0.9419
vn -0.2858 0.0951 -0.9536
vn -0.2870 0.0599 -0.9560
vn -0.2882 -0.0279 -0.9572
vn -0.2882 -0.0299 -0.9571
vn -0.2904 -0.0001 -0.9569
vn -0.3418 0.0406 -0.9389
vn -0.2901 0.0156 -0.9569
vn -0.2132 0.0204 -0.9768
vn 0.5087 -0.0983 0.8553
vn 0.4975 -0.0837 0.8634
vn -0.1593 0.0228 -0.9870
vn -0.1534 0.0232 -0.9879
vn -0.2134 -0.0205 -0.9767
vn -0.2903 -0.0158 -0.9568
vn 0.0528 -0.0633 -0.9966
vn 0.0758 -0.0333 -0.9966
vn 0.1528 -0.0236 -0.9880
vn 0.3336 0.7771 0.5337
vn 0.3174 0.7951 0.5168
vn -0.3421 -0.0408 -0.9388
vn -0.2870 -0.0602 -0.9560
vn -0.2858 -0.0952 -0.9535
vn -0.2819 -0.1830 -0.9418
vn -0.2803 -0.2111 -0.9364
vn -0.2706 -0.2123 -0.9390
vn -0.2606 -0.2079 -0.9428
vn 0.0199 -0.3756 -0.9266
vn -0.0026 -0.4131 -0.9107
vn -0.1037 -0.5648 -0.8187
vn -0.1186 -0.5970 -0.7934
vn -0.1759 -0.6991 -0.6930
vn -0.2022 -0.1777 -0.9631
vn -0.1547 -0.1576 -0.9753
vn -0.1225 -0.1456 -0.9817
vn -0.0309 -0.1045 -0.9940
vn -0.0286 -0.1036 -0.9942
vn 0.9940 -0.0000 -0.1094
vn 0.9940 -0.0001 -0.1092
vn 0.9935 0.0053 -0.1138
vn 0.2870 -0.8640 0.4136
vn 0.3148 -0.8398 0.4423
vn 0.5172 0.3314 0.7891
vn 0.5075 0.3648 0.7806
vn 0.1980 -0.9243 0.3263
vn 0.1626 -0.9520 0.2595
vn 0.1580 -0.9535 0.2567
vn 0.1474 -0.9588 0.2427
vn 0.1375 -0.9615 0.2378
vn 0.0440 0.9973 0.0583
vn 0.0484 0.9964 0.0693
vn 0.1119 -0.9753 0.1902
vn -0.7113 0.0001 0.7029
vn -0.7007 -0.0000 0.7135
vn -0.6936 0.0001 0.7204
vn -0.6764 -0.0000 0.7365
vn -0.6541 0.0004 0.7564
vn 0.9579 0.0001 -0.2872
vn 0.9587 -0.0000 -0.2844
vn 0.3684 0.7383 0.5649
vn 0.3412 0.7762 0.5302
vn 0.9935 -0.0050 -0.1136
vn 0.9941 0.0004 -0.1086
vn 0.9941 0.0004 -0.1088
vn 0.9940 -0.0000 -0.1092
vn -0.2882 0.0277 -0.9572
vn -0.2881 0.0298 -0.9571
vn 0.1118 0.9754 0.1901
vn 0.4294 -0.5060 0.7481
vn 0.4352 -0.4952 0.7519
vn 0.1474 0.9589 0.2426
vn 0.1353 0.9624 0.2354
vn 0.1580 0.9535 0.2567
vn 0.1703 0.9438 0.2831
vn 0.1864 0.9319 0.3111
vn 0.1974 0.9246 0.3257
vn 0.1981 0.9243 0.3264
vn 0.2230 -0.9072 0.3567
vn 0.2083 -0.9168 0.3406
vn 0.2161 0.9095 0.3552
vn 0.2593 0.8655 0.4287
vn -0.9303 -0.0000 -0.3668
vn 0.9941 -0.0000 -0.1086
vn 0.9942 -0.0000 -0.1079
vn 0.9942 -0.0000 -0.1071
vn 0.9942 0.0001 -0.1075
vn -0.2220 -0.5946 -0.7728
vn -0.2335 -0.5451 -0.8052
vn -0.1590 -0.0232 -0.9870
vn -0.1534 -0.0233 -0.9879
vn 0.2142 -0.9112 0.3518
vn 0.2079 -0.9076 0.3648
vn 0.1973 -0.9247 0.3257
vn 0.1864 -0.9319 0.3112
vn 0.1703 -0.9438 0.2832
vn 0.1442 -0.9565 0.2537
vn 0.1701 -0.9393 0.2981
vn -0.5513 -0.0000 0.8343
vn -0.5548 0.0001 0.8320
vn -0.5650 -0.0000 0.8251
vn -0.6413 0.0001 0.7673
vn -0.6480 0.0002 0.7616
vn -0.6569 0.0001 0.7540
vn -0.6128 0.0028 0.7902
vn 0.3479 0.7882 0.5076
vn 0.3195 0.8207 0.4737
vn 0.2836 0.8644 0.4151
vn 0.2572 0.8871 0.3834
vn -0.2696 0.3019 -0.9144
vn -0.2676 0.3173 -0.9098
vn 0.9936 -0.0042 -0.1127
vn 0.9941 -0.0014 -0.1088
vn 0.9942 -0.0008 -0.1076
vn 0.9944 0.0001 -0.1057
vn 0.9942 -0.0000 -0.1073
vn 0.2597 0.8631 0.4332
vn -0.6029 -0.0001 0.7978
vn -0.6051 -0.0000 0.7961
vn -0.5921 0.0002 0.8059
vn -0.5709 0.0075 0.8210
vn 0.1695 0.9400 0.2962
vn 0.1712 0.9385 0.2997
vn -0.4604 -0.0001 0.8877
vn -0.4653 -0.0000 0.8851
vn 0.2070 0.9092 0.3613
vn 0.2069 0.9098 0.3599
vn 0.2086 0.9081 0.3630
vn 0.2366 0.8833 0.4048
vn 0.2515 0.8672 0.4298
vn 0.9943 -0.0000 -0.1070
vn 0.9943 -0.0000 -0.1064
vn 0.9943 -0.0000 -0.1063
vn 0.1420 0.9668 0.2125
vn 0.1296 0.9720 0.1962
vn 0.3809 0.6851 0.6209
vn 0.3805 0.6861 0.6200
vn 0.3763 -0.6937 0.6142
vn -0.8840 -0.0000 0.4676
vn -0.8977 -0.0000 0.4405
vn 0.2516 -0.8670 0.4301
vn 0.2350 -0.8848 0.4023
vn 0.2076 -0.9091 0.3612
vn 0.2016 -0.9128 0.3550
vn -0.4917 -0.0000 0.8708
vn -0.4736 -0.0000 0.8808
vn -0.0187 0.9991 -0.0381
vn -0.0146 0.9995 -0.0292
vn -0.5276 -0.0000 0.8495
vn -0.5287 -0.0000 0.8488
vn 0.3112 0.8218 0.4772
vn 0.2838 0.8512 0.4415
vn -0.9857 0.0071 -0.1683
vn -0.9868 0.0017 -0.1618
vn 0.3764 0.6935 0.6143
vn 0.5658 0.1406 0.8124
vn 0.5628 0.1566 0.8116
vn 0.9945 -0.0000 -0.1046
vn 0.9944 -0.0002 -0.1054
vn 0.9944 -0.0001 -0.1053
vn 0.9945 0.0001 -0.1050
vn -0.2313 -0.1940 -0.9533
vn -0.2792 -0.2112 -0.9367
vn 0.5052 -0.4878 0.7119
vn 0.5220 -0.4527 0.7229
vn 0.2854 0.8200 0.4962
vn 0.2895 0.8145 0.5028
vn 0.2944 0.8064 0.5128
vn 0.0381 0.9982 0.0462
vn 0.0385 0.9982 0.0468
vn -0.4977 0.0002 0.8674
vn -0.0139 0.9995 -0.0281
vn -0.0099 0.9997 -0.0209
vn 0.4401 0.4694 0.7655
vn 0.4368 0.4952 0.7510
vn -0.4403 -0.0000 0.8978
vn -0.4206 0.0001 0.9072
vn -0.4075 0.0003 0.9132
vn -0.4123 0.0002 0.9111
vn -0.3957 0.0048 0.9184
vn 0.9945 0.0001 -0.1052
vn 0.9943 0.0004 -0.1065
vn 0.5697 0.0784 0.8181
vn 0.5683 0.0866 0.8182
vn 0.4607 0.4741 0.7503
vn 0.4532 0.4948 0.7415
vn 0.3716 0.6635 0.6494
vn 0.3716 0.6633 0.6496
vn 0.3269 -0.7599 0.5619
vn 0.2944 -0.8065 0.5127
vn 0.2894 -0.8147 0.5026
vn 0.2856 -0.8198 0.4964
vn 0.2520 -0.8663 0.4314
vn -0.4408 -0.0000 0.8976
vn -0.0225 0.9987 -0.0462
vn -0.0198 0.9990 -0.0401
vn 0.9930 0.0004 -0.1180
vn 0.9929 -0.0003 -0.1186
vn -0.9974 0.0006 -0.0723
vn 0.4125 -0.6095 0.6770
vn 0.4251 -0.5825 0.6928
vn -0.2514 -0.4377 -0.8633
vn -0.2574 -0.4036 -0.8780
vn 0.2166 0.9090 0.3562
vn 0.2093 0.9169 0.3400
vn 0.5323 0.2407 0.8116
vn 0.5263 0.2655 0.8078
vn 0.5253 0.3883 0.7571
vn 0.5122 0.4275 0.7450
vn 0.5453 0.2954 0.7845
vn 0.5365 0.3276 0.7777
vn -0.3435 0.0018 0.9392
vn -0.3398 0.0002 0.9405
vn -0.0189 -0.9991 -0.0383
vn -0.0205 -0.9989 -0.0423
vn -0.4934 -0.4278 0.7574
vn 0.2946 0.8089 0.5089
vn -0.3637 -0.0066 0.9315
vn -0.3802 -0.0000 0.9249
vn -0.3886 0.0003 0.9214
vn -0.3556 0.0001 0.9346
vn 0.9945 0.0001 -0.1051
vn 0.9943 0.0005 -0.1065
vn 0.9923 0.0002 -0.1238
vn 0.9924 -0.0005 -0.1233
vn 0.4949 -0.3142 0.8102
vn 0.5043 -0.2682 0.8208
vn 0.2989 -0.8144 0.4974
vn 0.3154 -0.7951 0.5180
vn -0.1995 -0.0012 0.9799
vn -0.2065 0.0001 0.9784
vn -0.2050 -0.0000 0.9788
vn -0.2256 -0.0001 0.9742
vn -0.2331 -0.0007 0.9724
vn -0.2362 -0.0001 0.9717
vn -0.2464 -0.0001 0.9692
vn -0.2532 -0.0001 0.9674
vn 0.1576 -0.9607 0.2286
vn 0.1777 -0.9518 0.2499
vn -0.3130 0.0002 0.9497
vn 0.2797 -0.8246 0.4917
vn 0.4533 -0.4947 0.7415
vn 0.4608 -0.4740 0.7503
vn 0.9385 0.0001 -0.3452
vn 0.9359 -0.0000 -0.3523
vn 0.4966 0.1397 0.8567
vn 0.4940 0.1437 0.8575
vn -0.2717 0.0017 0.9624
vn -0.2498 -0.0002 0.9683
vn -0.2333 -0.0000 0.9724
vn -0.2148 0.0038 0.9766
vn 0.5582 0.2127 0.8020
vn 0.5527 0.2369 0.7990
vn 0.3810 -0.6852 0.6207
vn 0.3806 -0.6860 0.6201
vn 0.5084 0.0020 -0.8611
vn 0.2237 0.9078 0.3547
vn 0.2101 0.9168 0.3396
vn 0.5660 -0.0263 0.8240
vn 0.5705 -0.0437 0.8201
vn -0.3499 -0.0000 0.9368
vn -0.2847 -0.0002 0.9586
vn -0.2769 -0.0000 0.9609
vn -0.2695 -0.3021 -0.9144
vn -0.2702 -0.2942 -0.9168
vn 0.4250 0.5826 0.6927
vn 0.4124 0.6095 0.6770
vn 0.2208 -0.9215 0.3194
vn 0.2476 -0.9046 0.3471
vn -0.0228 0.9986 -0.0469
vn -0.0250 0.9983 -0.0522
vn -0.1579 -0.0008 0.9874
vn -0.1638 -0.0001 0.9865
vn -0.1762 0.0001 0.9844
vn -0.1795 0.0001 0.9838
vn -0.1907 0.0001 0.9816
vn -0.1873 -0.0000 0.9823
vn -0.1885 0.0016 0.9821
vn -0.2039 0.0008 0.9790
vn 0.0459 -0.9970 0.0625
vn 0.0441 -0.9973 0.0593
vn -0.2784 -0.2164 -0.9358
vn -0.2792 -0.2131 -0.9363
vn 0.5512 -0.0283 0.8339
vn 0.5470 -0.0451 0.8359
vn -0.1925 0.7132 -0.6741
vn -0.1899 0.7223 -0.6650
vn 0.4964 0.4893 0.7171
vn 0.4781 0.5329 0.6982
vn -0.1026 -0.0001 0.9947
vn -0.1213 0.0002 0.9926
vn -0.1238 -0.0000 0.9923
vn -0.1277 -0.0004 0.9918
vn -0.1368 -0.0000 0.9906
vn -0.1487 0.0001 0.9889
vn -0.1456 -0.0001 0.9893
vn -0.1610 -0.0000 0.9870
vn -0.1596 0.0006 0.9872
vn -0.1737 0.0014 0.9848
vn -0.1488 0.0013 0.9889
vn -0.1438 0.0004 0.9896
vn -0.1369 0.0001 0.9906
vn -0.1207 0.0001 0.9927
vn 0.1192 0.9715 0.2048
vn 0.1138 0.9746 0.1930
vn 0.5066 -0.0262 0.8618
vn 0.5067 -0.0261 0.8617
vn -0.0976 0.0001 0.9952
vn -0.0859 -0.0000 0.9963
vn -0.0838 0.0001 0.9965
vn -0.1372 -0.0000 0.9905
vn -0.0712 -0.0000 0.9975
vn -0.0656 -0.0003 0.9978
vn -0.0581 0.0001 0.9983
vn 0.9924 -0.0000 -0.1233
vn 0.9919 -0.0003 -0.1271
vn -0.0464 0.0001 0.9989
vn -0.2793 0.2129 -0.9363
vn -0.2781 0.2177 -0.9356
vn -0.0900 0.0048 0.9959
s 0
f 1//1 2//1 3//1
f 3//2 2//2 4//2
f 5//3 6//3 7//3
f 8//4 9//4 10//4
f 10//5 9//5 11//5
f 12//6 13//6 14//6
f 15//7 16//7 17//7
f 18//8 19//8 20//8
f 18//9 20//9 21//9
f 22//10 23//10 24//10
f 25//11 26//11 27//11
f 28//12 29//12 30//12
f 31//13 32//13 33//13
f 33//14 32//14 34//14
f 33//15 34//15 35//15
f 35//16 34//16 36//16
f 35//17 36//17 37//17
f 37//18 36//18 38//18
f 37//19 38//19 39//19
f 39//20 38//20 40//20
f 39//21 40//21 41//21
f 41//22 40//22 42//22
f 41//23 42//23 43//23
f 43//24 42//24 44//24
f 43//25 44//25 45//25
f 45//26 44//26 46//26
f 45//27 46//27 47//27
f 47//28 46//28 48//28
f 47//29 48//29 49//29
f 49//30 48//30 50//30
f 49//31 50//31 51//31
f 51//32 50//32 52//32
f 51//33 52//33 53//33
f 53//34 52//34 25//34
f 53//35 25//35 54//35
f 54//36 25//36 27//36
f 54//37 27//37 55//37
f 55//38 27//38 56//38
f 55//39 56//39 57//39
f 58//40 59//40 60//40
f 60//41 59//41 61//41
f 62//42 63//42 61//42
f 61//43 63//43 64//43
f 61//44 64//44 60//44
f 65//45 66//45 67//45
f 67//46 66//46 68//46
f 67//47 68//47 69//47
f 69//48 68//48 70//48
f 69//49 70//49 62//49
f 62//50 70//50 71//50
f 62//51 71//51 63//51
f 65//52 72//52 66//52
f 73//53 74//53 75//53
f 76//54 77//54 78//54
f 76//55 78//55 79//55
f 79//56 78//56 80//56
f 81//57 82//57 83//57
f 59//58 28//58 61//58
f 61//59 28//59 30//59
f 29//60 31//60 30//60
f 30//61 31//61 33//61
f 84//62 85//62 86//62
f 84//63 86//63 87//63
f 88//64 89//64 90//64
f 91//65 92//65 93//65
f 94//66 95//66 96//66
f 97//67 98//67 99//67
f 99//68 98//68 100//68
f 101//69 102//69 103//69
f 103//70 102//70 104//70
f 103//71 104//71 97//71
f 97//72 104//72 105//72
f 97//73 105//73 98//73
f 32//74 31//74 106//74
f 32//75 106//75 107//75
f 107//76 106//76 108//76
f 107//77 108//77 109//77
f 108//78 110//78 109//78
f 58//79 101//79 59//79
f 59//80 101//80 103//80
f 59//81 103//81 28//81
f 111//82 112//82 113//82
f 113//83 112//83 114//83
f 113//84 114//84 85//84
f 85//85 114//85 115//85
f 85//86 115//86 86//86
f 86//87 115//87 116//87
f 86//88 116//88 91//88
f 91//89 116//89 117//89
f 118//90 119//90 112//90
f 112//91 119//91 120//91
f 112//92 120//92 114//92
f 114//93 120//93 121//93
f 114//94 121//94 115//94
f 115//95 121//95 122//95
f 115//96 122//96 116//96
f 116//97 122//97 123//97
f 116//98 123//98 117//98
f 117//99 123//99 124//99
f 117//100 124//100 88//100
f 88//101 124//101 125//101
f 88//102 125//102 94//102
f 94//103 125//103 126//103
f 94//104 126//104 127//104
f 127//105 126//105 128//105
f 127//106 128//106 129//106
f 129//107 128//107 130//107
f 129//108 130//108 99//108
f 99//109 130//109 131//109
f 99//110 131//110 97//110
f 97//111 131//111 132//111
f 97//112 132//112 103//112
f 103//113 132//113 133//113
f 106//114 133//114 108//114
f 108//115 133//115 132//115
f 108//116 132//116 110//116
f 110//117 132//117 131//117
f 110//118 131//118 134//118
f 134//119 131//119 130//119
f 134//120 130//120 135//120
f 135//121 130//121 128//121
f 135//122 128//122 136//122
f 136//123 128//123 126//123
f 136//124 126//124 137//124
f 137//125 126//125 125//125
f 137//126 125//126 138//126
f 138//127 125//127 124//127
f 138//128 124//128 139//128
f 139//129 124//129 123//129
f 139//130 123//130 140//130
f 140//131 123//131 122//131
f 140//132 122//132 141//132
f 141//133 122//133 121//133
f 141//134 121//134 142//134
f 142//135 121//135 120//135
f 142//136 120//136 143//136
f 143//137 120//137 119//137
f 144//138 145//138 146//138
f 102//139 101//139 147//139
f 104//140 148//140 105//140
f 105//141 148//141 149//141
f 105//142 149//142 98//142
f 98//143 149//143 150//143
f 98//144 150//144 100//144
f 100//145 150//145 151//145
f 100//146 151//146 152//146
f 95//147 153//147 96//147
f 96//148 153//148 154//148
f 96//149 154//149 89//149
f 89//150 154//150 155//150
f 89//151 155//151 90//151
f 90//152 155//152 156//152
f 90//153 156//153 92//153
f 146//154 157//154 158//154
f 146//155 158//155 159//155
f 160//156 161//156 162//156
f 163//157 164//157 165//157
f 166//158 167//158 160//158
f 160//159 167//159 168//159
f 160//160 168//160 169//160
f 170//161 171//161 172//161
f 173//162 174//162 175//162
f 173//163 175//163 176//163
f 176//164 175//164 177//164
f 146//165 178//165 144//165
f 179//166 180//166 181//166
f 182//167 183//167 184//167
f 184//168 183//168 185//168
f 74//169 186//169 75//169
f 71//170 70//170 187//170
f 188//171 75//171 186//171
f 63//172 189//172 64//172
f 64//173 189//173 190//173
f 64//174 190//174 60//174
f 191//175 192//175 193//175
f 194//176 195//176 196//176
f 194//177 196//177 197//177
f 198//178 191//178 199//178
f 199//179 191//179 193//179
f 199//180 193//180 77//180
f 80//181 197//181 200//181
f 80//182 200//182 82//182
f 201//183 202//183 179//183
f 183//184 203//184 204//184
f 183//185 204//185 205//185
f 206//186 188//186 186//186
f 206//187 186//187 207//187
f 208//188 201//188 209//188
f 210//189 211//189 212//189
f 213//190 214//190 212//190
f 170//191 215//191 171//191
f 177//192 216//192 217//192
f 177//193 217//193 178//193
f 144//194 218//194 219//194
f 144//195 219//195 145//195
f 220//196 221//196 166//196
f 166//197 221//197 222//197
f 166//198 222//198 167//198
f 167//199 223//199 168//199
f 168//200 224//200 169//200
f 169//201 225//201 226//201
f 227//202 228//202 229//202
f 230//203 231//203 232//203
f 232//204 233//204 234//204
f 235//205 236//205 237//205
f 238//206 239//206 234//206
f 240//207 241//207 242//207
f 243//208 244//208 245//208
f 246//209 247//209 248//209
f 249//210 250//210 251//210
f 251//211 250//211 252//211
f 253//212 58//212 60//212
f 253//213 60//213 190//213
f 238//214 254//214 255//214
f 135//215 136//215 256//215
f 135//216 256//216 257//216
f 258//217 238//217 255//217
f 258//218 239//218 238//218
f 234//219 254//219 238//219
f 234//220 233//220 254//220
f 233//221 210//221 254//221
f 210//222 259//222 254//222
f 259//223 260//223 254//223
f 260//224 261//224 254//224
f 262//225 187//225 70//225
f 262//226 70//226 68//226
f 260//227 263//227 261//227
f 264//228 265//228 266//228
f 264//229 266//229 267//229
f 267//230 239//230 258//230
f 268//231 269//231 258//231
f 269//232 267//232 258//232
f 267//233 266//233 239//233
f 266//234 270//234 239//234
f 270//235 234//235 239//235
f 270//236 271//236 234//236
f 271//237 230//237 234//237
f 230//238 232//238 234//238
f 232//239 212//239 233//239
f 212//240 211//240 233//240
f 211//241 210//241 233//241
f 212//242 259//242 210//242
f 212//243 214//243 259//243
f 214//244 272//244 259//244
f 272//245 273//245 259//245
f 273//246 274//246 259//246
f 274//247 275//247 259//247
f 275//248 276//248 259//248
f 276//249 4//249 259//249
f 4//250 260//250 259//250
f 4//251 263//251 260//251
f 277//252 268//252 278//252
f 171//253 196//253 192//253
f 171//254 192//254 174//254
f 4//255 279//255 263//255
f 269//256 264//256 267//256
f 235//257 264//257 268//257
f 235//258 268//258 277//258
f 264//259 269//259 268//259
f 280//260 17//260 281//260
f 280//261 281//261 282//261
f 265//262 6//262 266//262
f 6//263 270//263 266//263
f 6//264 271//264 270//264
f 231//265 212//265 232//265
f 247//266 22//266 271//266
f 22//267 165//267 271//267
f 165//268 283//268 271//268
f 283//269 284//269 271//269
f 284//270 285//270 271//270
f 285//271 286//271 271//271
f 286//272 230//272 271//272
f 6//273 247//273 271//273
f 286//274 231//274 230//274
f 231//275 213//275 212//275
f 213//276 231//276 214//276
f 231//277 286//277 214//277
f 194//278 197//278 80//278
f 194//279 80//279 78//279
f 285//280 287//280 272//280
f 287//281 288//281 272//281
f 288//282 273//282 272//282
f 288//283 284//283 273//283
f 284//284 289//284 273//284
f 289//285 290//285 273//285
f 290//286 291//286 273//286
f 291//287 292//287 273//287
f 293//288 294//288 295//288
f 293//289 295//289 296//289
f 297//290 275//290 274//290
f 298//291 198//291 299//291
f 298//292 299//292 185//292
f 300//293 301//293 236//293
f 300//294 236//294 302//294
f 297//295 303//295 275//295
f 303//296 304//296 275//296
f 304//297 56//297 275//297
f 305//298 306//298 276//298
f 306//299 246//299 276//299
f 246//300 244//300 276//300
f 244//301 243//301 276//301
f 243//302 4//302 276//302
f 307//303 308//303 4//303
f 308//304 309//304 4//304
f 309//305 6//305 4//305
f 6//306 5//306 4//306
f 5//307 3//307 4//307
f 310//308 7//308 6//308
f 310//309 6//309 311//309
f 312//310 313//310 4//310
f 313//311 314//311 4//311
f 314//312 315//312 4//312
f 315//313 316//313 4//313
f 316//314 317//314 4//314
f 317//315 318//315 4//315
f 318//316 279//316 4//316
f 243//317 245//317 4//317
f 245//318 319//318 4//318
f 319//319 320//319 4//319
f 320//320 321//320 4//320
f 321//321 307//321 4//321
f 322//322 45//322 47//322
f 322//323 47//323 323//323
f 324//324 235//324 277//324
f 305//325 276//325 275//325
f 305//326 275//326 325//326
f 235//327 237//327 264//327
f 237//328 265//328 264//328
f 326//329 327//329 298//329
f 326//330 298//330 205//330
f 301//331 6//331 265//331
f 309//332 328//332 6//332
f 328//333 329//333 6//333
f 329//334 330//334 6//334
f 330//335 252//335 6//335
f 252//336 250//336 6//336
f 250//337 331//337 6//337
f 331//338 248//338 6//338
f 248//339 247//339 6//339
f 301//340 300//340 6//340
f 300//341 332//341 6//341
f 332//342 333//342 6//342
f 333//343 334//343 6//343
f 334//344 311//344 6//344
f 335//345 336//345 337//345
f 335//346 337//346 338//346
f 246//209 306//209 247//209
f 306//347 339//347 247//347
f 286//348 285//348 272//348
f 286//349 272//349 214//349
f 24//350 340//350 22//350
f 340//351 341//351 22//351
f 341//352 163//352 22//352
f 163//353 165//353 22//353
f 166//354 162//354 157//354
f 166//355 157//355 220//355
f 134//356 135//356 257//356
f 134//357 257//357 342//357
f 343//358 289//358 284//358
f 288//359 287//359 284//359
f 287//360 285//360 284//360
f 343//358 290//358 289//358
f 343//361 291//361 290//361
f 110//362 134//362 342//362
f 110//363 342//363 109//363
f 229//364 344//364 292//364
f 344//365 338//365 292//365
f 345//366 186//366 74//366
f 345//367 74//367 83//367
f 27//368 346//368 56//368
f 304//369 347//369 56//369
f 347//370 348//370 56//370
f 348//371 57//371 56//371
f 65//372 349//372 350//372
f 65//373 350//373 73//373
f 24//10 23//10 325//10
f 23//374 305//374 325//374
f 351//375 352//375 294//375
f 351//376 294//376 353//376
f 338//377 337//377 303//377
f 337//378 304//378 303//378
f 337//379 347//379 304//379
f 248//380 331//380 246//380
f 331//381 245//381 246//381
f 245//382 244//382 246//382
f 354//383 54//383 55//383
f 354//384 55//384 355//384
f 328//385 309//385 308//385
f 328//386 308//386 307//386
f 321//387 356//387 307//387
f 7//388 1//388 5//388
f 1//1 3//1 5//1
f 76//389 357//389 358//389
f 76//390 358//390 359//390
f 360//391 361//391 2//391
f 362//392 363//392 361//392
f 363//393 364//393 361//393
f 364//394 312//394 361//394
f 360//395 362//395 361//395
f 364//396 314//396 312//396
f 314//397 313//397 312//397
f 364//398 365//398 314//398
f 365//399 315//399 314//399
f 365//400 366//400 315//400
f 366//401 316//401 315//401
f 366//402 367//402 316//402
f 367//403 317//403 316//403
f 12//404 368//404 369//404
f 12//405 369//405 13//405
f 152//406 370//406 127//406
f 152//407 127//407 129//407
f 250//408 371//408 319//408
f 151//409 372//409 370//409
f 151//410 370//410 152//410
f 373//411 14//411 374//411
f 373//412 374//412 375//412
f 376//413 321//413 320//413
f 376//414 377//414 321//414
f 377//415 329//415 321//415
f 329//416 378//416 321//416
f 378//417 379//417 321//417
f 379//418 356//418 321//418
f 366//419 380//419 381//419
f 380//420 235//420 324//420
f 380//421 236//421 235//421
f 380//422 366//422 236//422
f 366//423 382//423 236//423
f 382//424 383//424 236//424
f 383//425 302//425 236//425
f 361//426 312//426 4//426
f 361//427 4//427 2//427
f 9//428 8//428 7//428
f 8//429 384//429 7//429
f 384//430 1//430 7//430
f 310//431 9//431 7//431
f 385//432 386//432 328//432
f 386//433 387//433 328//433
f 387//434 329//434 328//434
f 377//435 388//435 329//435
f 388//436 330//436 329//436
f 387//437 378//437 329//437
f 388//438 389//438 330//438
f 389//439 390//439 330//439
f 178//440 159//440 391//440
f 178//441 391//441 177//441
f 392//442 251//442 252//442
f 249//443 371//443 250//443
f 302//444 332//444 300//444
f 302//445 240//445 332//445
f 240//446 333//446 332//446
f 240//447 242//447 333//447
f 242//448 393//448 333//448
f 393//449 310//449 333//449
f 310//450 334//450 333//450
f 310//451 311//451 334//451
f 393//452 394//452 310//452
f 394//453 9//453 310//453
f 395//454 143//454 24//454
f 143//455 119//455 24//455
f 119//456 340//456 24//456
f 119//457 118//457 340//457
f 118//458 396//458 340//458
f 396//459 397//459 340//459
f 397//460 398//460 340//460
f 398//461 341//461 340//461
f 398//462 399//462 341//462
f 399//463 163//463 341//463
f 399//464 229//464 163//464
f 229//465 164//465 163//465
f 228//466 344//466 229//466
f 399//467 227//467 229//467
f 228//468 338//468 344//468
f 228//469 335//469 338//469
f 209//470 181//470 336//470
f 209//471 336//471 335//471
f 26//472 346//472 27//472
f 26//473 395//473 346//473
f 337//474 336//474 347//474
f 336//475 400//475 347//475
f 400//476 348//476 347//476
f 400//477 401//477 348//477
f 401//478 57//478 348//478
f 401//479 355//479 57//479
f 355//480 55//480 57//480
f 402//481 403//481 354//481
f 402//482 354//482 404//482
f 379//483 387//483 356//483
f 387//484 386//484 385//484
f 387//485 385//485 356//485
f 8//486 405//486 384//486
f 405//486 360//486 384//486
f 405//487 406//487 360//487
f 406//488 407//488 360//488
f 407//489 408//489 360//489
f 408//490 362//490 360//490
f 409//491 363//491 362//491
f 408//492 410//492 362//492
f 410//493 411//493 362//493
f 411//494 409//494 362//494
f 409//495 412//495 363//495
f 412//496 413//496 363//496
f 413//497 414//497 363//497
f 414//498 375//498 363//498
f 375//499 374//499 363//499
f 374//500 369//500 363//500
f 369//501 368//501 363//501
f 368//502 415//502 363//502
f 415//503 364//503 363//503
f 415//504 416//504 364//504
f 416//505 417//505 364//505
f 417//506 418//506 364//506
f 418//507 295//507 364//507
f 295//508 352//508 364//508
f 242//509 241//509 365//509
f 242//510 365//510 364//510
f 169//511 226//511 419//511
f 169//512 419//512 161//512
f 382//513 366//513 365//513
f 137//514 138//514 420//514
f 137//515 420//515 421//515
f 251//516 392//516 422//516
f 390//517 376//517 392//517
f 390//518 377//518 376//518
f 390//519 389//519 377//519
f 389//520 388//520 377//520
f 387//521 379//521 378//521
f 302//522 383//522 382//522
f 241//523 240//523 302//523
f 394//524 11//524 9//524
f 10//525 406//525 8//525
f 406//526 405//526 8//526
f 351//527 423//527 242//527
f 423//528 424//528 242//528
f 424//529 425//529 242//529
f 425//530 426//530 242//530
f 426//531 393//531 242//531
f 426//532 427//532 393//532
f 427//533 428//533 393//533
f 428//534 429//534 393//534
f 429//535 430//535 393//535
f 430//536 431//536 393//536
f 431//537 432//537 393//537
f 432//538 433//538 393//538
f 433//539 434//539 393//539
f 434//540 435//540 393//540
f 435//541 394//541 393//541
f 435//542 436//542 394//542
f 436//543 437//543 394//543
f 437//544 11//544 394//544
f 26//545 438//545 395//545
f 438//546 439//546 395//546
f 439//547 440//547 395//547
f 441//548 198//548 298//548
f 441//549 298//549 327//549
f 112//550 442//550 118//550
f 442//551 443//551 118//551
f 443//552 396//552 118//552
f 398//553 397//553 396//553
f 443//554 161//554 396//554
f 161//555 419//555 396//555
f 419//556 398//556 396//556
f 419//557 399//557 398//557
f 419//558 226//558 399//558
f 226//559 227//559 399//559
f 346//560 395//560 24//560
f 346//561 24//561 325//561
f 335//562 228//562 227//562
f 302//563 382//563 365//563
f 302//564 365//564 241//564
f 52//565 26//565 25//565
f 52//566 438//566 26//566
f 358//567 444//567 403//567
f 358//568 403//568 402//568
f 181//569 400//569 336//569
f 445//570 401//570 400//570
f 181//571 445//571 400//571
f 445//572 446//572 401//572
f 446//573 404//573 401//573
f 328//574 307//574 356//574
f 328//575 356//575 385//575
f 73//576 350//576 322//576
f 73//577 322//577 81//577
f 10//578 407//578 406//578
f 10//579 447//579 407//579
f 447//580 448//580 407//580
f 448//581 408//581 407//581
f 448//582 449//582 408//582
f 449//583 450//583 408//583
f 450//584 451//584 408//584
f 451//585 452//585 408//585
f 452//586 410//586 408//586
f 411//587 453//587 409//587
f 453//588 454//588 409//588
f 454//589 412//589 409//589
f 452//590 455//590 410//590
f 455//591 456//591 410//591
f 456//592 457//592 410//592
f 457//593 458//593 410//593
f 458//594 411//594 410//594
f 458//595 459//595 411//595
f 459//596 12//596 411//596
f 12//597 453//597 411//597
f 454//598 413//598 412//598
f 454//599 414//599 413//599
f 454//600 460//600 414//600
f 460//601 461//601 414//601
f 462//602 431//602 430//602
f 462//603 430//603 463//603
f 464//604 262//604 68//604
f 464//605 68//605 66//605
f 14//606 369//606 374//606
f 14//607 13//607 369//607
f 170//608 93//608 92//608
f 170//609 92//609 156//609
f 62//610 465//610 466//610
f 62//611 466//611 69//611
f 467//612 464//612 66//612
f 467//613 66//613 72//613
f 468//614 417//614 416//614
f 469//615 418//615 417//615
f 468//616 469//616 417//616
f 469//617 470//617 418//617
f 470//618 295//618 418//618
f 294//619 352//619 295//619
f 470//620 296//620 295//620
f 293//621 471//621 423//621
f 293//622 423//622 353//622
f 284//623 283//623 165//623
f 284//624 165//624 343//624
f 437//625 472//625 11//625
f 472//626 473//626 11//626
f 473//627 450//627 11//627
f 450//628 474//628 11//628
f 474//629 447//629 11//629
f 447//630 10//630 11//630
f 353//631 423//631 351//631
f 475//632 424//632 423//632
f 250//633 319//633 245//633
f 250//634 245//634 331//634
f 471//635 475//635 423//635
f 475//636 476//636 424//636
f 403//637 53//637 54//637
f 403//638 54//638 354//638
f 477//639 425//639 424//639
f 477//640 478//640 425//640
f 478//641 479//641 425//641
f 139//642 140//642 480//642
f 139//643 480//643 481//643
f 61//644 30//644 465//644
f 61//645 465//645 62//645
f 226//646 209//646 335//646
f 226//647 335//647 227//647
f 392//648 376//648 320//648
f 392//649 320//649 422//649
f 463//650 430//650 429//650
f 138//651 139//651 481//651
f 138//652 481//652 420//652
f 462//653 482//653 431//653
f 482//654 483//654 431//654
f 483//655 432//655 431//655
f 483//656 433//656 432//656
f 483//657 434//657 433//657
f 483//658 484//658 434//658
f 484//659 435//659 434//659
f 484//660 436//660 435//660
f 484//661 485//661 436//661
f 485//662 486//662 436//662
f 486//663 437//663 436//663
f 486//664 487//664 437//664
f 487//665 488//665 437//665
f 488//666 489//666 437//666
f 489//667 472//667 437//667
f 52//668 439//668 438//668
f 52//669 480//669 439//669
f 422//670 320//670 319//670
f 422//671 319//671 371//671
f 490//672 215//672 170//672
f 490//673 170//673 156//673
f 111//674 442//674 112//674
f 111//675 157//675 442//675
f 157//676 162//676 442//676
f 162//677 443//677 442//677
f 162//678 161//678 443//678
f 160//679 169//679 161//679
f 217//680 218//680 144//680
f 217//681 144//681 178//681
f 225//682 209//682 226//682
f 225//683 169//683 209//683
f 169//684 208//684 209//684
f 201//685 181//685 209//685
f 323//686 47//686 49//686
f 323//687 49//687 491//687
f 50//688 492//688 52//688
f 492//669 480//669 52//669
f 81//689 322//689 323//689
f 81//690 323//690 493//690
f 201//691 179//691 181//691
f 180//692 445//692 181//692
f 180//693 446//693 445//693
f 180//694 182//694 446//694
f 182//695 494//695 446//695
f 494//696 404//696 446//696
f 494//697 495//697 404//697
f 495//698 496//698 404//698
f 496//699 402//699 404//699
f 261//700 258//700 255//700
f 261//701 255//701 254//701
f 474//702 449//702 447//702
f 449//703 448//703 447//703
f 474//704 450//704 449//704
f 473//705 497//705 450//705
f 497//706 451//706 450//706
f 497//707 452//707 451//707
f 497//708 282//708 452//708
f 282//709 455//709 452//709
f 12//710 14//710 453//710
f 14//711 454//711 453//711
f 14//712 460//712 454//712
f 282//713 456//713 455//713
f 282//714 457//714 456//714
f 282//715 281//715 457//715
f 281//716 458//716 457//716
f 281//717 17//717 458//717
f 17//718 16//718 458//718
f 16//719 15//719 458//719
f 15//720 468//720 458//720
f 468//721 459//721 458//721
f 14//722 373//722 460//722
f 373//723 461//723 460//723
f 15//724 469//724 468//724
f 15//725 17//725 469//725
f 17//726 280//726 469//726
f 18//727 476//727 475//727
f 18//728 475//728 471//728
f 293//729 353//729 294//729
f 280//730 498//730 296//730
f 498//731 293//731 296//731
f 498//732 280//732 293//732
f 148//733 104//733 102//733
f 148//734 102//734 147//734
f 280//735 282//735 497//735
f 280//736 497//736 293//736
f 18//737 499//737 293//737
f 499//738 471//738 293//738
f 489//739 19//739 472//739
f 19//740 497//740 472//740
f 497//741 473//741 472//741
f 79//742 493//742 357//742
f 79//743 357//743 76//743
f 499//744 18//744 471//744
f 18//745 21//745 476//745
f 21//746 500//746 476//746
f 500//747 479//747 476//747
f 479//748 478//748 476//748
f 500//749 486//749 479//749
f 500//750 487//750 486//750
f 484//751 501//751 485//751
f 484//752 483//752 501//752
f 483//753 463//753 501//753
f 483//754 482//754 463//754
f 482//755 462//755 463//755
f 500//756 21//756 487//756
f 21//757 20//757 487//757
f 20//758 488//758 487//758
f 20//759 19//759 488//759
f 19//760 489//760 488//760
f 492//761 502//761 480//761
f 502//762 420//762 480//762
f 420//763 481//763 480//763
f 140//764 141//764 439//764
f 140//765 439//765 480//765
f 67//766 503//766 349//766
f 67//767 349//767 65//767
f 504//768 505//768 113//768
f 505//769 111//769 113//769
f 505//770 158//770 111//770
f 158//771 157//771 111//771
f 146//772 220//772 157//772
f 303//773 297//773 292//773
f 303//774 292//774 338//774
f 166//775 160//775 162//775
f 224//776 208//776 169//776
f 224//777 168//777 208//777
f 168//778 201//778 208//778
f 168//779 223//779 201//779
f 223//780 202//780 201//780
f 251//781 422//781 371//781
f 251//782 371//782 249//782
f 493//783 323//783 491//783
f 493//784 491//784 357//784
f 48//785 44//785 50//785
f 44//786 506//786 50//786
f 506//787 492//787 50//787
f 506//788 502//788 492//788
f 296//789 470//789 469//789
f 296//790 469//790 280//790
f 202//791 180//791 179//791
f 372//792 153//792 95//792
f 372//793 95//793 370//793
f 184//794 494//794 182//794
f 203//795 183//795 182//795
f 184//796 495//796 494//796
f 184//797 185//797 495//797
f 185//798 299//798 495//798
f 299//799 507//799 495//799
f 507//800 496//800 495//800
f 508//801 504//801 113//801
f 508//802 113//802 85//802
f 509//803 510//803 359//803
f 510//804 76//804 359//804
f 242//805 364//805 352//805
f 242//805 352//805 351//805
f 506//806 420//806 502//806
f 506//807 511//807 420//807
f 511//808 512//808 420//808
f 512//809 421//809 420//809
f 501//810 463//810 429//810
f 501//811 429//811 428//811
f 19//812 18//812 293//812
f 19//813 293//813 497//813
f 84//814 508//814 85//814
f 508//815 391//815 504//815
f 391//816 505//816 504//816
f 391//817 159//817 505//817
f 159//818 158//818 505//818
f 145//819 220//819 146//819
f 159//820 178//820 146//820
f 145//821 204//821 220//821
f 204//822 513//822 220//822
f 513//823 221//823 220//823
f 222//824 202//824 167//824
f 202//825 223//825 167//825
f 222//826 514//826 202//826
f 514//827 203//827 202//827
f 491//828 49//828 51//828
f 491//829 51//829 444//829
f 444//830 51//830 53//830
f 444//831 53//831 403//831
f 459//832 415//832 368//832
f 459//833 368//833 12//833
f 46//834 44//834 48//834
f 42//835 40//835 44//835
f 40//836 38//836 44//836
f 38//837 515//837 44//837
f 515//838 511//838 44//838
f 511//807 506//807 44//807
f 510//839 77//839 76//839
f 514//840 222//840 203//840
f 222//841 221//841 203//841
f 221//842 513//842 203//842
f 513//843 204//843 203//843
f 205//844 185//844 183//844
f 205//845 298//845 185//845
f 441//846 327//846 218//846
f 441//847 218//847 217//847
f 509//848 507//848 299//848
f 198//849 509//849 299//849
f 198//850 199//850 509//850
f 199//851 510//851 509//851
f 199//852 77//852 510//852
f 515//853 512//853 511//853
f 515//854 516//854 512//854
f 516//854 256//854 512//854
f 256//855 421//855 512//855
f 404//856 354//856 355//856
f 404//857 355//857 401//857
f 80//858 82//858 81//858
f 80//859 81//859 493//859
f 92//860 91//860 117//860
f 343//861 229//861 292//861
f 343//862 292//862 291//862
f 87//863 176//863 84//863
f 176//864 508//864 84//864
f 176//865 391//865 508//865
f 176//866 177//866 391//866
f 326//867 219//867 218//867
f 326//868 218//868 327//868
f 279//869 318//869 277//869
f 279//870 277//870 278//870
f 219//871 204//871 145//871
f 219//872 205//872 204//872
f 357//873 491//873 444//873
f 357//874 444//874 358//874
f 380//875 324//875 277//875
f 380//876 277//876 381//876
f 79//877 80//877 493//877
f 465//878 35//878 37//878
f 465//879 37//879 466//879
f 36//880 34//880 38//880
f 34//881 515//881 38//881
f 34//882 32//882 515//882
f 32//883 516//883 515//883
f 478//884 477//884 424//884
f 478//885 424//885 476//885
f 136//886 137//886 421//886
f 136//887 421//887 256//887
f 193//888 192//888 77//888
f 192//889 78//889 77//889
f 192//890 194//890 78//890
f 292//891 297//891 274//891
f 292//892 274//892 273//892
f 219//893 326//893 205//893
f 263//894 279//894 278//894
f 263//895 278//895 261//895
f 188//896 467//896 72//896
f 188//897 72//897 75//897
f 441//898 216//898 198//898
f 216//899 177//899 198//899
f 177//900 175//900 198//900
f 175//901 517//901 198//901
f 517//902 191//902 198//902
f 32//883 256//883 516//883
f 32//903 107//903 256//903
f 107//904 257//904 256//904
f 30//905 33//905 35//905
f 30//906 35//906 465//906
f 72//907 65//907 73//907
f 72//908 73//908 75//908
f 200//909 345//909 83//909
f 200//910 83//910 82//910
f 170//911 172//911 93//911
f 172//912 171//912 93//912
f 171//913 87//913 93//913
f 171//914 173//914 87//914
f 173//915 176//915 87//915
f 216//916 441//916 217//916
f 318//917 317//917 381//917
f 318//918 381//918 277//918
f 346//919 325//919 275//919
f 346//920 275//920 56//920
f 278//231 268//231 258//231
f 278//921 258//921 261//921
f 96//922 89//922 88//922
f 96//923 88//923 94//923
f 485//924 501//924 428//924
f 485//925 428//925 427//925
f 507//926 509//926 359//926
f 507//927 359//927 496//927
f 69//928 466//928 503//928
f 69//929 503//929 67//929
f 349//930 41//930 43//930
f 349//931 43//931 350//931
f 503//932 39//932 41//932
f 503//933 41//933 349//933
f 191//934 518//934 192//934
f 518//935 174//935 192//935
f 236//936 301//936 265//936
f 236//937 265//937 237//937
f 196//938 195//938 192//938
f 195//939 194//939 192//939
f 174//940 519//940 175//940
f 519//941 191//941 175//941
f 191//942 517//942 175//942
f 519//943 518//943 191//943
f 109//944 257//944 107//944
f 109//945 342//945 257//945
f 23//946 22//946 247//946
f 23//947 247//947 339//947
f 100//948 152//948 129//948
f 100//949 129//949 99//949
f 93//950 87//950 86//950
f 93//951 86//951 91//951
f 154//952 520//952 155//952
f 520//953 207//953 155//953
f 207//954 521//954 155//954
f 521//955 522//955 155//955
f 522//956 156//956 155//956
f 522//957 200//957 156//957
f 200//958 197//958 156//958
f 197//959 490//959 156//959
f 142//960 143//960 395//960
f 142//961 395//961 440//961
f 215//962 196//962 171//962
f 174//963 173//963 171//963
f 370//964 95//964 94//964
f 370//965 94//965 127//965
f 390//966 392//966 252//966
f 390//967 252//967 330//967
f 189//968 63//968 71//968
f 189//969 71//969 187//969
f 196//970 523//970 197//970
f 523//971 490//971 197//971
f 522//972 521//972 200//972
f 521//973 345//973 200//973
f 466//974 37//974 39//974
f 466//975 39//975 503//975
f 90//976 92//976 117//976
f 90//977 117//977 88//977
f 384//978 360//978 2//978
f 384//430 2//430 1//430
f 359//979 358//979 402//979
f 359//980 402//980 496//980
f 29//981 133//981 31//981
f 133//982 106//982 31//982
f 519//983 174//983 518//983
f 215//984 490//984 196//984
f 490//985 523//985 196//985
f 485//986 427//986 426//986
f 485//987 426//987 486//987
f 74//988 73//988 81//988
f 74//989 81//989 83//989
f 141//990 142//990 440//990
f 141//991 440//991 439//991
f 366//992 381//992 317//992
f 366//993 317//993 367//993
f 372//994 524//994 153//994
f 524//995 525//995 153//995
f 525//996 206//996 153//996
f 206//997 154//997 153//997
f 206//998 520//998 154//998
f 206//999 207//999 520//999
f 186//1000 345//1000 207//1000
f 345//1001 521//1001 207//1001
f 229//1002 343//1002 165//1002
f 229//1003 165//1003 164//1003
f 479//1004 486//1004 426//1004
f 479//1005 426//1005 425//1005
f 28//1006 133//1006 29//1006
f 28//1007 103//1007 133//1007
f 461//1008 373//1008 375//1008
f 461//1009 375//1009 414//1009
f 350//1010 43//1010 45//1010
f 350//1011 45//1011 322//1011
f 150//1012 464//1012 151//1012
f 464//1013 526//1013 151//1013
f 526//1014 527//1014 151//1014
f 527//1015 372//1015 151//1015
f 527//1016 528//1016 372//1016
f 528//1017 524//1017 372//1017
f 528//1018 529//1018 524//1018
f 529//1019 525//1019 524//1019
f 529//1020 188//1020 525//1020
f 188//1021 206//1021 525//1021
f 529//1022 467//1022 188//1022
f 529//1023 528//1023 467//1023
f 528//1024 526//1024 467//1024
f 526//1025 464//1025 467//1025
f 202//1026 203//1026 182//1026
f 202//1027 182//1027 180//1027
f 253//1028 147//1028 101//1028
f 253//1029 101//1029 58//1029
f 150//1030 262//1030 464//1030
f 150//1031 149//1031 262//1031
f 149//1032 187//1032 262//1032
f 528//1033 527//1033 526//1033
f 149//1034 189//1034 187//1034
f 149//1035 147//1035 189//1035
f 147//1036 190//1036 189//1036
f 23//1037 339//1037 306//1037
f 23//1038 306//1038 305//1038
f 147//1039 253//1039 190//1039
f 468//1040 416//1040 415//1040
f 468//1041 415//1041 459//1041
f 148//1042 147//1042 149//1042
